<svg width="485" height="515" viewBox="0 0 485 515" fill="none" xmlns="http://www.w3.org/2000/svg">
<path d="M485 414.596C485 469.659 376.429 514.297 242.5 514.297C108.571 514.297 0 469.659 0 414.596C0 359.532 108.571 314.894 242.5 314.894C376.429 314.894 485 359.532 485 414.596Z" fill="url(#paint0_linear_1_95)"/>
<path fill-rule="evenodd" clip-rule="evenodd" d="M465.246 452.687C477.393 440.88 484 428.008 484 414.596C484 401.183 477.393 388.311 465.246 376.504C453.096 364.694 435.464 354.013 413.593 345.021C369.857 327.039 309.367 315.894 242.5 315.894C175.633 315.894 115.143 327.039 71.4069 345.021C49.5364 354.013 31.9035 364.694 19.7539 376.504C7.60733 388.311 1 401.183 1 414.596C1 428.008 7.60733 440.88 19.7539 452.687C31.9035 464.497 49.5364 475.178 71.4069 484.17C115.143 502.152 175.633 513.297 242.5 513.297C309.367 513.297 369.857 502.152 413.593 484.17C435.464 475.178 453.096 464.497 465.246 452.687ZM242.5 514.297C376.429 514.297 485 469.659 485 414.596C485 359.532 376.429 314.894 242.5 314.894C108.571 314.894 0 359.532 0 414.596C0 469.659 108.571 514.297 242.5 514.297Z" fill="url(#paint1_linear_1_95)"/>
<g filter="url(#filter0_d_1_95)">
<path d="M284.31 27.3674C284.31 36.9591 265.591 44.7347 242.5 44.7347C219.409 44.7347 200.69 36.9591 200.69 27.3674C200.69 17.7756 219.409 10 242.5 10C265.591 10 284.31 17.7756 284.31 27.3674Z" fill="white"/>
</g>
<path d="M432.255 274.37C432.255 317.355 347.299 352.202 242.5 352.202C137.701 352.202 52.7454 317.355 52.7454 274.37C52.7454 231.385 137.701 196.538 242.5 196.538C347.299 196.538 432.255 231.385 432.255 274.37Z" fill="url(#paint2_linear_1_95)"/>
<path fill-rule="evenodd" clip-rule="evenodd" d="M416.647 303.948C426.124 294.757 431.255 284.762 431.255 274.37C431.255 263.978 426.124 253.983 416.647 244.792C407.166 235.599 393.395 227.273 376.297 220.26C342.106 206.236 294.802 197.538 242.5 197.538C190.198 197.538 142.894 206.236 108.703 220.26C91.6046 227.273 77.8339 235.599 68.3534 244.792C58.8759 253.983 53.7454 263.978 53.7454 274.37C53.7454 284.762 58.8759 294.757 68.3534 303.948C77.8339 313.141 91.6046 321.467 108.703 328.48C142.894 342.504 190.198 351.202 242.5 351.202C294.802 351.202 342.106 342.504 376.297 328.48C393.395 321.467 407.166 313.141 416.647 303.948ZM242.5 352.202C347.299 352.202 432.255 317.355 432.255 274.37C432.255 231.385 347.299 196.538 242.5 196.538C137.701 196.538 52.7454 231.385 52.7454 274.37C52.7454 317.355 137.701 352.202 242.5 352.202Z" fill="url(#paint3_linear_1_95)"/>
<path fill-rule="evenodd" clip-rule="evenodd" d="M384.697 225.891C392.385 218.546 396.52 210.583 396.52 202.328C396.52 194.072 392.385 186.11 384.697 178.764C377.008 171.416 365.827 164.753 351.929 159.136C324.139 147.904 285.677 140.934 243.143 140.934C200.609 140.934 162.148 147.904 134.357 159.136C120.459 164.753 109.279 171.416 101.589 178.764C93.9019 186.11 89.7666 194.072 89.7666 202.328C89.7666 210.583 93.9019 218.546 101.589 225.891C109.279 233.239 120.459 239.903 134.357 245.52C162.148 256.752 200.609 263.722 243.143 263.722C285.677 263.722 324.139 256.752 351.929 245.52C365.827 239.903 377.008 233.239 384.697 225.891ZM243.143 264.722C328.403 264.722 397.52 236.787 397.52 202.328C397.52 167.868 328.403 139.934 243.143 139.934C157.883 139.934 88.7666 167.868 88.7666 202.328C88.7666 236.787 157.883 264.722 243.143 264.722Z" fill="url(#paint4_linear_1_95)"/>
<path opacity="0.24" d="M370.504 134.145C370.504 162.92 313.195 186.247 242.5 186.247C171.805 186.247 114.496 162.92 114.496 134.145C114.496 105.369 171.805 82.0425 242.5 82.0425C313.195 82.0425 370.504 105.369 370.504 134.145Z" fill="url(#paint5_linear_1_95)"/>
<path opacity="0.24" fill-rule="evenodd" clip-rule="evenodd" d="M359.058 152.984C365.286 146.991 368.504 140.624 368.504 134.145C368.504 127.665 365.286 121.299 359.058 115.305C352.824 109.306 343.699 103.812 332.258 99.1553C309.388 89.8461 277.654 84.0425 242.5 84.0425C207.346 84.0425 175.612 89.8461 152.742 99.1553C141.301 103.812 132.176 109.306 125.942 115.305C119.714 121.299 116.496 127.665 116.496 134.145C116.496 140.624 119.714 146.991 125.942 152.984C132.176 158.983 141.301 164.477 152.742 169.134C175.612 178.443 207.346 184.247 242.5 184.247C277.654 184.247 309.388 178.443 332.258 169.134C343.699 164.477 352.824 158.983 359.058 152.984ZM242.5 186.247C313.195 186.247 370.504 162.92 370.504 134.145C370.504 105.369 313.195 82.0425 242.5 82.0425C171.805 82.0425 114.496 105.369 114.496 134.145C114.496 162.92 171.805 186.247 242.5 186.247Z" fill="url(#paint6_linear_1_95)"/>
<path fill-rule="evenodd" clip-rule="evenodd" d="M242.143 434.536L242.143 20.2917L244.143 20.2917L244.143 434.536L242.143 434.536Z" fill="url(#paint7_linear_1_95)"/>
<path d="M163.382 397.871C163.382 411.015 152.726 421.671 139.582 421.671C126.438 421.671 115.782 411.015 115.782 397.871C115.782 384.727 126.438 374.072 139.582 374.072C152.726 374.072 163.382 384.727 163.382 397.871Z" fill="url(#paint8_radial_1_95)"/>
<path d="M479.854 328.402C479.854 341.546 469.199 352.202 456.054 352.202C442.91 352.202 432.255 341.546 432.255 328.402C432.255 315.258 442.91 304.602 456.054 304.602C469.199 304.602 479.854 315.258 479.854 328.402Z" fill="url(#paint9_radial_1_95)"/>
<path d="M89 125C89 133.284 82.2843 140 74 140C65.7157 140 59 133.284 59 125C59 116.716 65.7157 110 74 110C82.2843 110 89 116.716 89 125Z" fill="url(#paint10_linear_1_95)"/>
<path fill-rule="evenodd" clip-rule="evenodd" d="M409.385 145.291V20.2917H411.385V145.291H409.385Z" fill="url(#paint11_linear_1_95)"/>
<path fill-rule="evenodd" clip-rule="evenodd" d="M431.561 173.517V48.5176H433.561V173.517H431.561Z" fill="url(#paint12_linear_1_95)"/>
<defs>
<filter id="filter0_d_1_95" x="190.69" y="0" width="103.621" height="54.7347" filterUnits="userSpaceOnUse" color-interpolation-filters="sRGB">
<feFlood flood-opacity="0" result="BackgroundImageFix"/>
<feColorMatrix in="SourceAlpha" type="matrix" values="0 0 0 0 0 0 0 0 0 0 0 0 0 0 0 0 0 0 127 0" result="hardAlpha"/>
<feOffset/>
<feGaussianBlur stdDeviation="5"/>
<feComposite in2="hardAlpha" operator="out"/>
<feColorMatrix type="matrix" values="0 0 0 0 1 0 0 0 0 1 0 0 0 0 1 0 0 0 1 0"/>
<feBlend mode="normal" in2="BackgroundImageFix" result="effect1_dropShadow_1_95"/>
<feBlend mode="normal" in="SourceGraphic" in2="effect1_dropShadow_1_95" result="shape"/>
</filter>
<linearGradient id="paint0_linear_1_95" x1="485" y1="413.646" x2="1.64995e-08" y2="413.646" gradientUnits="userSpaceOnUse">
<stop stop-color="#094EFF"/>
<stop offset="1" stop-color="#094EFF" stop-opacity="0"/>
</linearGradient>
<linearGradient id="paint1_linear_1_95" x1="-5.2313e-06" y1="414.596" x2="485" y2="414.596" gradientUnits="userSpaceOnUse">
<stop stop-color="white" stop-opacity="0"/>
<stop offset="1" stop-color="white"/>
</linearGradient>
<linearGradient id="paint2_linear_1_95" x1="60.8545" y1="274.37" x2="432.255" y2="274.37" gradientUnits="userSpaceOnUse">
<stop stop-color="#21BDD9"/>
<stop offset="1" stop-color="#21BDD9" stop-opacity="0"/>
</linearGradient>
<linearGradient id="paint3_linear_1_95" x1="52.7454" y1="274.37" x2="432.255" y2="274.37" gradientUnits="userSpaceOnUse">
<stop stop-color="white"/>
<stop offset="1" stop-color="white" stop-opacity="0"/>
</linearGradient>
<linearGradient id="paint4_linear_1_95" x1="88.7666" y1="202.328" x2="397.52" y2="202.328" gradientUnits="userSpaceOnUse">
<stop stop-color="white"/>
<stop offset="1" stop-color="white" stop-opacity="0"/>
</linearGradient>
<linearGradient id="paint5_linear_1_95" x1="242.5" y1="82.0425" x2="242.5" y2="186.247" gradientUnits="userSpaceOnUse">
<stop stop-color="white"/>
<stop offset="1" stop-color="white" stop-opacity="0"/>
</linearGradient>
<linearGradient id="paint6_linear_1_95" x1="235.558" y1="82.0425" x2="235.558" y2="186.611" gradientUnits="userSpaceOnUse">
<stop stop-color="white" stop-opacity="0"/>
<stop offset="1" stop-color="white"/>
</linearGradient>
<linearGradient id="paint7_linear_1_95" x1="243.643" y1="20.2917" x2="243.643" y2="434.536" gradientUnits="userSpaceOnUse">
<stop stop-color="white"/>
<stop offset="1" stop-color="white" stop-opacity="0"/>
</linearGradient>
<radialGradient id="paint8_radial_1_95" cx="0" cy="0" r="1" gradientUnits="userSpaceOnUse" gradientTransform="translate(129.29 390.152) rotate(42.5104) scale(31.4134)">
<stop stop-color="white"/>
<stop offset="1" stop-color="white" stop-opacity="0"/>
</radialGradient>
<radialGradient id="paint9_radial_1_95" cx="0" cy="0" r="1" gradientUnits="userSpaceOnUse" gradientTransform="translate(445.119 311.034) rotate(45) scale(53.6707 67.5518)">
<stop stop-color="#E530E9"/>
<stop offset="1" stop-color="#FF6FE8" stop-opacity="0"/>
</radialGradient>
<linearGradient id="paint10_linear_1_95" x1="59.641" y1="125" x2="89" y2="125" gradientUnits="userSpaceOnUse">
<stop stop-color="#21BDD9"/>
<stop offset="1" stop-color="#21BDD9" stop-opacity="0"/>
</linearGradient>
<linearGradient id="paint11_linear_1_95" x1="410.885" y1="20.2917" x2="410.885" y2="145.291" gradientUnits="userSpaceOnUse">
<stop stop-color="white"/>
<stop offset="1" stop-color="white" stop-opacity="0"/>
</linearGradient>
<linearGradient id="paint12_linear_1_95" x1="433.061" y1="48.5176" x2="433.061" y2="173.517" gradientUnits="userSpaceOnUse">
<stop stop-color="white"/>
<stop offset="1" stop-color="white" stop-opacity="0"/>
</linearGradient>
</defs>
</svg>
