<?xml version="1.0" encoding="UTF-8"?><svg id="Layer_1" xmlns="http://www.w3.org/2000/svg" viewBox="0 0 500 500"><defs><style>.cls-1{fill:#fff;}</style></defs><circle class="cls-1" cx="217.72" cy="215.28" r="30.19"/><path class="cls-1" d="m121.13,335.44l79.92-47.96-7.99,87.92-63.94,47.96v31.97l183.82-135.87-7.99,47.96,23.97,7.99,7.96-55.76c1.87-13.11-7.23-25.25-20.34-27.12-6.17-.88-12.45.68-17.49,4.34l-42.06,30.59,7.99-71.93,71.93-39.97v-31.97l-215.8,119.89v31.97Z"/><rect class="cls-1" x="70.53" y="459.1" width="37.74" height="15.09" transform="translate(-262.05 146.9) rotate(-36.86)"/><rect class="cls-1" x="11.87" y="412.6" width="99.79" height="15.1" transform="translate(-222.68 104.82) rotate(-33.69)"/><rect class="cls-1" x="14.69" y="357.65" width="63.96" height="15.1" transform="translate(-197.66 89.79) rotate(-34.29)"/><path class="cls-1" d="m280.2,16l-62.98,127.61-140.83,20.46,98.88,96.37,19.3-10.73c-19.05-12.76-24.15-38.55-11.39-57.6,12.76-19.05,38.55-24.15,57.6-11.39,11.09,7.43,17.94,19.75,18.39,33.09l72.28-40.15c5.47-3.03,12.36-1.04,15.39,4.43.93,1.67,1.41,3.56,1.41,5.47v31.98c0,4.11-2.23,7.9-5.82,9.9l-66.83,37.12-4.53,40.63,21.31-15.5h0c15.76-11.49,37.84-8.03,49.33,7.73,5.42,7.44,7.73,16.7,6.42,25.81l-6.9,48.31,64.92,34.14-24.05-140.28,101.9-99.33-140.83-20.46-62.98-127.61Z"/></svg>