<svg width="175" height="539" viewBox="0 0 175 539" fill="none" xmlns="http://www.w3.org/2000/svg">
<g opacity="0.4">
<path fill-rule="evenodd" clip-rule="evenodd" d="M34.2702 340.048C29.7533 330.13 21.883 324.007 16.6913 326.372C16.6725 326.381 16.6538 326.389 16.6351 326.398L13.3172 327.909L13.8597 329.1C11.5147 333.296 11.9872 340.965 15.4694 348.61C18.9515 356.256 24.4267 361.646 29.1312 362.632L29.674 363.823L33.0485 362.287L33.0484 362.286C38.2399 359.922 38.7869 349.965 34.2702 340.048Z" fill="url(#paint0_linear_54_324)"/>
<ellipse cx="21.013" cy="346.086" rx="19.7319" ry="10.3294" transform="rotate(-114.486 21.013 346.086)" fill="url(#paint1_linear_54_324)"/>
<ellipse cx="20.4119" cy="346.344" rx="16.8184" ry="8.87272" transform="rotate(-114.486 20.4119 346.344)" fill="url(#paint2_linear_54_324)"/>
<path d="M23.8552 345.239C23.7267 345.179 23.6322 345.269 23.6463 345.438C23.6692 345.713 23.6891 346.131 23.6499 346.537C23.5262 347.819 22.7687 348.368 21.7664 348.125L22.0141 345.557C22.0201 345.496 22.0082 345.424 21.9806 345.353C21.953 345.281 21.9112 345.216 21.8621 345.166L21.3388 344.639C21.2003 344.5 21.0528 344.532 21.0361 344.706L20.7436 347.737C20.4695 347.57 20.2046 347.386 19.9436 347.162L20.263 343.852C20.2689 343.79 20.257 343.718 20.2291 343.647C20.2013 343.575 20.1592 343.509 20.1098 343.46L19.5603 342.911C19.4221 342.772 19.2755 342.805 19.2588 342.978L18.9575 346.101C18.1501 345.027 17.6727 343.671 17.7923 342.43C17.8239 342.103 17.8972 341.816 17.9533 341.632C17.9909 341.509 17.9329 341.319 17.8205 341.199L17.0061 340.328C16.8823 340.196 16.7428 340.2 16.7032 340.337C16.6333 340.58 16.5356 340.981 16.4897 341.457C16.278 343.651 17.2486 346.236 18.7721 348.023L18.7 348.769C18.6855 348.919 18.7756 349.113 18.9012 349.203L19.4649 349.605C19.5904 349.694 19.7039 349.646 19.7184 349.496L19.7654 349.009C20.0209 349.216 20.3176 349.432 20.5653 349.584L20.5187 350.067C20.5042 350.217 20.5943 350.411 20.7199 350.501L21.2571 350.884C21.3827 350.974 21.4962 350.925 21.5106 350.775L21.5762 350.095C23.3421 350.752 24.7495 349.871 24.9769 347.514C25.0343 346.92 24.9967 346.356 24.9625 346.029C24.9458 345.868 24.8384 345.698 24.7173 345.642L23.8552 345.239Z" fill="url(#paint3_linear_54_324)"/>
<path d="M12.2484 337.716C15.4846 331.657 19.4659 326.761 23.2672 323.737C25.1686 322.224 27.0055 321.195 28.6644 320.711C30.3204 320.228 31.7652 320.296 32.9371 320.922C34.109 321.548 34.969 322.711 35.4884 324.356C36.0086 326.004 36.1747 328.103 35.9745 330.524C35.5743 335.365 33.7183 341.397 30.4821 347.456C27.2459 353.514 23.2646 358.411 19.4633 361.435C17.5619 362.948 15.7251 363.977 14.0661 364.461C12.4101 364.944 10.9653 364.876 9.7934 364.25C8.62148 363.624 7.76148 362.461 7.24214 360.816C6.72186 359.168 6.55579 357.069 6.75598 354.648C7.15622 349.806 9.01216 343.775 12.2484 337.716Z" stroke="url(#paint4_linear_54_324)"/>
</g>
<g opacity="0.4">
<path fill-rule="evenodd" clip-rule="evenodd" d="M157.504 166.193C151.406 168.916 147.619 173.712 149.044 176.904C149.051 176.918 149.058 176.933 149.064 176.948L149.972 178.979L150.704 178.652C153.265 180.107 157.966 179.852 162.667 177.752C167.367 175.653 170.695 172.323 171.32 169.444L172.054 169.117L171.127 167.042L171.127 167.042C171.126 167.042 171.126 167.042 171.126 167.042C169.701 163.849 163.602 163.469 157.504 166.193Z" fill="url(#paint5_linear_54_324)"/>
<ellipse cx="161.144" cy="174.344" rx="12.0921" ry="6.3301" transform="rotate(155.934 161.144 174.344)" fill="url(#paint6_linear_54_324)"/>
<ellipse cx="161.298" cy="174.713" rx="10.3067" ry="5.43739" transform="rotate(155.934 161.298 174.713)" fill="url(#paint7_linear_54_324)"/>
<path d="M160.637 172.598C160.6 172.677 160.655 172.735 160.758 172.727C160.926 172.714 161.183 172.704 161.432 172.73C162.217 172.812 162.55 173.278 162.396 173.891L160.824 173.728C160.786 173.724 160.742 173.731 160.698 173.748C160.654 173.764 160.614 173.79 160.584 173.819L160.258 174.138C160.172 174.222 160.191 174.312 160.297 174.324L162.154 174.516C162.05 174.684 161.936 174.845 161.798 175.004L159.771 174.793C159.733 174.79 159.689 174.797 159.645 174.813C159.601 174.83 159.56 174.856 159.53 174.886L159.191 175.22C159.106 175.304 159.125 175.394 159.231 175.405L161.143 175.604C160.481 176.094 159.648 176.38 158.889 176.301C158.688 176.28 158.513 176.234 158.4 176.199C158.325 176.175 158.208 176.21 158.134 176.278L157.597 176.773C157.515 176.849 157.517 176.934 157.601 176.959C157.749 177.003 157.995 177.065 158.286 177.095C159.63 177.235 161.219 176.651 162.32 175.726L162.777 175.773C162.869 175.783 162.988 175.729 163.044 175.652L163.293 175.308C163.348 175.232 163.319 175.162 163.227 175.153L162.929 175.122C163.057 174.966 163.19 174.785 163.285 174.634L163.581 174.665C163.672 174.674 163.792 174.62 163.847 174.543L164.085 174.216C164.14 174.139 164.111 174.07 164.019 174.06L163.603 174.017C164.013 172.938 163.479 172.071 162.036 171.921C161.672 171.883 161.327 171.904 161.126 171.923C161.027 171.933 160.923 171.998 160.888 172.072L160.637 172.598Z" fill="url(#paint8_linear_54_324)"/>
</g>
<path fill-rule="evenodd" clip-rule="evenodd" d="M140.142 75.2436L140.658 73.5216L145.534 74.9814C153.037 77.2276 155.641 90.667 151.351 104.999C147.061 119.332 137.5 129.13 129.997 126.884C129.991 126.882 129.985 126.88 129.979 126.879L125.121 125.424L125.636 123.702C121.663 118.434 120.873 107.915 124.18 96.8661C127.488 85.8167 133.928 77.4623 140.142 75.2436Z" fill="url(#paint9_linear_54_324)"/>
<ellipse cx="132.193" cy="99.2648" rx="27.0891" ry="14.1809" transform="rotate(-73.3354 132.193 99.2648)" fill="url(#paint10_linear_54_324)"/>
<ellipse cx="131.321" cy="99.0045" rx="23.0894" ry="12.181" transform="rotate(-73.3354 131.321 99.0045)" fill="url(#paint11_linear_54_324)"/>
<path d="M134.072 106.51C133.322 107.218 132.587 107.78 131.868 108.197C131.156 108.587 130.481 108.839 129.845 108.952C129.208 109.065 128.644 109.036 128.151 108.863L128.943 104.967C129.339 105.211 129.799 105.303 130.32 105.242C130.854 105.169 131.402 104.98 131.964 104.675C132.538 104.358 133.068 103.971 133.552 103.514C134.163 102.937 134.613 102.363 134.901 101.791C135.189 101.22 135.275 100.689 135.159 100.198C135.082 99.8766 134.915 99.7064 134.656 99.6878C134.398 99.6692 133.997 99.8227 133.453 100.148L130.943 101.617C130.273 102.005 129.656 102.26 129.092 102.38C128.539 102.489 128.062 102.413 127.662 102.154C127.27 101.868 126.988 101.365 126.818 100.645C126.596 99.7102 126.59 98.7033 126.8 97.6241C127.01 96.5449 127.426 95.4687 128.046 94.3956C128.663 93.3072 129.474 92.2896 130.477 91.3427C131.503 90.3741 132.458 89.7267 133.34 89.4003C134.234 89.063 135.069 89.0436 135.846 89.3421L135.046 92.9365C134.414 92.7086 133.763 92.7037 133.095 92.9216C132.435 93.1134 131.73 93.563 130.98 94.2704C130.519 94.7057 130.16 95.1284 129.905 95.5383C129.645 95.933 129.474 96.3105 129.39 96.6709C129.302 97.016 129.291 97.3264 129.357 97.6022C129.411 97.832 129.5 98.0008 129.625 98.1084C129.761 98.2052 129.968 98.2159 130.246 98.1406C130.533 98.0391 130.936 97.8364 131.457 97.5325L133.474 96.3046C134.646 95.5925 135.565 95.3056 136.233 95.444C136.898 95.5671 137.359 96.1726 137.617 97.2603C137.863 98.3022 137.87 99.3736 137.637 100.475C137.404 101.576 136.974 102.647 136.346 103.69C135.729 104.721 134.971 105.662 134.072 106.51ZM133.652 109.382L129.098 90.1693L130.915 88.4552L135.468 107.668L133.652 109.382Z" fill="url(#paint12_linear_54_324)" fill-opacity="0.8"/>
<path d="M129.477 107.305L129.477 107.305L129.485 107.301C129.76 107.142 130.036 106.96 130.313 106.756L130.635 108.115L130.751 108.601L131.114 108.258L132.684 106.777L133.047 106.434L132.932 105.948L132.604 104.563C132.955 104.128 133.276 103.669 133.565 103.184C134.156 102.204 134.574 101.172 134.802 100.094C135.035 98.9948 135.022 97.9451 134.788 96.957C134.539 95.9057 134.076 95.2688 133.386 95.1397C132.723 95.0032 131.852 95.2929 130.811 95.9258L130.81 95.926L130.589 96.0609L130.16 94.251C130.266 94.2048 130.37 94.1669 130.472 94.1372L130.472 94.1373L130.481 94.1344C131.002 93.9645 131.513 93.9664 132.018 94.1481L132.407 94.2884L132.562 93.5928L133.252 90.4876L133.364 89.9855L133.085 89.8782C132.364 89.6009 131.586 89.6188 130.755 89.9319C130.294 90.1025 129.817 90.3658 129.323 90.7186L128.998 89.3505L128.883 88.8639L128.519 89.2071L126.95 90.6878L126.586 91.031L126.702 91.5175L127.027 92.8903C126.604 93.4037 126.231 93.9436 125.908 94.5116C125.328 95.5155 124.923 96.5522 124.717 97.6137C124.51 98.6767 124.518 99.6655 124.732 100.567C124.899 101.273 125.181 101.788 125.585 102.082L125.59 102.086L125.595 102.089C125.994 102.348 126.462 102.418 126.991 102.313L126.991 102.313L126.994 102.313C127.517 102.201 128.082 101.967 128.687 101.617L128.688 101.616L129.045 101.407L129.465 103.178C129.034 103.405 128.615 103.546 128.208 103.601C127.803 103.649 127.454 103.577 127.156 103.393L126.735 103.133L126.569 103.948L125.886 107.314L125.785 107.81L126.063 107.907C126.528 108.07 127.054 108.096 127.637 107.992C128.22 107.888 128.834 107.658 129.477 107.305ZM131.765 101.024L131.528 100.024C131.616 99.9976 131.685 99.9884 131.736 99.992C131.86 100.001 131.911 100.069 131.937 100.181C131.968 100.314 131.968 100.428 131.951 100.531C131.934 100.637 131.893 100.772 131.806 100.945C131.793 100.971 131.779 100.997 131.765 101.024ZM127.855 96.3829L128.113 97.4715C128.108 97.4734 128.103 97.4752 128.098 97.4769C127.907 97.5268 127.81 97.5076 127.766 97.482C127.718 97.4357 127.679 97.3641 127.652 97.2524C127.624 97.1343 127.627 97.0094 127.668 96.8492L127.671 96.8391L127.673 96.829C127.7 96.7124 127.755 96.5646 127.855 96.3829Z" stroke="url(#paint13_linear_54_324)"/>
<g opacity="0.6">
<path fill-rule="evenodd" clip-rule="evenodd" d="M132.545 399.026L132.276 399.927L129.722 399.163L129.722 399.163C125.795 397.987 124.431 390.951 126.677 383.447C128.924 375.943 133.929 370.813 137.857 371.989C137.866 371.992 137.874 371.994 137.883 371.997L140.41 372.753L140.14 373.655C142.221 376.413 142.634 381.92 140.903 387.705C139.171 393.49 135.799 397.865 132.545 399.026Z" fill="url(#paint14_linear_54_324)"/>
<ellipse cx="136.709" cy="386.449" rx="14.1826" ry="7.42446" transform="rotate(106.665 136.709 386.449)" fill="url(#paint15_linear_54_324)"/>
<ellipse cx="137.165" cy="386.585" rx="12.0885" ry="6.37742" transform="rotate(106.665 137.165 386.585)" fill="url(#paint16_linear_54_324)"/>
<path d="M135.722 382.657C136.114 382.287 136.499 381.992 136.876 381.774C137.248 381.57 137.601 381.438 137.935 381.379C138.268 381.319 138.563 381.335 138.821 381.425L138.407 383.465C138.199 383.337 137.959 383.289 137.686 383.321C137.407 383.359 137.12 383.458 136.825 383.618C136.525 383.784 136.247 383.987 135.994 384.226C135.674 384.528 135.438 384.829 135.288 385.128C135.137 385.427 135.092 385.705 135.153 385.962C135.193 386.13 135.28 386.219 135.416 386.229C135.551 386.239 135.761 386.158 136.046 385.988L137.36 385.219C137.71 385.016 138.034 384.883 138.329 384.82C138.618 384.763 138.868 384.802 139.078 384.938C139.283 385.088 139.43 385.351 139.52 385.728C139.636 386.217 139.639 386.744 139.529 387.31C139.419 387.875 139.201 388.438 138.876 389C138.553 389.57 138.129 390.102 137.604 390.598C137.066 391.105 136.567 391.444 136.105 391.615C135.637 391.792 135.199 391.802 134.793 391.646L135.211 389.764C135.543 389.883 135.883 389.886 136.233 389.772C136.579 389.671 136.948 389.436 137.34 389.065C137.582 388.837 137.77 388.616 137.903 388.402C138.039 388.195 138.129 387.997 138.173 387.809C138.219 387.628 138.225 387.465 138.19 387.321C138.162 387.201 138.115 387.112 138.05 387.056C137.979 387.005 137.87 387 137.725 387.039C137.575 387.092 137.363 387.198 137.091 387.357L136.035 388C135.421 388.373 134.94 388.523 134.59 388.451C134.242 388.386 134.001 388.069 133.866 387.5C133.737 386.955 133.733 386.394 133.855 385.817C133.977 385.241 134.202 384.68 134.531 384.134C134.854 383.594 135.251 383.102 135.722 382.657ZM135.942 381.154L138.326 391.213L137.375 392.11L134.991 382.051L135.942 381.154Z" fill="url(#paint17_linear_54_324)" fill-opacity="0.8"/>
<path d="M138.119 381.976L138.119 381.975L138.111 381.98C138.013 382.037 137.915 382.099 137.817 382.166L137.696 381.654L137.58 381.167L137.217 381.511L136.395 382.286L136.031 382.629L136.147 383.115L136.273 383.649C136.131 383.838 135.998 384.035 135.874 384.242C135.543 384.793 135.301 385.384 135.169 386.008C135.032 386.655 135.042 387.263 135.175 387.822C135.318 388.426 135.591 388.814 136.008 388.892C136.146 388.921 136.297 388.917 136.459 388.886L136.343 389.407L135.982 391.033L135.87 391.535L136.149 391.642C136.551 391.797 136.985 391.787 137.448 391.612C137.654 391.536 137.866 391.426 138.083 391.285L138.206 391.805L138.321 392.291L138.685 391.948L139.507 391.173L139.87 390.83L139.755 390.343L139.631 389.818C139.808 389.587 139.971 389.344 140.115 389.089C140.44 388.527 140.674 387.933 140.794 387.316C140.915 386.697 140.909 386.122 140.786 385.605C140.689 385.196 140.523 384.888 140.28 384.711L140.275 384.708L140.27 384.705C140.103 384.596 139.916 384.545 139.713 384.547L139.823 384.003L140.181 382.241L140.282 381.745L140.004 381.648C139.742 381.556 139.448 381.543 139.128 381.6C138.806 381.657 138.469 381.783 138.119 381.976ZM136.753 388.803C136.961 388.729 137.183 388.619 137.418 388.478L137.515 388.889C137.305 388.938 137.096 388.927 136.887 388.852L136.753 388.803ZM138.528 384.957L138.484 384.982L138.384 384.559C138.509 384.511 138.632 384.48 138.752 384.463C138.942 384.441 139.102 384.475 139.236 384.558L139.319 384.609C139.069 384.679 138.806 384.796 138.529 384.956L138.528 384.957Z" stroke="url(#paint18_linear_54_324)"/>
</g>
<g opacity="0.5">
<path fill-rule="evenodd" clip-rule="evenodd" d="M29.1086 514.195C38.1424 518.955 47.4858 518.981 49.9777 514.251C49.9901 514.228 50.0024 514.204 50.0144 514.181L51.5968 511.177L50.512 510.606C49.8442 506.152 45.097 500.739 38.1326 497.069C31.1682 493.4 24.0198 492.544 19.9684 494.511L18.8825 493.939L17.2628 497.013L17.2633 497.013C14.7716 501.742 20.0749 509.435 29.1086 514.195Z" fill="url(#paint19_linear_54_324)"/>
<ellipse cx="35.4716" cy="502.12" rx="18.4891" ry="9.67884" transform="rotate(27.7862 35.4716 502.12)" fill="url(#paint20_linear_54_324)"/>
<ellipse cx="35.7601" cy="501.571" rx="15.7591" ry="8.31388" transform="rotate(27.7862 35.7601 501.571)" fill="url(#paint21_linear_54_324)"/>
<g clip-path="url(#clip0_54_324)">
<path d="M29.3429 501.734L30.5824 502.733L33.9692 505.454L35.2087 506.452L41.4922 506.452L41.5787 505.454L41.8092 502.708L41.8956 501.71L40.6561 500.711L37.2837 498.015L36.0443 497.017L29.7607 497.017L29.6743 498.015L29.4294 500.736L29.3429 501.734ZM39.0133 504.455L35.3815 504.455L31.9947 501.735L32.2396 499.014L35.8714 499.014L39.2582 501.735L39.0133 504.455Z" fill="url(#paint22_linear_54_324)"/>
</g>
</g>
<path fill-rule="evenodd" clip-rule="evenodd" d="M148.97 480.991C138.828 469.335 125.66 464.188 119.558 469.497C119.547 469.507 119.535 469.517 119.524 469.527L115.592 472.948L116.81 474.348C115.316 480.997 119.053 491.23 126.871 500.217C134.69 509.203 144.307 514.32 151.099 513.761L152.317 515.161L156.283 511.711L156.283 511.71C162.385 506.401 159.111 492.648 148.97 480.991Z" fill="url(#paint23_linear_54_324)"/>
<ellipse cx="133.386" cy="494.548" rx="27.9763" ry="14.6453" transform="rotate(-131.023 133.386 494.548)" fill="url(#paint24_linear_54_324)"/>
<ellipse cx="132.872" cy="495.189" rx="23.8455" ry="12.5799" transform="rotate(-131.023 132.872 495.189)" fill="url(#paint25_linear_54_324)"/>
<path d="M124.993 492.589C125.563 495.516 128.639 498.805 131.865 499.915C132.51 500.135 133.133 500.26 133.71 500.287C134.102 500.303 134.251 499.961 134.036 499.519C133.823 499.092 133.319 498.721 132.91 498.699C132.46 498.688 131.966 498.585 131.455 498.395C129.266 497.59 127.163 495.37 126.668 493.349C126.114 491.097 127.688 489.932 130.081 490.755C131.155 491.126 132.261 491.856 133.172 492.797C134.084 493.737 134.732 494.817 134.985 495.815C134.985 495.815 135.177 496.577 135.31 496.964C135.376 497.158 135.434 497.309 135.469 497.413C135.493 497.461 135.455 497.487 135.406 497.457L134.702 497.097L131.078 495.207C130.861 495.095 130.651 495.057 130.492 495.101C130.334 495.145 130.24 495.267 130.231 495.441C130.224 495.616 130.303 495.828 130.45 496.031C130.597 496.234 130.801 496.412 131.018 496.525C131.018 496.525 139.833 501.106 139.928 501.152C140.378 501.385 140.76 501.281 140.776 500.919C140.783 500.744 140.704 500.531 140.557 500.328C140.41 500.125 140.205 499.947 139.989 499.834C139.893 499.788 138.722 499.175 138.722 499.175C138.294 498.953 137.88 498.63 137.537 498.249C137.195 497.868 136.941 497.448 136.809 497.047C136.746 496.867 136.571 496.19 136.571 496.19C135.804 493.367 132.866 490.335 129.794 489.278C126.566 488.168 124.423 489.663 124.993 492.589ZM138.352 496.829C138.347 496.934 138.368 497.052 138.414 497.175C138.46 497.299 138.53 497.425 138.619 497.547C138.709 497.67 138.816 497.786 138.935 497.888C139.054 497.99 139.183 498.078 139.314 498.144C139.858 498.424 140.326 498.309 140.338 497.853C140.343 497.748 140.321 497.63 140.275 497.507C140.229 497.384 140.16 497.257 140.07 497.135C139.981 497.012 139.873 496.897 139.754 496.794C139.635 496.692 139.506 496.604 139.375 496.538C138.816 496.254 138.364 496.374 138.352 496.829V496.829Z" fill="url(#paint26_linear_54_324)"/>
<g opacity="0.5">
<path fill-rule="evenodd" clip-rule="evenodd" d="M154.25 8.79498L155.229 8.12778L157.119 10.9029L157.119 10.903C160.026 15.1728 155.772 23.1365 147.616 28.6912C139.46 34.2461 130.491 35.2882 127.583 31.0186C127.576 31.0081 127.569 30.9976 127.562 30.9871L125.694 28.2441L126.673 27.5771C126.829 23.2274 130.797 17.5124 137.086 13.2297C143.374 8.9469 150.145 7.34667 154.25 8.79498Z" fill="url(#paint27_linear_54_324)"/>
<ellipse cx="140.191" cy="17.7888" rx="17.8676" ry="9.35352" transform="rotate(-34.2585 140.191 17.7888)" fill="url(#paint28_linear_54_324)"/>
<ellipse cx="139.823" cy="17.415" rx="15.2294" ry="8.03443" transform="rotate(-34.2585 139.823 17.415)" fill="url(#paint29_linear_54_324)"/>
<path fill-rule="evenodd" clip-rule="evenodd" d="M138.438 14.3661C138.51 14.3171 138.591 14.2857 138.66 14.2805L145.143 13.7976C145.261 13.7888 145.257 13.9162 145.136 13.9996L143.286 15.2757C143.215 15.3245 143.135 15.3559 143.063 15.3612L136.581 15.8441C136.462 15.8529 136.467 15.7255 136.588 15.6421L138.438 14.3661ZM136.312 18.7742C136.383 18.7253 136.463 18.6939 136.534 18.6886L143.017 18.2057C143.135 18.1969 143.131 18.3243 143.01 18.4077L141.16 19.6838C141.089 19.7326 141.009 19.764 140.938 19.7693L134.455 20.2522C134.337 20.261 134.341 20.1336 134.462 20.0502L136.312 18.7742ZM142.712 16.0899C142.784 16.0846 142.838 16.1059 142.865 16.1475L143.577 17.2327C143.623 17.3037 143.5 17.4399 143.382 17.4488L136.899 17.9317C136.828 17.937 136.773 17.9156 136.746 17.8741L136.035 16.7889C135.988 16.7179 136.111 16.5817 136.23 16.5728L142.712 16.0899Z" fill="url(#paint30_linear_54_324)"/>
</g>
<path fill-rule="evenodd" clip-rule="evenodd" d="M86.9571 459.359C95.6599 446.795 97.3833 432.917 90.8063 428.361C90.7817 428.344 90.757 428.327 90.7323 428.311L86.5309 425.4L85.4854 426.91C78.7471 427.099 69.8487 433.175 63.1396 442.861C56.4305 452.546 53.8693 463.013 56.0611 469.388L55.015 470.898L59.2899 473.859L59.2902 473.859C59.2903 473.859 59.2903 473.859 59.2904 473.859C65.8674 478.415 78.2542 471.923 86.9571 459.359Z" fill="url(#paint31_linear_54_324)"/>
<ellipse cx="70.1618" cy="447.727" rx="27.6734" ry="14.4868" transform="rotate(-55.2898 70.1618 447.727)" fill="url(#paint32_linear_54_324)"/>
<ellipse cx="69.3988" cy="447.198" rx="23.5874" ry="12.4438" transform="rotate(-55.2898 69.3988 447.198)" fill="url(#paint33_linear_54_324)"/>
<path d="M64.287 449.587L64.0681 452.691L66.5281 452.859L66.3951 454.678L62.4948 454.42L62.8556 449.485L64.287 449.587ZM64.5142 446.48L64.3818 448.291L62.9495 448.188L63.0819 446.377L64.6473 444.66L66.0869 444.759L64.5142 446.48ZM68.2374 443.601L69.8027 441.884L71.2423 441.983L69.6697 443.704L68.2374 443.601Z" fill="url(#paint34_linear_54_324)"/>
<path d="M65.1181 451.778L65.2508 449.969L66.6797 450.071L66.5476 451.871L65.1181 451.778ZM67.4776 453.233L68.9065 453.335L70.4754 451.624L70.3433 453.424L68.7744 455.135L67.3456 455.033L67.4776 453.233ZM73.3003 441.198L74.8619 439.491L76.298 439.589L76.1659 441.389L74.5971 443.1L74.7291 441.3L73.3003 441.198ZM74.2758 447.478L74.5107 444.384L76.0723 442.678L75.7123 447.583L71.4633 452.208L71.5961 450.399L74.2758 447.478Z" fill="url(#paint35_linear_54_324)"/>
<path d="M73.216 447.587L71.6424 449.312L71.7755 447.484L73.3496 445.75L73.216 447.587Z" fill="url(#paint36_linear_54_324)"/>
<path d="M73.6943 442.205L73.5693 444.029L70.8684 446.986L70.6401 450.117L69.0718 451.833L67.6355 451.738L67.8637 448.608L65.3906 448.443L65.5239 446.615L67.0993 444.886L69.5563 445.067L72.2577 442.102L73.7007 442.201L73.6943 442.205ZM65.7506 443.493L70.0131 438.815L73.9219 439.083L72.3529 440.808L69.8804 440.635L67.1863 443.597L65.7506 443.493Z" fill="url(#paint37_linear_54_324)"/>
<path fill-rule="evenodd" clip-rule="evenodd" d="M21.7396 443.364C21.7396 442.471 21.5029 441.634 21.0889 440.911C21.8114 441.325 22.6486 441.562 23.5411 441.562C24.4335 441.562 25.2707 441.325 25.9933 440.911C25.5793 441.634 25.3426 442.471 25.3426 443.364C25.3426 444.256 25.5793 445.093 25.9933 445.816C25.2707 445.402 24.4335 445.165 23.5411 445.165C22.6486 445.165 21.8114 445.402 21.0889 445.816C21.5029 445.093 21.7396 444.256 21.7396 443.364Z" fill="white"/>
<path fill-rule="evenodd" clip-rule="evenodd" d="M62.6501 27.3913C49.2255 12.3253 31.9491 5.80887 24.0622 12.8365C24.062 12.8366 24.0619 12.8368 24.0618 12.8369L24.0617 12.8368L18.9354 17.4047L20.5488 19.2154C18.7012 27.9217 23.7401 41.2264 34.089 52.8407C44.438 64.4551 57.076 70.9885 65.9369 70.1531L67.5503 71.9637L72.6511 67.4185C72.6598 67.4109 72.6684 67.4032 72.677 67.3955C80.564 60.3679 76.0748 42.4574 62.6501 27.3913Z" fill="url(#paint38_linear_54_324)"/>
<ellipse cx="42.5107" cy="45.3366" rx="36.538" ry="19.1273" transform="rotate(-131.703 42.5107 45.3366)" fill="url(#paint39_linear_54_324)"/>
<ellipse cx="41.5931" cy="46.1526" rx="31.1431" ry="16.4298" transform="rotate(-131.703 41.5931 46.1526)" fill="url(#paint40_linear_54_324)"/>
<g clip-path="url(#clip1_54_324)">
<path d="M27.9978 41.9621L28.6303 42.3371L45.9141 48.0528L46.0521 47.9327L39.6214 38.2146L27.9978 41.9621Z" fill="white" fill-opacity="0.9"/>
<path d="M27.9976 41.962L42.998 54.5141L46.052 47.9327L37.663 45.1584L27.9976 41.962Z" fill="white" fill-opacity="0.72"/>
<path d="M47.5712 48.4349L47.7124 48.575L53.8692 50.6111L54.1369 50.6062L41.1419 38.7128L47.5712 48.4349Z" fill="white"/>
<path d="M54.1368 50.6062L47.5711 48.435L44.5195 55.0172L54.1368 50.6062Z" fill="white" fill-opacity="0.8"/>
<path d="M46.052 47.9325L39.6213 38.2146L37.6631 45.1583L46.052 47.9325Z" fill="white"/>
<path d="M42.9982 54.5141L46.0521 47.9327L37.6632 45.1585L42.9982 54.5141Z" fill="white" fill-opacity="0.8"/>
</g>
<path d="M30.9401 33.4812C38.677 25.4544 46.8848 19.3782 53.8855 16.0349C57.3877 14.3624 60.5628 13.3858 63.2106 13.1756C65.8594 12.9653 67.919 13.5241 69.2874 14.8431C70.6557 16.1621 71.2899 18.1997 71.1771 20.8544C71.0644 23.5082 70.2052 26.7171 68.6626 30.2784C65.5789 37.3973 59.8086 45.8229 52.0717 53.8497C44.3348 61.8764 36.127 67.9526 29.1263 71.296C25.6241 72.9685 22.449 73.945 19.8012 74.1553C17.1524 74.3655 15.0928 73.8067 13.7244 72.4878C12.3561 71.1688 11.7219 69.1311 11.8347 66.4765C11.9474 63.8226 12.8066 60.6138 14.3492 57.0525C17.4329 49.9336 23.2032 41.508 30.9401 33.4812Z" stroke="url(#paint41_linear_54_324)"/>
<path d="M98.578 481.603C88.8243 465.851 81.5965 450.617 77.7903 438.729C75.886 432.782 74.8472 427.699 74.7642 423.821C74.6803 419.904 75.5717 417.399 77.2966 416.331C79.0214 415.263 81.6606 415.582 85.1299 417.403C88.5646 419.206 92.6511 422.401 97.1262 426.757C106.071 435.463 116.486 448.723 126.24 464.476C135.993 480.229 143.221 495.463 147.027 507.35C148.931 513.298 149.97 518.38 150.053 522.258C150.137 526.176 149.246 528.68 147.521 529.748C145.796 530.816 143.157 530.498 139.688 528.676C136.253 526.873 132.166 523.678 127.691 519.322C118.747 510.617 108.332 497.356 98.578 481.603Z" stroke="url(#paint42_linear_54_324)"/>
<path fill-rule="evenodd" clip-rule="evenodd" d="M99.1642 72.3439C99.1642 71.5407 98.9512 70.7872 98.5786 70.1369C99.2289 70.5095 99.9824 70.7225 100.786 70.7225C101.589 70.7225 102.342 70.5095 102.993 70.1369C102.62 70.7872 102.407 71.5407 102.407 72.3439C102.407 73.1471 102.62 73.9006 102.993 74.5509C102.342 74.1783 101.589 73.9653 100.786 73.9653C99.9824 73.9653 99.2289 74.1783 98.5786 74.5509C98.9512 73.9006 99.1642 73.1471 99.1642 72.3439Z" fill="white"/>
<path fill-rule="evenodd" clip-rule="evenodd" d="M124.964 404.618C124.964 404.083 124.822 403.58 124.573 403.147C125.007 403.395 125.509 403.537 126.045 403.537C126.58 403.537 127.082 403.395 127.516 403.147C127.267 403.58 127.125 404.083 127.125 404.618C127.125 405.154 127.267 405.656 127.516 406.09C127.082 405.841 126.58 405.699 126.045 405.699C125.509 405.699 125.007 405.841 124.573 406.09C124.822 405.656 124.964 405.154 124.964 404.618Z" fill="white"/>
<path fill-rule="evenodd" clip-rule="evenodd" d="M85.9529 62.5345C85.9529 61.0173 85.5505 59.5941 84.8467 58.3657C86.075 59.0696 87.4983 59.4719 89.0154 59.4719C90.5326 59.4719 91.9558 59.0696 93.1842 58.3657C92.4804 59.5941 92.078 61.0173 92.078 62.5345C92.078 64.0517 92.4804 65.4749 93.1842 66.7032C91.9558 65.9994 90.5326 65.5971 89.0154 65.5971C87.4983 65.5971 86.075 65.9994 84.8467 66.7032C85.5505 65.4749 85.9529 64.0517 85.9529 62.5345Z" fill="white"/>
<defs>
<linearGradient id="paint0_linear_54_324" x1="32.6988" y1="361.519" x2="16.6913" y2="326.372" gradientUnits="userSpaceOnUse">
<stop stop-color="#6028FF"/>
<stop offset="1" stop-color="#7646FF" stop-opacity="0"/>
</linearGradient>
<linearGradient id="paint1_linear_54_324" x1="2.12436" y1="346.086" x2="40.7448" y2="346.086" gradientUnits="userSpaceOnUse">
<stop stop-color="#7646FF"/>
<stop offset="1" stop-color="#6F3DFF"/>
</linearGradient>
<linearGradient id="paint2_linear_54_324" x1="4.31223" y1="346.344" x2="37.2304" y2="346.344" gradientUnits="userSpaceOnUse">
<stop stop-color="#B89FFF"/>
<stop offset="1" stop-color="#622CFF"/>
</linearGradient>
<linearGradient id="paint3_linear_54_324" x1="16.2942" y1="343.483" x2="27.0978" y2="347.097" gradientUnits="userSpaceOnUse">
<stop stop-color="white"/>
<stop offset="1" stop-color="white" stop-opacity="0"/>
</linearGradient>
<linearGradient id="paint4_linear_54_324" x1="31.9306" y1="348.473" x2="12.221" y2="338.057" gradientUnits="userSpaceOnUse">
<stop stop-color="white"/>
<stop offset="1" stop-color="white" stop-opacity="0"/>
</linearGradient>
<linearGradient id="paint5_linear_54_324" x1="170.655" y1="167.252" x2="149.045" y2="176.904" gradientUnits="userSpaceOnUse">
<stop stop-color="#6028FF"/>
<stop offset="1" stop-color="#7646FF" stop-opacity="0"/>
</linearGradient>
<linearGradient id="paint6_linear_54_324" x1="149.568" y1="174.344" x2="173.236" y2="174.344" gradientUnits="userSpaceOnUse">
<stop stop-color="#7646FF"/>
<stop offset="1" stop-color="#6F3DFF"/>
</linearGradient>
<linearGradient id="paint7_linear_54_324" x1="151.431" y1="174.713" x2="171.604" y2="174.713" gradientUnits="userSpaceOnUse">
<stop stop-color="#B89FFF"/>
<stop offset="1" stop-color="#622CFF"/>
</linearGradient>
<linearGradient id="paint8_linear_54_324" x1="159.527" y1="177.224" x2="161.79" y2="170.62" gradientUnits="userSpaceOnUse">
<stop stop-color="white"/>
<stop offset="1" stop-color="white" stop-opacity="0"/>
</linearGradient>
<linearGradient id="paint9_linear_54_324" x1="130.329" y1="125.775" x2="145.534" y2="74.9813" gradientUnits="userSpaceOnUse">
<stop stop-color="#12D9B5"/>
<stop offset="1" stop-color="#12D9B5" stop-opacity="0"/>
</linearGradient>
<linearGradient id="paint10_linear_54_324" x1="106.261" y1="99.2648" x2="159.282" y2="99.2648" gradientUnits="userSpaceOnUse">
<stop stop-color="#3EF5D5"/>
<stop offset="1" stop-color="#C1FFF0"/>
</linearGradient>
<linearGradient id="paint11_linear_54_324" x1="109.218" y1="99.0045" x2="154.41" y2="99.0045" gradientUnits="userSpaceOnUse">
<stop stop-color="#12D9B5"/>
<stop offset="1" stop-color="#12D9B5" stop-opacity="0"/>
</linearGradient>
<linearGradient id="paint12_linear_54_324" x1="129.738" y1="89.5653" x2="141.473" y2="102.002" gradientUnits="userSpaceOnUse">
<stop stop-color="white" stop-opacity="0"/>
<stop offset="1" stop-color="white"/>
</linearGradient>
<linearGradient id="paint13_linear_54_324" x1="127.618" y1="90.6526" x2="137.756" y2="101.396" gradientUnits="userSpaceOnUse">
<stop stop-color="white"/>
<stop offset="1" stop-color="white" stop-opacity="0"/>
</linearGradient>
<linearGradient id="paint14_linear_54_324" x1="137.683" y1="372.57" x2="129.723" y2="399.163" gradientUnits="userSpaceOnUse">
<stop stop-color="#12D9B5"/>
<stop offset="1" stop-color="#12D9B5" stop-opacity="0"/>
</linearGradient>
<linearGradient id="paint15_linear_54_324" x1="123.132" y1="386.449" x2="150.892" y2="386.449" gradientUnits="userSpaceOnUse">
<stop stop-color="#3EF5D5"/>
<stop offset="1" stop-color="#C1FFF0"/>
</linearGradient>
<linearGradient id="paint16_linear_54_324" x1="125.593" y1="386.585" x2="149.254" y2="386.585" gradientUnits="userSpaceOnUse">
<stop stop-color="#12D9B5"/>
<stop offset="1" stop-color="#12D9B5" stop-opacity="0"/>
</linearGradient>
<linearGradient id="paint17_linear_54_324" x1="137.991" y1="391.529" x2="131.847" y2="385.018" gradientUnits="userSpaceOnUse">
<stop stop-color="white" stop-opacity="0"/>
<stop offset="1" stop-color="white"/>
</linearGradient>
<linearGradient id="paint18_linear_54_324" x1="139.102" y1="390.96" x2="133.794" y2="385.335" gradientUnits="userSpaceOnUse">
<stop stop-color="white"/>
<stop offset="1" stop-color="white" stop-opacity="0"/>
</linearGradient>
<linearGradient id="paint19_linear_54_324" x1="17.9619" y1="497.381" x2="49.9777" y2="514.251" gradientUnits="userSpaceOnUse">
<stop stop-color="#12D9B5"/>
<stop offset="1" stop-color="#12D9B5" stop-opacity="0"/>
</linearGradient>
<linearGradient id="paint20_linear_54_324" x1="17.7727" y1="502.12" x2="53.9607" y2="502.12" gradientUnits="userSpaceOnUse">
<stop stop-color="#3EF5D5"/>
<stop offset="1" stop-color="#C1FFF0"/>
</linearGradient>
<linearGradient id="paint21_linear_54_324" x1="20.6745" y1="501.571" x2="51.5193" y2="501.571" gradientUnits="userSpaceOnUse">
<stop stop-color="#12D9B5"/>
<stop offset="1" stop-color="#12D9B5" stop-opacity="0"/>
</linearGradient>
<linearGradient id="paint22_linear_54_324" x1="29.3429" y1="501.734" x2="38.7677" y2="496.293" gradientUnits="userSpaceOnUse">
<stop stop-color="white"/>
<stop offset="1" stop-color="white" stop-opacity="0"/>
</linearGradient>
<linearGradient id="paint23_linear_54_324" x1="155.498" y1="510.809" x2="119.558" y2="469.497" gradientUnits="userSpaceOnUse">
<stop stop-color="#D359FB"/>
<stop offset="1" stop-color="#CF48FA" stop-opacity="0"/>
</linearGradient>
<linearGradient id="paint24_linear_54_324" x1="106.605" y1="494.548" x2="161.362" y2="494.548" gradientUnits="userSpaceOnUse">
<stop stop-color="#EFBCFF"/>
<stop offset="0.0001" stop-color="#E9A4FF"/>
<stop offset="1" stop-color="#F1C7FF"/>
</linearGradient>
<linearGradient id="paint25_linear_54_324" x1="110.046" y1="495.189" x2="156.718" y2="495.189" gradientUnits="userSpaceOnUse">
<stop stop-color="#EEBBFF"/>
<stop offset="1" stop-color="#E184FF"/>
</linearGradient>
<linearGradient id="paint26_linear_54_324" x1="124.993" y1="492.589" x2="142.789" y2="493.389" gradientUnits="userSpaceOnUse">
<stop stop-color="white"/>
<stop offset="1" stop-color="white" stop-opacity="0"/>
</linearGradient>
<linearGradient id="paint27_linear_54_324" x1="128.214" y1="30.5887" x2="157.119" y2="10.9022" gradientUnits="userSpaceOnUse">
<stop stop-color="#D359FB"/>
<stop offset="1" stop-color="#CF48FA" stop-opacity="0"/>
</linearGradient>
<linearGradient id="paint28_linear_54_324" x1="123.087" y1="17.7888" x2="158.058" y2="17.7888" gradientUnits="userSpaceOnUse">
<stop stop-color="#EFBCFF"/>
<stop offset="0.0001" stop-color="#E9A4FF"/>
<stop offset="1" stop-color="#F1C7FF"/>
</linearGradient>
<linearGradient id="paint29_linear_54_324" x1="125.245" y1="17.415" x2="155.053" y2="17.415" gradientUnits="userSpaceOnUse">
<stop stop-color="#EEBBFF"/>
<stop offset="1" stop-color="#E184FF"/>
</linearGradient>
<linearGradient id="paint30_linear_54_324" x1="141.214" y1="14.0903" x2="141.633" y2="19.7175" gradientUnits="userSpaceOnUse">
<stop stop-color="white"/>
<stop offset="1" stop-color="white" stop-opacity="0"/>
</linearGradient>
<linearGradient id="paint31_linear_54_324" x1="59.9635" y1="472.887" x2="90.8063" y2="428.361" gradientUnits="userSpaceOnUse">
<stop stop-color="#094EFF"/>
<stop offset="1" stop-color="#094EFF" stop-opacity="0"/>
</linearGradient>
<linearGradient id="paint32_linear_54_324" x1="43.671" y1="447.727" x2="97.8352" y2="447.727" gradientUnits="userSpaceOnUse">
<stop stop-color="#4E7FFF"/>
<stop offset="1" stop-color="#7DA2FF"/>
</linearGradient>
<linearGradient id="paint33_linear_54_324" x1="46.8194" y1="447.198" x2="92.9863" y2="447.198" gradientUnits="userSpaceOnUse">
<stop stop-color="#094EFF"/>
<stop offset="1" stop-color="#6A94FF"/>
</linearGradient>
<linearGradient id="paint34_linear_54_324" x1="67.2286" y1="443.27" x2="71.8033" y2="451.766" gradientUnits="userSpaceOnUse">
<stop stop-color="white"/>
<stop offset="1" stop-color="white" stop-opacity="0.5"/>
</linearGradient>
<linearGradient id="paint35_linear_54_324" x1="71.0113" y1="441.557" x2="76.1684" y2="451.167" gradientUnits="userSpaceOnUse">
<stop stop-color="white"/>
<stop offset="1" stop-color="white" stop-opacity="0.5"/>
</linearGradient>
<linearGradient id="paint36_linear_54_324" x1="72.596" y1="446.158" x2="73.6997" y2="448.199" gradientUnits="userSpaceOnUse">
<stop stop-color="white"/>
<stop offset="1" stop-color="white" stop-opacity="0.5"/>
</linearGradient>
<linearGradient id="paint37_linear_54_324" x1="70.0209" y1="438.811" x2="75.2499" y2="448.498" gradientUnits="userSpaceOnUse">
<stop stop-color="white"/>
<stop offset="1" stop-color="white" stop-opacity="0.5"/>
</linearGradient>
<linearGradient id="paint38_linear_54_324" x1="71.6383" y1="66.2297" x2="24.0622" y2="12.8365" gradientUnits="userSpaceOnUse">
<stop stop-color="#21BDD9"/>
<stop offset="1" stop-color="#21BDD9" stop-opacity="0"/>
</linearGradient>
<linearGradient id="paint39_linear_54_324" x1="7.53419" y1="45.3366" x2="79.0487" y2="45.3366" gradientUnits="userSpaceOnUse">
<stop stop-color="#43DAF5"/>
<stop offset="1" stop-color="#C1F6FF"/>
</linearGradient>
<linearGradient id="paint40_linear_54_324" x1="11.7809" y1="46.1526" x2="72.7362" y2="46.1526" gradientUnits="userSpaceOnUse">
<stop stop-color="#12BBD9"/>
<stop offset="1" stop-color="#46E3FF" stop-opacity="0"/>
</linearGradient>
<linearGradient id="paint41_linear_54_324" x1="53.4577" y1="55.669" x2="30.8974" y2="34.0895" gradientUnits="userSpaceOnUse">
<stop stop-color="white"/>
<stop offset="1" stop-color="white" stop-opacity="0"/>
</linearGradient>
<linearGradient id="paint42_linear_54_324" x1="128.622" y1="463.679" x2="99.3401" y2="481.914" gradientUnits="userSpaceOnUse">
<stop stop-color="white"/>
<stop offset="1" stop-color="white" stop-opacity="0"/>
</linearGradient>
<clipPath id="clip0_54_324">
<rect width="10.8953" height="12.5671" fill="white" transform="matrix(-0.500028 -0.86601 1 3.18901e-05 32.0669 506.452)"/>
</clipPath>
<clipPath id="clip1_54_324">
<rect width="16.6506" height="27.5375" fill="white" transform="matrix(-0.202864 -0.979207 0.94943 0.313978 29.686 50.1118)"/>
</clipPath>
</defs>
</svg>
