<svg width="1100" height="357" viewBox="0 0 1100 357" fill="none" xmlns="http://www.w3.org/2000/svg">
<g opacity="0.4">
<path fill-rule="evenodd" clip-rule="evenodd" d="M433.54 34.0308C433.54 34.0308 433.54 34.0308 433.54 34.0307L430.406 27.1503L427.977 28.2569C419.422 23.4758 403.785 24.4393 388.196 31.5392C372.607 38.6391 361.616 49.8027 359.608 59.3949L357.178 60.5015L360.312 67.382C360.312 67.382 360.312 67.382 360.312 67.3821C365.133 77.9677 385.434 79.0832 405.655 69.8735C425.877 60.6639 438.361 44.6166 433.54 34.0308Z" fill="url(#paint0_linear_19_219)"/>
<ellipse cx="393.345" cy="42.8428" rx="40.2328" ry="21.0615" transform="rotate(-24.4865 393.345 42.8428)" fill="url(#paint1_linear_19_219)"/>
<ellipse cx="392.82" cy="41.6183" rx="34.2924" ry="18.0913" transform="rotate(-24.4865 392.82 41.6183)" fill="url(#paint2_linear_19_219)"/>
<path d="M395.072 48.6377C395.194 48.3757 395.011 48.1829 394.666 48.2117C394.106 48.2584 393.254 48.2989 392.425 48.2189C389.812 47.9668 388.692 46.4222 389.189 44.3786L394.423 44.8837C394.549 44.8958 394.696 44.8717 394.841 44.8154C394.986 44.7591 395.12 44.6739 395.221 44.5738L396.296 43.5067C396.58 43.2244 396.514 42.9236 396.16 42.8895L389.98 42.2931C390.319 41.7343 390.695 41.1942 391.151 40.6619L397.9 41.3131C398.026 41.3253 398.174 41.301 398.319 41.2442C398.465 41.1874 398.599 41.1015 398.7 41.0008L399.82 39.8804C400.102 39.5986 400.034 39.2997 399.682 39.2656L393.315 38.6513C395.506 37.0051 398.27 36.0316 400.799 36.2756C401.466 36.34 402.052 36.4894 402.427 36.6039C402.679 36.6805 403.065 36.5623 403.31 36.333L405.085 34.6724C405.355 34.4202 405.347 34.1355 405.067 34.0548C404.573 33.9124 403.755 33.7132 402.785 33.6196C398.31 33.1878 393.039 35.1668 389.397 38.2732L387.874 38.1263C387.569 38.0968 387.174 38.2805 386.991 38.5365L386.171 39.6859C385.988 39.9418 386.087 40.1733 386.392 40.2027L387.385 40.2985C386.964 40.8197 386.523 41.4246 386.212 41.9296L385.228 41.8345C384.922 41.8051 384.527 41.9888 384.344 42.2448L383.562 43.3402C383.38 43.5962 383.479 43.8276 383.784 43.8571L385.17 43.9909C383.832 47.5914 385.629 50.4612 390.434 50.9248C391.645 51.0417 392.795 50.9651 393.462 50.8955C393.79 50.8612 394.136 50.6423 394.251 50.3954L395.072 48.6377Z" fill="url(#paint3_linear_19_219)"/>
<path d="M410.656 24.5161C423.056 31.1399 433.101 39.2996 439.321 47.118C442.432 51.0279 444.572 54.8329 445.583 58.3007C446.593 61.7655 446.47 64.8598 445.112 67.4028C443.754 69.9459 441.25 71.7688 437.808 72.8554C434.364 73.943 430.012 74.2807 425.032 73.869C415.075 73.0458 402.708 69.2345 390.307 62.6107C377.907 55.9868 367.863 47.8271 361.642 40.0087C358.531 36.0989 356.392 32.2938 355.38 28.826C354.37 25.3612 354.493 22.2669 355.851 19.7239C357.21 17.1809 359.713 15.3579 363.155 14.2713C366.599 13.1837 370.951 12.846 375.931 13.2577C385.888 14.0809 398.255 17.8922 410.656 24.5161Z" stroke="url(#paint4_linear_19_219)"/>
</g>
<g opacity="0.4">
<path fill-rule="evenodd" clip-rule="evenodd" d="M760.146 321.143C754.593 308.71 744.815 300.988 738.307 303.894C738.295 303.9 738.284 303.905 738.272 303.91L734.076 305.784L734.744 307.278C731.775 312.499 732.295 322.085 736.576 331.67C740.857 341.255 747.648 348.04 753.518 349.314L754.185 350.809L758.415 348.919L758.415 348.919C764.924 346.012 765.699 333.577 760.146 321.143Z" fill="url(#paint5_linear_19_219)"/>
<ellipse cx="743.526" cy="328.566" rx="24.6555" ry="12.9069" transform="rotate(-114.066 743.526 328.566)" fill="url(#paint6_linear_19_219)"/>
<ellipse cx="742.773" cy="328.881" rx="21.0151" ry="11.0867" transform="rotate(-114.066 742.773 328.881)" fill="url(#paint7_linear_19_219)"/>
<path d="M747.085 327.533C746.925 327.457 746.806 327.569 746.822 327.78C746.848 328.123 746.869 328.645 746.816 329.153C746.65 330.753 745.699 331.433 744.448 331.119L744.781 327.914C744.789 327.837 744.775 327.747 744.741 327.657C744.708 327.568 744.656 327.486 744.595 327.424L743.946 326.76C743.774 326.584 743.59 326.624 743.567 326.84L743.174 330.625C742.833 330.415 742.504 330.182 742.18 329.9L742.609 325.767C742.617 325.69 742.603 325.599 742.569 325.51C742.534 325.42 742.482 325.338 742.421 325.276L741.74 324.584C741.568 324.41 741.385 324.45 741.362 324.666L740.957 328.565C739.958 327.215 739.374 325.517 739.535 323.968C739.577 323.56 739.672 323.201 739.744 322.972C739.792 322.818 739.721 322.581 739.582 322.43L738.572 321.334C738.418 321.168 738.244 321.171 738.193 321.343C738.104 321.645 737.978 322.145 737.916 322.739C737.632 325.479 738.821 328.718 740.708 330.964L740.611 331.897C740.592 332.084 740.702 332.327 740.858 332.44L741.559 332.948C741.715 333.061 741.857 333.001 741.877 332.814L741.94 332.206C742.257 332.467 742.626 332.739 742.934 332.932L742.872 333.535C742.852 333.722 742.963 333.965 743.119 334.078L743.787 334.562C743.943 334.675 744.085 334.616 744.105 334.429L744.193 333.58C746.393 334.416 748.16 333.328 748.466 330.385C748.543 329.644 748.501 328.939 748.461 328.53C748.442 328.329 748.309 328.116 748.158 328.044L747.085 327.533Z" fill="url(#paint8_linear_19_219)"/>
</g>
<path fill-rule="evenodd" clip-rule="evenodd" d="M884.915 308.604C914.138 317.352 941.541 312.041 946.121 296.743C946.123 296.736 946.125 296.729 946.127 296.722L949.097 286.799L945.586 285.748C941.061 273.077 924.027 259.947 901.498 253.204C878.969 246.46 857.522 248.071 846.78 256.172L843.269 255.121L840.292 265.064C835.713 280.363 855.691 299.856 884.915 308.604Z" fill="url(#paint9_linear_19_219)"/>
<ellipse cx="896.608" cy="269.539" rx="55.2341" ry="28.9145" transform="rotate(16.6646 896.608 269.539)" fill="url(#paint10_linear_19_219)"/>
<ellipse cx="897.139" cy="267.764" rx="47.0787" ry="24.8368" transform="rotate(16.6646 897.139 267.764)" fill="url(#paint11_linear_19_219)"/>
<path d="M881.837 273.372C880.394 271.844 879.248 270.345 878.398 268.878C877.602 267.426 877.089 266.052 876.858 264.754C876.627 263.456 876.688 262.305 877.04 261.301L884.984 262.914C884.486 263.723 884.299 264.659 884.424 265.723C884.571 266.811 884.956 267.928 885.58 269.075C886.226 270.246 887.015 271.325 887.947 272.313C889.123 273.559 890.293 274.476 891.459 275.063C892.625 275.65 893.707 275.825 894.707 275.588C895.363 275.432 895.71 275.091 895.748 274.564C895.786 274.037 895.473 273.219 894.809 272.111L891.814 266.993C891.022 265.627 890.504 264.368 890.259 263.218C890.037 262.091 890.19 261.119 890.72 260.303C891.303 259.503 892.328 258.929 893.796 258.581C895.702 258.129 897.755 258.118 899.956 258.546C902.156 258.974 904.35 259.821 906.538 261.086C908.758 262.344 910.832 263.996 912.763 266.042C914.738 268.135 916.058 270.081 916.724 271.881C917.411 273.703 917.451 275.406 916.842 276.989L909.513 275.359C909.978 274.069 909.988 272.743 909.544 271.381C909.153 270.035 908.236 268.597 906.794 267.069C905.906 266.128 905.044 265.397 904.208 264.876C903.404 264.347 902.634 263.997 901.899 263.826C901.195 263.647 900.562 263.625 900 263.758C899.532 263.869 899.187 264.051 898.968 264.305C898.771 264.582 898.749 265.004 898.902 265.572C899.109 266.156 899.523 266.979 900.142 268.041L902.646 272.152C904.098 274.542 904.683 276.418 904.401 277.78C904.15 279.134 902.915 280.074 900.697 280.6C898.573 281.103 896.388 281.117 894.144 280.642C891.899 280.167 889.713 279.289 887.588 278.009C885.485 276.752 883.567 275.207 881.837 273.372ZM875.982 272.515L915.156 263.231L918.651 266.935L879.477 276.219L875.982 272.515Z" fill="url(#paint12_linear_19_219)" fill-opacity="0.8"/>
<path d="M880.795 263.986L880.795 263.986L880.8 263.993C881.18 264.65 881.627 265.313 882.14 265.982L878.922 266.745L878.436 266.86L878.779 267.224L881.798 270.423L882.141 270.787L882.628 270.672L885.884 269.9C886.85 270.713 887.876 271.444 888.962 272.093C890.877 273.247 892.872 274.052 894.937 274.489C897.025 274.931 899.036 274.912 900.959 274.456C902.987 273.975 904.167 273.099 904.407 271.812C904.667 270.55 904.12 268.854 902.848 266.76L902.848 266.76L902.379 265.99L907.158 264.858C907.386 265.277 907.558 265.685 907.673 266.082L907.673 266.082L907.676 266.091C908.042 267.212 908.035 268.307 907.649 269.379L907.509 269.768L908.204 269.923L914.536 271.331L915.038 271.443L915.145 271.163C915.69 269.745 915.655 268.218 915.039 266.585C914.665 265.575 914.063 264.519 913.237 263.417L916.469 262.651L916.955 262.536L916.612 262.172L913.593 258.972L913.25 258.609L912.763 258.724L909.526 259.491C908.401 258.527 907.218 257.691 905.976 256.987C904.009 255.849 902.006 255.072 899.976 254.677C897.944 254.282 896.052 254.295 894.311 254.707C892.959 255.028 891.993 255.563 891.442 256.319L891.438 256.324L891.435 256.329C890.943 257.087 890.806 257.983 891.008 259.007L891.009 259.011C891.228 260.04 891.69 261.159 892.389 262.365L892.39 262.367L893 263.408L888.341 264.512C888.263 264.382 888.187 264.25 888.114 264.117C887.594 263.16 887.274 262.231 887.151 261.327C887.049 260.454 887.203 259.693 887.606 259.039L887.866 258.618L887.051 258.452L880.188 257.058L879.693 256.958L879.595 257.236C879.277 258.143 879.225 259.175 879.43 260.329C879.635 261.484 880.092 262.703 880.795 263.986ZM903.56 260.905L899.912 261.77C899.8 261.534 899.712 261.328 899.649 261.151C899.53 260.705 899.563 260.424 899.672 260.262C899.815 260.102 900.038 259.982 900.357 259.907C900.723 259.82 901.126 259.833 901.596 259.952L901.606 259.955L901.616 259.957C902.098 260.07 902.654 260.311 903.289 260.729L903.298 260.734L903.307 260.74C903.39 260.792 903.475 260.847 903.56 260.905ZM891.951 268.462L895.435 267.636C895.669 268.133 895.763 268.499 895.745 268.747C895.72 269.103 895.499 269.304 895.098 269.399C894.746 269.483 894.402 269.489 894.061 269.434C893.717 269.378 893.334 269.253 892.905 269.037C892.594 268.88 892.276 268.689 891.951 268.462Z" stroke="url(#paint13_linear_19_219)"/>
<g opacity="0.6">
<path fill-rule="evenodd" clip-rule="evenodd" d="M317.167 258.293C301.867 253.713 287.52 256.493 285.123 264.502C285.114 264.53 285.106 264.558 285.098 264.587L283.565 269.708L285.403 270.259C287.772 276.893 296.69 283.767 308.485 287.298C320.28 290.828 331.509 289.985 337.133 285.743L338.972 286.294L340.53 281.088L340.53 281.088C342.927 273.078 332.468 262.873 317.167 258.293Z" fill="url(#paint14_linear_19_219)"/>
<ellipse cx="311.045" cy="278.745" rx="28.918" ry="15.1383" transform="rotate(-163.335 311.045 278.745)" fill="url(#paint15_linear_19_219)"/>
<ellipse cx="310.767" cy="279.675" rx="24.6482" ry="13.0034" transform="rotate(-163.335 310.767 279.675)" fill="url(#paint16_linear_19_219)"/>
<path d="M318.779 276.738C319.534 277.539 320.134 278.323 320.579 279.092C320.996 279.851 321.264 280.571 321.385 281.251C321.506 281.93 321.474 282.533 321.29 283.059L317.131 282.214C317.392 281.79 317.489 281.3 317.424 280.743C317.347 280.174 317.145 279.589 316.819 278.988C316.481 278.375 316.068 277.81 315.58 277.293C314.964 276.641 314.351 276.161 313.741 275.853C313.131 275.546 312.564 275.454 312.04 275.578C311.697 275.66 311.515 275.838 311.495 276.114C311.476 276.39 311.64 276.818 311.987 277.399L313.555 280.078C313.969 280.794 314.241 281.452 314.369 282.055C314.486 282.645 314.405 283.154 314.128 283.581C313.823 284 313.286 284.3 312.517 284.482C311.519 284.719 310.445 284.725 309.292 284.501C308.14 284.277 306.992 283.833 305.846 283.171C304.684 282.512 303.598 281.647 302.587 280.576C301.553 279.48 300.862 278.461 300.513 277.519C300.153 276.565 300.133 275.674 300.451 274.845L304.288 275.698C304.045 276.374 304.04 277.068 304.273 277.781C304.477 278.486 304.957 279.238 305.712 280.039C306.177 280.531 306.628 280.914 307.066 281.187C307.487 281.464 307.89 281.647 308.275 281.736C308.643 281.83 308.975 281.842 309.269 281.772C309.514 281.714 309.695 281.618 309.809 281.486C309.913 281.341 309.924 281.12 309.844 280.822C309.735 280.516 309.519 280.086 309.195 279.53L307.884 277.377C307.124 276.126 306.817 275.144 306.965 274.431C307.097 273.722 307.743 273.23 308.904 272.954C310.016 272.691 311.16 272.683 312.335 272.932C313.511 273.181 314.655 273.64 315.768 274.311C316.869 274.969 317.872 275.778 318.779 276.738ZM321.844 277.187L301.334 282.048L299.505 280.109L320.014 275.248L321.844 277.187Z" fill="url(#paint17_linear_19_219)" fill-opacity="0.8"/>
<path d="M319.59 281.643L319.59 281.643L319.586 281.636C319.412 281.336 319.213 281.035 318.989 280.732L320.468 280.382L320.955 280.266L320.612 279.903L319.031 278.227L318.688 277.864L318.201 277.979L316.695 278.336C316.226 277.955 315.73 277.607 315.206 277.294C314.165 276.667 313.07 276.224 311.929 275.982C310.765 275.736 309.653 275.749 308.604 275.998C307.489 276.262 306.817 276.751 306.681 277.48C306.536 278.183 306.842 279.107 307.517 280.217L307.517 280.217L307.674 280.474L305.669 280.949C305.612 280.823 305.566 280.699 305.531 280.577L305.531 280.577L305.528 280.568C305.346 280.008 305.348 279.459 305.543 278.918L305.683 278.528L304.987 278.374L301.673 277.637L301.17 277.525L301.063 277.804C300.768 278.571 300.787 279.397 301.12 280.28C301.304 280.776 301.589 281.292 301.973 281.825L300.484 282.178L299.997 282.294L300.34 282.657L301.921 284.332L302.264 284.696L302.751 284.581L304.244 284.227C304.798 284.684 305.379 285.088 305.991 285.435C307.058 286.052 308.157 286.481 309.282 286.7C310.408 286.919 311.455 286.91 312.411 286.684C313.159 286.507 313.703 286.208 314.014 285.781L314.018 285.776L314.021 285.771C314.295 285.349 314.369 284.853 314.259 284.292L314.259 284.292L314.258 284.288C314.14 283.733 313.891 283.132 313.517 282.488L313.517 282.487L313.282 282.085L315.241 281.62C315.496 282.095 315.653 282.556 315.714 283.003C315.764 283.439 315.687 283.814 315.489 284.135L315.23 284.557L316.045 284.722L319.638 285.452L320.133 285.553L320.231 285.275C320.404 284.781 320.431 284.222 320.321 283.602C320.21 282.982 319.966 282.328 319.59 281.643ZM312.996 279.213L311.827 279.49C311.789 279.374 311.776 279.286 311.78 279.222C311.79 279.083 311.869 279.023 312 278.992C312.146 278.957 312.275 278.957 312.394 278.976C312.515 278.996 312.666 279.042 312.856 279.138C312.902 279.161 312.948 279.186 312.996 279.213ZM307.894 283.362L309.155 283.063C309.162 283.082 309.169 283.1 309.175 283.117C309.23 283.325 309.209 283.434 309.178 283.486C309.126 283.541 309.044 283.585 308.919 283.615C308.785 283.647 308.642 283.643 308.462 283.597L308.452 283.595L308.441 283.592C308.298 283.559 308.117 283.49 307.894 283.362Z" stroke="url(#paint18_linear_19_219)"/>
</g>
<g opacity="0.5">
<path fill-rule="evenodd" clip-rule="evenodd" d="M50.5741 59.3524C40.8682 77.7722 40.8168 96.8232 50.4593 101.904C50.4971 101.924 50.5351 101.944 50.5731 101.963L56.7274 105.206L57.8935 102.993C66.9749 101.631 78.0105 91.952 85.4928 77.7522C92.9752 63.5525 94.7199 48.9775 90.709 40.7168L91.8758 38.5025L85.6083 35.2L85.608 35.2007C85.6079 35.2006 85.6078 35.2006 85.6077 35.2005C75.9651 30.1195 60.2801 40.9327 50.5741 59.3524Z" fill="url(#paint19_linear_19_219)"/>
<ellipse cx="75.1965" cy="72.3262" rx="37.6988" ry="19.7349" transform="rotate(117.786 75.1965 72.3262)" fill="url(#paint20_linear_19_219)"/>
<ellipse cx="76.315" cy="72.9157" rx="32.1325" ry="16.9518" transform="rotate(117.786 76.315 72.9157)" fill="url(#paint21_linear_19_219)"/>
<g clip-path="url(#clip0_19_219)">
<path d="M75.9816 59.8315L73.9458 62.3587L68.398 69.2644L66.3621 71.7916L66.3617 84.6036L68.3975 84.7799L73.9959 85.2498L76.0317 85.4261L78.0676 82.8989L83.5645 76.0226L85.6003 73.4954L85.6008 60.6834L83.565 60.5071L78.0174 60.0077L75.9816 59.8315ZM70.4335 79.5492L70.4337 72.1441L75.9815 65.2384L81.529 65.7378L81.5288 73.1429L75.981 80.0486L70.4335 79.5492Z" fill="url(#paint22_linear_19_219)"/>
</g>
</g>
<path fill-rule="evenodd" clip-rule="evenodd" d="M131.822 238.169L134.678 235.685L141.714 243.772L141.713 243.772C152.538 256.215 142.045 283.064 118.277 303.741C94.5089 324.419 66.4659 331.095 55.6412 318.653C55.6226 318.632 55.6041 318.61 55.5856 318.589L48.6057 310.566L51.4615 308.081C50.3207 294.233 60.7543 274.624 79.0776 258.684C97.4009 242.743 118.265 235.123 131.822 238.169Z" fill="url(#paint23_linear_19_219)"/>
<ellipse cx="90.6363" cy="271.97" rx="57.0429" ry="29.8614" transform="rotate(-41.0226 90.6363 271.97)" fill="url(#paint24_linear_19_219)"/>
<ellipse cx="89.3294" cy="270.922" rx="48.6205" ry="25.6502" transform="rotate(-41.0226 89.3294 270.922)" fill="url(#paint25_linear_19_219)"/>
<path d="M94.6308 254.856C88.6638 256.018 81.9568 262.289 79.6942 268.868C79.2453 270.183 78.9894 271.452 78.9359 272.629C78.9017 273.428 79.5994 273.733 80.5 273.293C81.372 272.859 82.1274 271.831 82.1728 270.999C82.1949 270.081 82.4049 269.074 82.7919 268.03C84.434 263.569 88.9608 259.28 93.0809 258.271C97.6723 257.142 100.048 260.35 98.3698 265.229C97.6141 267.419 96.1253 269.674 94.2076 271.533C92.29 273.391 90.0883 274.714 88.0524 275.229C88.0524 275.229 86.4995 275.619 85.7099 275.891C85.3147 276.027 85.0064 276.145 84.7958 276.216C84.6981 276.264 84.6448 276.187 84.7057 276.087L85.4403 274.652L89.2939 267.262C89.5216 266.821 89.5992 266.392 89.5099 266.068C89.4205 265.745 89.1713 265.553 88.8165 265.535C88.4596 265.521 88.027 265.682 87.6129 265.982C87.1987 266.283 86.8365 266.699 86.6049 267.14C86.6049 267.14 77.2648 285.115 77.1704 285.309C76.6955 286.224 76.9092 287.004 77.6473 287.037C78.0041 287.051 78.4368 286.891 78.8511 286.59C79.2653 286.289 79.6276 285.873 79.8589 285.432C79.9526 285.237 81.2022 282.849 81.2022 282.849C81.6549 281.975 82.3147 281.131 83.0912 280.433C83.8678 279.735 84.7233 279.217 85.5409 278.949C85.9075 278.819 87.2879 278.462 87.2879 278.462C93.0451 276.9 99.2276 270.908 101.382 264.644C103.646 258.062 100.598 253.693 94.6308 254.856ZM85.9856 282.094C85.7711 282.084 85.5311 282.127 85.2797 282.221C85.0283 282.314 84.7704 282.456 84.521 282.639C84.2715 282.821 84.0355 283.04 83.8267 283.283C83.6178 283.526 83.4402 283.789 83.3041 284.055C82.7336 285.165 82.9687 286.118 83.897 286.143C84.1118 286.153 84.3519 286.11 84.6035 286.016C84.855 285.922 85.113 285.78 85.3626 285.598C85.6121 285.415 85.8482 285.196 86.0572 284.953C86.2662 284.709 86.4439 284.447 86.5802 284.181C87.1591 283.04 86.9144 282.118 85.9856 282.094V282.094Z" fill="url(#paint26_linear_19_219)"/>
<g opacity="0.5">
<path fill-rule="evenodd" clip-rule="evenodd" d="M1040.51 300.987C1051.83 317.617 1068.07 326.292 1076.78 320.362C1076.79 320.357 1076.8 320.351 1076.8 320.345L1082.44 316.508L1081.08 314.51C1084.03 306.141 1080.76 292.336 1072.03 279.516C1063.3 266.696 1051.65 258.603 1042.78 258.285L1041.42 256.286L1035.76 260.14L1035.76 260.14C1035.76 260.14 1035.76 260.14 1035.76 260.14C1027.06 266.07 1029.18 284.358 1040.51 300.987Z" fill="url(#paint27_linear_19_219)"/>
<ellipse cx="1062.74" cy="285.847" rx="36.4316" ry="19.0716" transform="rotate(55.7415 1062.74 285.847)" fill="url(#paint28_linear_19_219)"/>
<ellipse cx="1063.5" cy="285.098" rx="31.0525" ry="16.382" transform="rotate(55.7415 1063.5 285.098)" fill="url(#paint29_linear_19_219)"/>
<path fill-rule="evenodd" clip-rule="evenodd" d="M1069.72 282.272C1069.82 282.42 1069.88 282.584 1069.89 282.725L1070.87 295.943C1070.89 296.184 1070.63 296.176 1070.46 295.929L1067.86 292.157C1067.76 292.013 1067.7 291.849 1067.69 291.704L1066.7 278.486C1066.68 278.244 1066.94 278.253 1067.11 278.5L1069.72 282.272ZM1060.73 277.938C1060.83 278.082 1060.89 278.245 1060.9 278.391L1061.89 291.609C1061.9 291.85 1061.64 291.842 1061.47 291.595L1058.87 287.823C1058.77 287.679 1058.71 287.515 1058.7 287.37L1057.71 274.152C1057.7 273.91 1057.96 273.919 1058.13 274.166L1060.73 277.938ZM1066.2 290.987C1066.21 291.133 1066.17 291.244 1066.08 291.3L1063.87 292.75C1063.73 292.845 1063.45 292.595 1063.43 292.353L1062.45 279.135C1062.43 278.99 1062.48 278.878 1062.56 278.823L1064.78 277.372C1064.92 277.277 1065.2 277.528 1065.22 277.769L1066.2 290.987Z" fill="url(#paint30_linear_19_219)"/>
</g>
<path fill-rule="evenodd" clip-rule="evenodd" d="M162.385 177.301C188.002 195.046 216.299 198.56 225.589 185.15C225.589 185.15 225.589 185.15 225.589 185.15L225.589 185.15L231.627 176.433L228.548 174.301C228.163 160.562 215.773 142.418 196.024 128.738C176.276 115.059 154.935 109.836 141.937 114.305L138.859 112.173L132.894 120.784C132.869 120.819 132.845 120.854 132.82 120.89C123.531 134.3 136.767 159.557 162.385 177.301Z" fill="url(#paint31_linear_19_219)"/>
<ellipse cx="186.104" cy="143.058" rx="56.4254" ry="29.5381" transform="rotate(34.7102 186.104 143.058)" fill="url(#paint32_linear_19_219)"/>
<ellipse cx="187.182" cy="141.502" rx="48.0941" ry="25.3725" transform="rotate(34.7102 187.182 141.502)" fill="url(#paint33_linear_19_219)"/>
<path d="M182.923 131.242L176.16 130.678L175.099 135.501L171.135 135.161L172.8 127.515L183.55 128.436L182.923 131.242ZM189.692 131.822L185.747 131.484L186.376 128.676L190.321 129.014L193.656 132.161L193.034 134.984L189.692 131.822ZM194.976 139.256L198.311 142.403L197.689 145.225L194.347 142.063L194.976 139.256Z" fill="url(#paint34_linear_19_219)"/>
<path d="M178.708 132.983L182.678 133.323L182.048 136.133L178.096 135.794L178.708 132.983ZM174.817 137.567L174.187 140.377L177.534 143.541L173.583 143.203L170.236 140.039L170.865 137.229L174.817 137.567ZM199.838 149.558L203.178 152.707L202.555 155.532L198.604 155.194L195.257 152.029L199.208 152.368L199.838 149.558ZM185.646 151.207L192.435 151.804L195.775 154.953L185.007 154.032L175.961 145.462L179.931 145.802L185.646 151.207Z" fill="url(#paint35_linear_19_219)"/>
<path d="M186.18 149.216L182.872 146.075L186.806 146.412L190.133 149.555L186.18 149.216Z" fill="url(#paint36_linear_19_219)"/>
<path d="M196.658 150.053L192.708 149.73L187 144.317L180.222 143.736L176.91 140.593L177.519 137.786L184.297 138.367L185.35 133.533L189.308 133.873L192.645 137.03L191.561 141.831L197.285 147.245L196.664 150.065L196.658 150.053ZM196.067 134.45L205.098 142.993L203.417 150.632L200.087 147.487L201.156 142.655L195.439 137.256L196.067 134.45Z" fill="url(#paint37_linear_19_219)"/>
<path fill-rule="evenodd" clip-rule="evenodd" d="M195 44.3271C196.82 44.3271 198.527 43.8445 200 43.0003C199.156 44.4736 198.674 46.1806 198.674 48.0003C198.674 49.82 199.156 51.527 200 53.0003C198.527 52.1561 196.82 51.6736 195 51.6736C193.181 51.6736 191.474 52.1561 190 53.0003C190.845 51.527 191.327 49.82 191.327 48.0003C191.327 46.1806 190.845 44.4736 190 43.0003C191.474 43.8445 193.181 44.3271 195 44.3271Z" fill="white"/>
<path fill-rule="evenodd" clip-rule="evenodd" d="M1043.16 127.743C1073.88 100.371 1087.16 65.1448 1072.83 49.0635L1063.52 38.611L1059.83 41.9002C1042.08 38.1323 1014.95 48.4063 991.266 69.5081C967.584 90.6099 954.263 116.379 955.967 134.446L952.276 137.736L961.589 148.188C975.919 164.269 1012.44 155.116 1043.16 127.743Z" fill="url(#paint38_linear_19_219)"/>
<ellipse cx="1006.57" cy="86.68" rx="74.5" ry="39" transform="rotate(-41.7027 1006.57 86.68)" fill="url(#paint39_linear_19_219)"/>
<ellipse cx="1004.9" cy="84.8135" rx="63.5" ry="33.5" transform="rotate(-41.7027 1004.9 84.8135)" fill="url(#paint40_linear_19_219)"/>
<g clip-path="url(#clip1_19_219)">
<path d="M1013.45 57.0885L1012.68 58.3782L1001.03 93.6193L1001.27 93.9008L1021.09 80.7887L1013.45 57.0885Z" fill="white" fill-opacity="0.9"/>
<path d="M1013.45 57.0885L987.855 87.6739L1001.27 93.9009L1006.93 76.7959L1013.45 57.0885Z" fill="white" fill-opacity="0.72"/>
<path d="M1000.25 96.9982L999.964 97.2861L995.813 109.84L995.823 110.386L1020.07 83.8889L1000.25 96.9982Z" fill="white"/>
<path d="M995.823 110.385L1000.25 96.998L986.829 90.7759L995.823 110.385Z" fill="white" fill-opacity="0.8"/>
<path d="M1001.27 93.9006L1021.09 80.7887L1006.93 76.7959L1001.27 93.9006Z" fill="white"/>
<path d="M987.855 87.6739L1001.27 93.9007L1006.93 76.796L987.855 87.6739Z" fill="white" fill-opacity="0.8"/>
</g>
<path d="M1031.1 62.7132C1047.5 78.5204 1059.93 95.3049 1066.78 109.648C1070.21 116.822 1072.23 123.36 1072.66 128.845C1073.1 134.331 1071.95 138.701 1069.12 141.637C1066.29 144.573 1061.96 145.882 1056.46 145.649C1050.97 145.415 1044.36 143.639 1037.06 140.479C1022.48 134.161 1005.25 122.355 988.849 106.548C972.45 90.7409 960.018 73.9564 953.168 59.6128C949.742 52.4392 947.724 45.9011 947.289 40.4163C946.854 34.9307 948.003 30.5601 950.833 27.6244C953.663 24.6887 957.988 23.3792 963.486 23.6127C968.983 23.8462 975.591 25.6223 982.886 28.7821C997.471 35.1002 1014.7 46.9061 1031.1 62.7132Z" stroke="url(#paint41_linear_19_219)"/>
<path d="M116.757 200.555C148.902 180.652 180.002 165.893 204.291 158.116C216.44 154.226 226.857 152.092 234.836 151.921C242.854 151.75 248.226 153.561 250.56 157.331C252.894 161.101 252.121 166.716 248.393 173.818C244.684 180.884 238.13 189.258 229.233 198.399C211.445 216.675 184.371 237.936 152.226 257.839C120.081 277.742 88.981 292.501 64.6919 300.278C52.5436 304.168 42.1266 306.302 34.1474 306.473C26.1289 306.645 20.7572 304.833 18.423 301.063C16.0888 297.294 16.8619 291.678 20.5898 284.576C24.2994 277.51 30.8532 269.136 39.7501 259.995C57.5385 241.719 84.6125 220.458 116.757 200.555Z" stroke="url(#paint42_linear_19_219)"/>
<path fill-rule="evenodd" clip-rule="evenodd" d="M951.5 202.194C953.138 202.194 954.674 201.76 956 201C955.24 202.326 954.806 203.862 954.806 205.5C954.806 207.138 955.24 208.674 956 210C954.674 209.24 953.138 208.806 951.5 208.806C949.862 208.806 948.326 209.24 947 210C947.76 208.674 948.194 207.138 948.194 205.5C948.194 203.862 947.76 202.326 947 201C948.326 201.76 949.862 202.194 951.5 202.194Z" fill="white"/>
<path fill-rule="evenodd" clip-rule="evenodd" d="M274.001 254.796C275.093 254.796 276.117 254.507 277.001 254C276.495 254.884 276.205 255.908 276.205 257C276.205 258.092 276.495 259.116 277.001 260C276.117 259.493 275.093 259.204 274.001 259.204C272.91 259.204 271.885 259.493 271.001 260C271.508 259.116 271.798 258.092 271.798 257C271.798 255.908 271.508 254.884 271.001 254C271.885 254.507 272.91 254.796 274.001 254.796Z" fill="white"/>
<path fill-rule="evenodd" clip-rule="evenodd" d="M971.501 175.255C974.595 175.255 977.496 174.435 980.001 173C978.566 175.505 977.746 178.406 977.746 181.5C977.746 184.594 978.566 187.495 980.001 190C977.496 188.565 974.595 187.745 971.501 187.745C968.407 187.745 965.506 188.565 963.001 190C964.436 187.495 965.256 184.594 965.256 181.5C965.256 178.406 964.436 175.505 963.001 173C965.506 174.435 968.407 175.255 971.501 175.255Z" fill="white"/>
<defs>
<linearGradient id="paint0_linear_19_219" x1="361.876" y1="66.6693" x2="433.54" y2="34.0307" gradientUnits="userSpaceOnUse">
<stop stop-color="#6028FF"/>
<stop offset="1" stop-color="#7646FF" stop-opacity="0"/>
</linearGradient>
<linearGradient id="paint1_linear_19_219" x1="354.831" y1="42.8428" x2="433.577" y2="42.8428" gradientUnits="userSpaceOnUse">
<stop stop-color="#7646FF"/>
<stop offset="1" stop-color="#6F3DFF"/>
</linearGradient>
<linearGradient id="paint2_linear_19_219" x1="359.993" y1="41.6183" x2="427.113" y2="41.6183" gradientUnits="userSpaceOnUse">
<stop stop-color="#B89FFF"/>
<stop offset="1" stop-color="#622CFF"/>
</linearGradient>
<linearGradient id="paint3_linear_19_219" x1="398.652" y1="33.2208" x2="391.285" y2="55.2492" gradientUnits="userSpaceOnUse">
<stop stop-color="white"/>
<stop offset="1" stop-color="white" stop-opacity="0"/>
</linearGradient>
<linearGradient id="paint4_linear_19_219" x1="388.477" y1="65.1059" x2="409.715" y2="24.9185" gradientUnits="userSpaceOnUse">
<stop stop-color="white"/>
<stop offset="1" stop-color="white" stop-opacity="0"/>
</linearGradient>
<linearGradient id="paint5_linear_19_219" x1="757.986" y1="347.957" x2="738.307" y2="303.894" gradientUnits="userSpaceOnUse">
<stop stop-color="#6028FF"/>
<stop offset="1" stop-color="#7646FF" stop-opacity="0"/>
</linearGradient>
<linearGradient id="paint6_linear_19_219" x1="719.924" y1="328.566" x2="768.182" y2="328.566" gradientUnits="userSpaceOnUse">
<stop stop-color="#7646FF"/>
<stop offset="1" stop-color="#6F3DFF"/>
</linearGradient>
<linearGradient id="paint7_linear_19_219" x1="722.656" y1="328.881" x2="763.788" y2="328.881" gradientUnits="userSpaceOnUse">
<stop stop-color="#B89FFF"/>
<stop offset="1" stop-color="#622CFF"/>
</linearGradient>
<linearGradient id="paint8_linear_19_219" x1="737.653" y1="325.27" x2="751.119" y2="329.884" gradientUnits="userSpaceOnUse">
<stop stop-color="white"/>
<stop offset="1" stop-color="white" stop-opacity="0"/>
</linearGradient>
<linearGradient id="paint9_linear_19_219" x1="842.554" y1="265.741" x2="946.121" y2="296.743" gradientUnits="userSpaceOnUse">
<stop stop-color="#12D9B5"/>
<stop offset="1" stop-color="#12D9B5" stop-opacity="0"/>
</linearGradient>
<linearGradient id="paint10_linear_19_219" x1="843.734" y1="269.539" x2="951.842" y2="269.539" gradientUnits="userSpaceOnUse">
<stop stop-color="#3EF5D5"/>
<stop offset="1" stop-color="#C1FFF0"/>
</linearGradient>
<linearGradient id="paint11_linear_19_219" x1="852.072" y1="267.764" x2="944.218" y2="267.764" gradientUnits="userSpaceOnUse">
<stop stop-color="#12D9B5"/>
<stop offset="1" stop-color="#12D9B5" stop-opacity="0"/>
</linearGradient>
<linearGradient id="paint12_linear_19_219" x1="916.387" y1="264.536" x2="891.03" y2="288.463" gradientUnits="userSpaceOnUse">
<stop stop-color="white" stop-opacity="0"/>
<stop offset="1" stop-color="white"/>
</linearGradient>
<linearGradient id="paint13_linear_19_219" x1="914.17" y1="260.215" x2="892.265" y2="280.885" gradientUnits="userSpaceOnUse">
<stop stop-color="white"/>
<stop offset="1" stop-color="white" stop-opacity="0"/>
</linearGradient>
<linearGradient id="paint14_linear_19_219" x1="339.346" y1="280.734" x2="285.123" y2="264.502" gradientUnits="userSpaceOnUse">
<stop stop-color="#12D9B5"/>
<stop offset="1" stop-color="#12D9B5" stop-opacity="0"/>
</linearGradient>
<linearGradient id="paint15_linear_19_219" x1="283.363" y1="278.745" x2="339.963" y2="278.745" gradientUnits="userSpaceOnUse">
<stop stop-color="#3EF5D5"/>
<stop offset="1" stop-color="#C1FFF0"/>
</linearGradient>
<linearGradient id="paint16_linear_19_219" x1="287.172" y1="279.675" x2="335.416" y2="279.675" gradientUnits="userSpaceOnUse">
<stop stop-color="#12D9B5"/>
<stop offset="1" stop-color="#12D9B5" stop-opacity="0"/>
</linearGradient>
<linearGradient id="paint17_linear_19_219" x1="300.69" y1="281.365" x2="313.965" y2="268.838" gradientUnits="userSpaceOnUse">
<stop stop-color="white" stop-opacity="0"/>
<stop offset="1" stop-color="white"/>
</linearGradient>
<linearGradient id="paint18_linear_19_219" x1="301.851" y1="283.627" x2="313.319" y2="272.805" gradientUnits="userSpaceOnUse">
<stop stop-color="white"/>
<stop offset="1" stop-color="white" stop-opacity="0"/>
</linearGradient>
<linearGradient id="paint19_linear_19_219" x1="84.857" y1="36.6251" x2="50.4593" y2="101.904" gradientUnits="userSpaceOnUse">
<stop stop-color="#12D9B5"/>
<stop offset="1" stop-color="#12D9B5" stop-opacity="0"/>
</linearGradient>
<linearGradient id="paint20_linear_19_219" x1="39.1088" y1="72.3262" x2="112.895" y2="72.3262" gradientUnits="userSpaceOnUse">
<stop stop-color="#3EF5D5"/>
<stop offset="1" stop-color="#C1FFF0"/>
</linearGradient>
<linearGradient id="paint21_linear_19_219" x1="45.5557" y1="72.9157" x2="108.448" y2="72.9157" gradientUnits="userSpaceOnUse">
<stop stop-color="#12D9B5"/>
<stop offset="1" stop-color="#12D9B5" stop-opacity="0"/>
</linearGradient>
<linearGradient id="paint22_linear_19_219" x1="75.9816" y1="59.8315" x2="87.0773" y2="79.0484" gradientUnits="userSpaceOnUse">
<stop stop-color="white"/>
<stop offset="1" stop-color="white" stop-opacity="0"/>
</linearGradient>
<linearGradient id="paint23_linear_19_219" x1="57.4804" y1="317.053" x2="141.713" y2="243.772" gradientUnits="userSpaceOnUse">
<stop stop-color="#D359FB"/>
<stop offset="1" stop-color="#CF48FA" stop-opacity="0"/>
</linearGradient>
<linearGradient id="paint24_linear_19_219" x1="36.0311" y1="271.97" x2="147.679" y2="271.97" gradientUnits="userSpaceOnUse">
<stop stop-color="#EFBCFF"/>
<stop offset="0.0001" stop-color="#E9A4FF"/>
<stop offset="1" stop-color="#F1C7FF"/>
</linearGradient>
<linearGradient id="paint25_linear_19_219" x1="42.7867" y1="270.922" x2="137.95" y2="270.922" gradientUnits="userSpaceOnUse">
<stop stop-color="#EEBBFF"/>
<stop offset="1" stop-color="#E184FF"/>
</linearGradient>
<linearGradient id="paint26_linear_19_219" x1="94.6308" y1="254.856" x2="92.9994" y2="291.142" gradientUnits="userSpaceOnUse">
<stop stop-color="white"/>
<stop offset="1" stop-color="white" stop-opacity="0"/>
</linearGradient>
<linearGradient id="paint27_linear_19_219" x1="1036.64" y1="261.427" x2="1076.78" y2="320.362" gradientUnits="userSpaceOnUse">
<stop stop-color="#D359FB"/>
<stop offset="1" stop-color="#CF48FA" stop-opacity="0"/>
</linearGradient>
<linearGradient id="paint28_linear_19_219" x1="1027.86" y1="285.847" x2="1099.17" y2="285.847" gradientUnits="userSpaceOnUse">
<stop stop-color="#EFBCFF"/>
<stop offset="0.0001" stop-color="#E9A4FF"/>
<stop offset="1" stop-color="#F1C7FF"/>
</linearGradient>
<linearGradient id="paint29_linear_19_219" x1="1033.77" y1="285.098" x2="1094.55" y2="285.098" gradientUnits="userSpaceOnUse">
<stop stop-color="#EEBBFF"/>
<stop offset="1" stop-color="#E184FF"/>
</linearGradient>
<linearGradient id="paint30_linear_19_219" x1="1070.28" y1="287.933" x2="1058.8" y2="288.787" gradientUnits="userSpaceOnUse">
<stop stop-color="white"/>
<stop offset="1" stop-color="white" stop-opacity="0"/>
</linearGradient>
<linearGradient id="paint31_linear_19_219" x1="134.803" y1="122.263" x2="225.589" y2="185.15" gradientUnits="userSpaceOnUse">
<stop stop-color="#094EFF"/>
<stop offset="1" stop-color="#094EFF" stop-opacity="0"/>
</linearGradient>
<linearGradient id="paint32_linear_19_219" x1="132.09" y1="143.058" x2="242.529" y2="143.058" gradientUnits="userSpaceOnUse">
<stop stop-color="#4E7FFF"/>
<stop offset="1" stop-color="#7DA2FF"/>
</linearGradient>
<linearGradient id="paint33_linear_19_219" x1="141.144" y1="141.502" x2="235.277" y2="141.502" gradientUnits="userSpaceOnUse">
<stop stop-color="#094EFF"/>
<stop offset="1" stop-color="#6A94FF"/>
</linearGradient>
<linearGradient id="paint34_linear_19_219" x1="195.987" y1="137.289" x2="176.191" y2="146.286" gradientUnits="userSpaceOnUse">
<stop stop-color="white"/>
<stop offset="1" stop-color="white" stop-opacity="0.5"/>
</linearGradient>
<linearGradient id="paint35_linear_19_219" x1="199.688" y1="145.034" x2="177.167" y2="155.277" gradientUnits="userSpaceOnUse">
<stop stop-color="white"/>
<stop offset="1" stop-color="white" stop-opacity="0.5"/>
</linearGradient>
<linearGradient id="paint36_linear_19_219" x1="189.458" y1="148.068" x2="184.748" y2="150.207" gradientUnits="userSpaceOnUse">
<stop stop-color="white"/>
<stop offset="1" stop-color="white" stop-opacity="0.5"/>
</linearGradient>
<linearGradient id="paint37_linear_19_219" x1="205.105" y1="143.009" x2="182.643" y2="153.213" gradientUnits="userSpaceOnUse">
<stop stop-color="white"/>
<stop offset="1" stop-color="white" stop-opacity="0.5"/>
</linearGradient>
<linearGradient id="paint38_linear_19_219" x1="963.966" y1="146.07" x2="1072.83" y2="49.0635" gradientUnits="userSpaceOnUse">
<stop stop-color="#21BDD9"/>
<stop offset="1" stop-color="#21BDD9" stop-opacity="0"/>
</linearGradient>
<linearGradient id="paint39_linear_19_219" x1="935.251" y1="86.68" x2="1081.07" y2="86.68" gradientUnits="userSpaceOnUse">
<stop stop-color="#43DAF5"/>
<stop offset="1" stop-color="#C1F6FF"/>
</linearGradient>
<linearGradient id="paint40_linear_19_219" x1="944.118" y1="84.8135" x2="1068.4" y2="84.8135" gradientUnits="userSpaceOnUse">
<stop stop-color="#12BBD9"/>
<stop offset="1" stop-color="#46E3FF" stop-opacity="0"/>
</linearGradient>
<linearGradient id="paint41_linear_19_219" x1="985.5" y1="109" x2="1029.5" y2="63.0001" gradientUnits="userSpaceOnUse">
<stop stop-color="white"/>
<stop offset="1" stop-color="white" stop-opacity="0"/>
</linearGradient>
<linearGradient id="paint42_linear_19_219" x1="153.577" y1="262.256" x2="116.398" y2="202.55" gradientUnits="userSpaceOnUse">
<stop stop-color="white"/>
<stop offset="1" stop-color="white" stop-opacity="0"/>
</linearGradient>
<clipPath id="clip0_19_219">
<rect width="22.2153" height="25.624" fill="white" transform="matrix(0.86601 -0.500028 -3.18901e-05 1 66.3623 65.3856)"/>
</clipPath>
<clipPath id="clip1_19_219">
<rect width="33.9501" height="56.1483" fill="white" transform="matrix(0.979207 -0.202864 -0.313978 0.94943 996.831 60.5311)"/>
</clipPath>
</defs>
</svg>
