<?xml version="1.0" encoding="UTF-8"?><svg id="Layer_1" xmlns="http://www.w3.org/2000/svg" viewBox="0 0 1080 270.6"><defs><style>.cls-1,.cls-2,.cls-3,.cls-4{fill:#fff;}.cls-2{opacity:.8;}.cls-2,.cls-3,.cls-4{isolation:isolate;}.cls-3{opacity:.6;}.cls-4{opacity:.45;}</style></defs><g id="Layer_2"><g id="Layer_1-2"><path class="cls-1" d="M306.2,155.7c-.03,1.96-1.64,3.52-3.6,3.5h-66.3c1.7,16.4,14,31.4,31.4,31.4,11.9,0,20.7-4.5,27.3-14,.62-1.01,1.71-1.65,2.9-1.7,1.77-.05,3.25,1.35,3.3,3.12,0,.06,0,.12,0,.18,0,.6-.17,1.19-.5,1.7-6.7,11.6-20,17.3-33,17.3-22.3,0-38.3-20-38.3-41.3s15.9-41.3,38.3-41.3,38.4,19.8,38.5,41.1h0Zm-7.1-3.1c-1.4-16.4-14-31.4-31.4-31.4s-29.7,15-31.4,31.4h62.8Z"/><path class="cls-1" d="M386.8,116.2c1.8,.05,3.25,1.5,3.3,3.3,.05,1.77-1.35,3.25-3.12,3.3-.06,0-.12,0-.18,0h-17.8v69.9c-.02,1.82-1.48,3.28-3.3,3.3-1.8-.05-3.25-1.5-3.3-3.3V122.8h-17.1c-1.77,.05-3.25-1.35-3.3-3.12,0-.06,0-.12,0-.18,.02-1.82,1.48-3.28,3.3-3.3h17.1v-25.5c0-1.75,1.28-3.23,3-3.5,1.79-.24,3.43,1.02,3.67,2.81,.02,.16,.03,.33,.03,.49v25.7h17.7Z"/><path class="cls-1" d="M495.3,150v42.3c-.05,1.8-1.5,3.25-3.3,3.3-1.77,.05-3.25-1.35-3.3-3.12,0-.06,0-.12,0-.18v-42.3c0-14.3-8.1-28.5-24-28.5-20.4,0-29.2,17.8-28,36.1,0,.5,.2,2.6,.2,2.9v31.7c0,1.75-1.28,3.23-3,3.5-1.79,.24-3.43-1.02-3.67-2.81-.02-.16-.03-.33-.03-.49V53.3c.02-1.82,1.48-3.28,3.3-3.3,1.8,.05,3.25,1.5,3.3,3.3v78.6c5.7-10.2,15.9-17.1,27.8-17.1,19.6,0,30.7,17.1,30.7,35.2Z"/><path class="cls-1" d="M614.4,155.7c-.03,1.96-1.64,3.52-3.6,3.5h-66.3c1.7,16.4,14,31.4,31.4,31.4,11.9,0,20.7-4.5,27.3-14,.62-1.01,1.71-1.65,2.9-1.7,1.77-.05,3.25,1.35,3.3,3.12,0,.06,0,.12,0,.18,0,.6-.17,1.19-.5,1.7-6.7,11.6-20,17.3-33,17.3-22.3,0-38.3-20-38.3-41.3s15.9-41.3,38.3-41.3,38.4,19.8,38.5,41.1h0Zm-7.2-3.1c-1.4-16.4-14-31.4-31.4-31.4s-29.7,15-31.4,31.4h62.8Z"/><path class="cls-1" d="M695.9,119.3c.13,1.85-1.25,3.46-3.1,3.6-19.5,2.9-28.3,18.8-28.3,37.3v31.7c0,1.75-1.28,3.23-3,3.5-1.79,.24-3.43-1.02-3.67-2.81-.02-.16-.03-.33-.03-.49V119.8c0-1.75,1.28-3.23,3-3.5,1.79-.24,3.43,1.02,3.67,2.81,.02,.16,.03,.33,.03,.49v14.7c5.5-9.3,16.4-18.1,27.8-18.1,1.7,0,3.6,1.2,3.6,3.1Z"/><path class="cls-1" d="M804.9,155.7c-.03,1.96-1.64,3.52-3.6,3.5h-66.3c1.7,16.4,14,31.4,31.4,31.4,11.9,0,20.7-4.5,27.3-14,.62-1.01,1.71-1.65,2.9-1.7,1.77-.05,3.25,1.35,3.3,3.12,0,.06,0,.12,0,.18,0,.6-.17,1.19-.5,1.7-6.7,11.6-20,17.3-33,17.3-22.3,0-38.3-20-38.3-41.3s15.9-41.3,38.3-41.3,38.4,19.8,38.5,41.1h0Zm-7.1-3.1c-1.4-16.4-14-31.4-31.4-31.4s-29.7,15-31.4,31.4h62.8Z"/><path class="cls-1" d="M912.1,120.1v72.6c-.05,1.8-1.5,3.25-3.3,3.3-1.77,.05-3.25-1.35-3.3-3.12,0-.06,0-.12,0-.18v-13.8c-5.5,10.9-15.2,18.8-27.6,18.8-19.7,0-30.6-17.1-30.6-35.2v-42.5c.02-1.82,1.48-3.28,3.3-3.3,1.8,.05,3.25,1.5,3.3,3.3v42.5c0,14.3,8.1,28.5,24,28.5,22.3,0,27.6-20.9,27.6-44v-27.1c.03-1.85,1.55-3.33,3.4-3.3,.38,0,.75,.07,1.1,.2,1.28,.6,2.1,1.88,2.1,3.3Z"/><path class="cls-1" d="M1080,149.7v42.5c-.05,1.8-1.5,3.25-3.3,3.3-1.77,.05-3.25-1.35-3.3-3.12,0-.06,0-.12,0-.18v-42.5c0-14.3-8.1-28.3-24-28.3-20,0-27.6,21.4-27.6,38v32.8c-.05,1.8-1.5,3.25-3.3,3.3-1.77,.05-3.25-1.35-3.3-3.12,0-.06,0-.12,0-.18v-42.5c0-14.3-8.1-28.3-24-28.3-20.2,0-28.5,15.9-27.8,37.1,0,.5,.2,1.4,0,1.7v31.9c0,1.75-1.28,3.23-3,3.5-1.79,.24-3.43-1.02-3.67-2.81-.02-.16-.03-.33-.03-.49V119.8c0-1.75,1.28-3.23,3-3.5,1.79-.24,3.43,1.02,3.67,2.81,.02,.16,.03,.33,.03,.49v12.1c5.7-10.2,15.9-16.9,27.8-16.9,13.5,0,24,8.6,28.3,21.1,5.5-12.4,16.2-21.1,29.9-21.1,19.5,0,30.6,16.9,30.6,34.9h0Z"/><path class="cls-3" d="M83,100.1L0,137.8l83,49.1,83.1-49.1-83.1-37.7Z"/><path class="cls-4" d="M0,137.8l83,49.1V0L0,137.8Z"/><path class="cls-2" d="M83,0V186.9l83.1-49.1L83,0Z"/><path class="cls-4" d="M0,153.6l83,117v-68L0,153.6Z"/><path class="cls-2" d="M83,202.6v68l83.1-117-83.1,49Z"/></g></g></svg>