<?xml version="1.0" encoding="UTF-8"?><svg id="Layer_1" xmlns="http://www.w3.org/2000/svg" viewBox="0 0 500 500"><defs><style>.cls-1{fill:#fff;}</style></defs><path class="cls-1" d="m99.28,125.63l-6.05,18.68c-1.53,4.71.14,9.84,4.13,12.75,4,2.9,9.43,2.9,13.41,0l15.9-11.51,15.9,11.51c1.99,1.46,4.34,2.19,6.69,2.19s4.73-.73,6.72-2.19c4.04-2.9,5.71-8.04,4.18-12.75l-6.08-18.68,15.87-11.56c4.02-2.9,5.69-8.04,4.16-12.75s-5.92-7.9-10.85-7.9h-19.64l-6.08-18.66c-3.06-9.41-18.66-9.41-21.72,0l-6.08,18.66h-19.62c-4.96,0-9.34,3.2-10.87,7.9s.16,9.84,4.16,12.75l15.87,11.56Z"/><path class="cls-1" d="m350.53,125.63l-6.08,18.66c-1.53,4.71.14,9.87,4.16,12.77,4,2.9,9.43,2.9,13.41,0l15.9-11.51,15.9,11.51c1.99,1.46,4.34,2.19,6.69,2.19s4.73-.73,6.72-2.19c4-2.9,5.69-8.06,4.16-12.77l-6.05-18.66,15.87-11.56c4-2.9,5.69-8.06,4.16-12.77s-5.92-7.9-10.87-7.9h-19.64l-6.08-18.66c-3.06-9.41-18.66-9.41-21.72,0l-6.08,18.66h-19.6c-4.96,0-9.34,3.2-10.87,7.9s.14,9.87,4.16,12.77l15.87,11.56Z"/><path class="cls-1" d="m222.62,79.95l-6.08,18.66c-1.53,4.71.14,9.87,4.16,12.77,4,2.9,9.43,2.9,13.41,0l15.9-11.51,15.9,11.51c1.99,1.44,4.34,2.19,6.69,2.19s4.73-.73,6.72-2.19c4-2.9,5.69-8.06,4.16-12.77l-6.08-18.66,15.87-11.56c4-2.9,5.69-8.06,4.16-12.77-1.53-4.71-5.92-7.9-10.87-7.9h-19.62l-6.08-18.66c-3.06-9.41-18.66-9.41-21.72,0l-6.08,18.66h-19.62c-4.96,0-9.34,3.2-10.87,7.9s.16,9.87,4.16,12.77l15.9,11.56Z"/><path class="cls-1" d="m466.45,230.9c-1.53-4.71-5.92-7.9-10.87-7.9h-19.64l-6.08-18.66c-3.06-9.41-18.66-9.41-21.72,0l-6.08,18.66h-19.62c-4.96,0-9.34,3.2-10.87,7.9-1.53,4.71.14,9.87,4.16,12.77l15.87,11.56-6.08,18.66c-1.53,4.71.14,9.87,4.16,12.77,4,2.9,9.43,2.9,13.41,0l15.9-11.51,15.9,11.51c1.99,1.46,4.34,2.19,6.69,2.19s4.73-.73,6.72-2.19c4-2.9,5.69-8.06,4.16-12.77l-6.08-18.66,15.87-11.56c4.04-2.92,5.71-8.06,4.2-12.77Z"/><path class="cls-1" d="m295.83,326.31c20.58-14.48,34.13-38.31,34.13-65.3,0-44.08-35.86-79.94-79.94-79.94s-79.94,35.86-79.94,79.94c0,27.02,13.54,50.84,34.13,65.3-49.59,18.94-79.81,69.78-79.81,140.27,0,6.3,5.12,11.42,11.42,11.42h228.41c6.3,0,11.42-5.12,11.42-11.42,0-70.49-30.22-121.33-79.81-140.27Z"/><path class="cls-1" d="m128.42,237.35c-1.53-4.71-5.92-7.9-10.87-7.9h-19.64l-6.08-18.66c-3.06-9.41-18.66-9.41-21.72,0l-6.08,18.66h-19.6c-4.96,0-9.34,3.2-10.87,7.9s.14,9.87,4.16,12.77l15.87,11.56-6.08,18.66c-1.53,4.71.14,9.87,4.16,12.77,4,2.9,9.43,2.9,13.41,0l15.92-11.53,15.9,11.51c1.99,1.48,4.34,2.19,6.69,2.19s4.73-.73,6.72-2.19c4-2.9,5.69-8.06,4.16-12.77l-6.08-18.66,15.87-11.56c4.02-2.88,5.69-8.04,4.16-12.75Z"/></svg>