<svg width="60" height="59" viewBox="0 0 60 59" fill="none" xmlns="http://www.w3.org/2000/svg">
<rect x="0.5" width="59" height="59" rx="8" fill="url(#paint0_linear_19_367)"/>
<g clip-path="url(#clip0_19_367)">
<path d="M30.9998 42.3334C23.6358 42.3334 17.6665 36.3641 17.6665 29.0001C17.6665 21.6361 23.6358 15.6667 30.9998 15.6667C38.3638 15.6667 44.3332 21.6361 44.3332 29.0001C44.3332 36.3641 38.3638 42.3334 30.9998 42.3334ZM30.9998 39.6667C33.8288 39.6667 36.5419 38.5429 38.5423 36.5426C40.5427 34.5422 41.6665 31.8291 41.6665 29.0001C41.6665 26.1711 40.5427 23.458 38.5423 21.4576C36.5419 19.4572 33.8288 18.3334 30.9998 18.3334C28.1709 18.3334 25.4578 19.4572 23.4574 21.4576C21.457 23.458 20.3332 26.1711 20.3332 29.0001C20.3332 31.8291 21.457 34.5422 23.4574 36.5426C25.4578 38.5429 28.1709 39.6667 30.9998 39.6667V39.6667ZM30.9998 37.0001V21.0001C33.1216 21.0001 35.1564 21.8429 36.6567 23.3432C38.157 24.8435 38.9998 26.8783 38.9998 29.0001C38.9998 31.1218 38.157 33.1566 36.6567 34.6569C35.1564 36.1572 33.1216 37.0001 30.9998 37.0001Z" fill="white"/>
</g>
<defs>
<linearGradient id="paint0_linear_19_367" x1="0.5" y1="29.5" x2="59.5" y2="29.5" gradientUnits="userSpaceOnUse">
<stop stop-color="#094EFF"/>
<stop offset="1" stop-color="#21BDD9"/>
</linearGradient>
<clipPath id="clip0_19_367">
<rect width="32" height="32" fill="white" transform="translate(15 13)"/>
</clipPath>
</defs>
</svg>
