<svg width="59" height="59" viewBox="0 0 59 59" fill="none" xmlns="http://www.w3.org/2000/svg">
<rect width="59" height="59" rx="8" fill="url(#paint0_linear_2409_284)"/>
<g clip-path="url(#clip0_2409_284)">
<path d="M25.3303 39.6666H34.669C33.7869 41.7764 32.1094 43.4539 29.9997 44.3359C27.8899 43.4539 26.2124 41.7764 25.3303 39.6666ZM37.9997 32.7399L40.6663 35.7639V38.3333H19.333V35.7639L21.9997 32.7399V24.9999C21.9997 20.3559 25.3383 16.4039 29.9997 14.9399C34.661 16.4039 37.9997 20.3559 37.9997 24.9999V32.7399ZM29.9997 27.6666C30.7069 27.6666 31.3852 27.3857 31.8853 26.8856C32.3854 26.3855 32.6663 25.7072 32.6663 24.9999C32.6663 24.2927 32.3854 23.6144 31.8853 23.1143C31.3852 22.6142 30.7069 22.3333 29.9997 22.3333C29.2924 22.3333 28.6142 22.6142 28.1141 23.1143C27.614 23.6144 27.333 24.2927 27.333 24.9999C27.333 25.7072 27.614 26.3855 28.1141 26.8856C28.6142 27.3857 29.2924 27.6666 29.9997 27.6666Z" fill="url(#paint1_linear_2409_284)"/>
</g>
<defs>
<linearGradient id="paint0_linear_2409_284" x1="29.5" y1="0" x2="29.5" y2="59" gradientUnits="userSpaceOnUse">
<stop stop-color="#0951FE" stop-opacity="0.24"/>
<stop offset="1" stop-color="#4BFFD4" stop-opacity="0"/>
</linearGradient>
<linearGradient id="paint1_linear_2409_284" x1="19.333" y1="29.6379" x2="40.6663" y2="29.6379" gradientUnits="userSpaceOnUse">
<stop stop-color="#094EFF"/>
<stop offset="1" stop-color="#21BDD9"/>
</linearGradient>
<clipPath id="clip0_2409_284">
<rect width="32" height="32" fill="white" transform="translate(14 13)"/>
</clipPath>
</defs>
</svg>
