<svg width="60" height="59" viewBox="0 0 60 59" fill="none" xmlns="http://www.w3.org/2000/svg">
<rect x="0.5" width="59" height="59" rx="8" fill="url(#paint0_linear_19_413)"/>
<g clip-path="url(#clip0_19_413)">
<path d="M33.6665 39.6667H28.3332V42.3334H25.6665V39.6667H21.6665C21.3129 39.6667 20.9737 39.5263 20.7237 39.2762C20.4736 39.0262 20.3332 38.687 20.3332 38.3334V34.3334H17.6665V31.6667H20.3332V26.3334H17.6665V23.6667H20.3332V19.6667C20.3332 19.3131 20.4736 18.974 20.7237 18.7239C20.9737 18.4739 21.3129 18.3334 21.6665 18.3334H25.6665V15.6667H28.3332V18.3334H33.6665V15.6667H36.3332V18.3334H40.3332C40.6868 18.3334 41.0259 18.4739 41.276 18.7239C41.526 18.974 41.6665 19.3131 41.6665 19.6667V23.6667H44.3332V26.3334H41.6665V31.6667H44.3332V34.3334H41.6665V38.3334C41.6665 38.687 41.526 39.0262 41.276 39.2762C41.0259 39.5263 40.6868 39.6667 40.3332 39.6667H36.3332V42.3334H33.6665V39.6667ZM24.3332 22.3334V27.6667H29.6665V22.3334H24.3332Z" fill="white"/>
</g>
<defs>
<linearGradient id="paint0_linear_19_413" x1="0.5" y1="29.5" x2="59.5" y2="29.5" gradientUnits="userSpaceOnUse">
<stop stop-color="#094EFF"/>
<stop offset="1" stop-color="#21BDD9"/>
</linearGradient>
<clipPath id="clip0_19_413">
<rect width="32" height="32" fill="white" transform="translate(15 13)"/>
</clipPath>
</defs>
</svg>
