<svg width="60" height="59" viewBox="0 0 60 59" fill="none" xmlns="http://www.w3.org/2000/svg">
<rect x="0.5" width="59" height="59" rx="8" fill="url(#paint0_linear_19_385)"/>
<g clip-path="url(#clip0_19_385)">
<path d="M30.9998 15.6667C38.3598 15.6667 44.3332 21.6401 44.3332 29.0001C44.3332 36.3601 38.3598 42.3334 30.9998 42.3334C23.6398 42.3334 17.6665 36.3601 17.6665 29.0001C17.6665 21.6401 23.6398 15.6667 30.9998 15.6667ZM30.9998 39.6667C36.9025 39.6667 41.6665 34.9027 41.6665 29.0001C41.6665 23.0974 36.9025 18.3334 30.9998 18.3334C29.5986 18.3317 28.2107 18.6064 26.9158 19.1418C25.6209 19.6772 24.4443 20.4629 23.4535 21.4537C22.4626 22.4445 21.677 23.6211 21.1415 24.916C20.6061 26.211 20.3314 27.5988 20.3332 29.0001C20.3332 34.9027 25.0972 39.6667 30.9998 39.6667ZM30.9998 37.0001C26.5732 37.0001 22.9998 33.4267 22.9998 29.0001C22.9998 24.5734 26.5732 21.0001 30.9998 21.0001C35.4265 21.0001 38.9998 24.5734 38.9998 29.0001C38.9998 33.4267 35.4265 37.0001 30.9998 37.0001ZM30.9998 26.3334C29.5332 26.3334 28.3332 27.5334 28.3332 29.0001C28.3332 30.4667 29.5332 31.6667 30.9998 31.6667C32.4665 31.6667 33.6665 30.4667 33.6665 29.0001C33.6665 27.5334 32.4665 26.3334 30.9998 26.3334Z" fill="white"/>
</g>
<defs>
<linearGradient id="paint0_linear_19_385" x1="0.5" y1="29.5" x2="59.5" y2="29.5" gradientUnits="userSpaceOnUse">
<stop stop-color="#094EFF"/>
<stop offset="1" stop-color="#21BDD9"/>
</linearGradient>
<clipPath id="clip0_19_385">
<rect width="32" height="32" fill="white" transform="translate(15 13)"/>
</clipPath>
</defs>
</svg>
