<svg width="60" height="59" viewBox="0 0 60 59" fill="none" xmlns="http://www.w3.org/2000/svg">
<rect x="0.5" width="59" height="59" rx="8" fill="url(#paint0_linear_19_376)"/>
<g clip-path="url(#clip0_19_376)">
<path d="M17.9998 18H41.9998C42.3535 18 42.6926 18.1405 42.9426 18.3905C43.1927 18.6406 43.3332 18.9797 43.3332 19.3333V40.6667C43.3332 41.0203 43.1927 41.3594 42.9426 41.6095C42.6926 41.8595 42.3535 42 41.9998 42H17.9998C17.6462 42 17.3071 41.8595 17.057 41.6095C16.807 41.3594 16.6665 41.0203 16.6665 40.6667V19.3333C16.6665 18.9797 16.807 18.6406 17.057 18.3905C17.3071 18.1405 17.6462 18 17.9998 18V18ZM29.9998 34V36.6667H37.9998V34H29.9998ZM25.2185 30L21.4478 33.7707L23.3332 35.6573L28.9905 30L23.3332 24.3427L21.4478 26.2293L25.2185 30Z" fill="white"/>
</g>
<defs>
<linearGradient id="paint0_linear_19_376" x1="0.5" y1="29.5" x2="59.5" y2="29.5" gradientUnits="userSpaceOnUse">
<stop stop-color="#094EFF"/>
<stop offset="1" stop-color="#21BDD9"/>
</linearGradient>
<clipPath id="clip0_19_376">
<rect width="32" height="32" fill="white" transform="translate(14 14)"/>
</clipPath>
</defs>
</svg>
