<svg width="60" height="59" viewBox="0 0 60 59" fill="none" xmlns="http://www.w3.org/2000/svg">
<rect x="0.5" width="59" height="59" rx="8" fill="url(#paint0_linear_19_404)"/>
<g clip-path="url(#clip0_19_404)">
<path d="M43.3332 27.332V40.6667C43.3332 41.0203 43.1927 41.3594 42.9426 41.6095C42.6926 41.8595 42.3535 42 41.9998 42H31.3332V27.332H43.3332ZM28.6665 35.332V42H17.9998C17.6462 42 17.3071 41.8595 17.057 41.6095C16.807 41.3594 16.6665 41.0203 16.6665 40.6667V35.332H28.6665V35.332ZM28.6665 18V32.6653H16.6665V19.3333C16.6665 18.9797 16.807 18.6406 17.057 18.3905C17.3071 18.1405 17.6462 18 17.9998 18H28.6665ZM41.9998 18C42.3535 18 42.6926 18.1405 42.9426 18.3905C43.1927 18.6406 43.3332 18.9797 43.3332 19.3333V24.6653H31.3332V18H41.9998Z" fill="white"/>
</g>
<defs>
<linearGradient id="paint0_linear_19_404" x1="0.5" y1="29.5" x2="59.5" y2="29.5" gradientUnits="userSpaceOnUse">
<stop stop-color="#094EFF"/>
<stop offset="1" stop-color="#21BDD9"/>
</linearGradient>
<clipPath id="clip0_19_404">
<rect width="32" height="32" fill="white" transform="translate(14 14)"/>
</clipPath>
</defs>
</svg>
