<svg width="59" height="59" viewBox="0 0 59 59" fill="none" xmlns="http://www.w3.org/2000/svg">
<rect width="59" height="59" rx="8" fill="url(#paint0_linear_2409_274)"/>
<g clip-path="url(#clip0_2409_274)">
<path d="M19.6758 20.5613L22.5252 23.4106C21.1121 25.3004 20.4672 27.6553 20.7204 30.0013C20.9735 32.3474 22.1059 34.5105 23.8897 36.0552C25.6734 37.6 27.976 38.4118 30.3342 38.3273C32.6923 38.2428 34.931 37.2682 36.5995 35.5996C38.268 33.9311 39.2426 31.6925 39.3272 29.3343C39.4117 26.9762 38.5999 24.6735 37.0551 22.8898C35.5103 21.1061 33.3472 19.9737 31.0012 19.7205C28.6551 19.4673 26.3003 20.1122 24.4105 21.5253L21.5598 18.676C23.9395 16.7253 26.9228 15.6616 29.9998 15.6666C37.3638 15.6666 43.3332 21.636 43.3332 29C43.3332 36.364 37.3638 42.3333 29.9998 42.3333C22.6358 42.3333 16.6665 36.364 16.6665 29C16.6665 25.7986 17.7945 22.86 19.6758 20.5613ZM24.4372 25.324L29.9998 30.8853L31.8852 29L26.3238 23.4373C27.7021 22.5263 29.3695 22.1595 31.0028 22.408C32.6361 22.6565 34.119 23.5026 35.1639 24.7824C36.2088 26.0621 36.7413 27.6842 36.6582 29.3342C36.5751 30.9842 35.8823 32.5446 34.714 33.7129C33.5458 34.8811 31.9854 35.5739 30.3354 35.657C28.6854 35.7402 27.0633 35.2076 25.7836 34.1627C24.5038 33.1178 23.6577 31.6349 23.4092 30.0016C23.1607 28.3683 23.5275 26.7009 24.4385 25.3226L24.4372 25.324Z" fill="url(#paint1_linear_2409_274)"/>
</g>
<defs>
<linearGradient id="paint0_linear_2409_274" x1="29.5" y1="0" x2="29.5" y2="59" gradientUnits="userSpaceOnUse">
<stop stop-color="#0951FE" stop-opacity="0.24"/>
<stop offset="1" stop-color="#4BFFD4" stop-opacity="0"/>
</linearGradient>
<linearGradient id="paint1_linear_2409_274" x1="16.6665" y1="29" x2="43.3332" y2="29" gradientUnits="userSpaceOnUse">
<stop stop-color="#094EFF"/>
<stop offset="1" stop-color="#21BDD9"/>
</linearGradient>
<clipPath id="clip0_2409_274">
<rect width="32" height="32" fill="white" transform="translate(14 13)"/>
</clipPath>
</defs>
</svg>
