<svg width="59" height="59" viewBox="0 0 59 59" fill="none" xmlns="http://www.w3.org/2000/svg">
<rect width="59" height="59" rx="8" fill="url(#paint0_linear_2409_279)"/>
<path d="M30 14.3334L40.956 16.768C41.5653 16.904 42 17.444 42 18.0694V31.3854C42 34.06 40.6627 36.5587 38.4373 38.0414L30 43.6667L21.5627 38.0414C19.336 36.5574 18 34.06 18 31.3867V18.0694C18 17.444 18.4347 16.904 19.044 16.768L30 14.3334ZM35.936 23.9627L29.336 30.5614L25.5653 26.7907L23.68 28.676L29.3373 34.3334L37.8227 25.848L35.936 23.9627Z" fill="url(#paint1_linear_2409_279)"/>
<defs>
<linearGradient id="paint0_linear_2409_279" x1="29.5" y1="0" x2="29.5" y2="59" gradientUnits="userSpaceOnUse">
<stop stop-color="#0951FE" stop-opacity="0.24"/>
<stop offset="1" stop-color="#4BFFD4" stop-opacity="0"/>
</linearGradient>
<linearGradient id="paint1_linear_2409_279" x1="18" y1="29" x2="42" y2="29" gradientUnits="userSpaceOnUse">
<stop stop-color="#094EFF"/>
<stop offset="1" stop-color="#21BDD9"/>
</linearGradient>
</defs>
</svg>
