<svg width="59" height="59" viewBox="0 0 59 59" fill="none" xmlns="http://www.w3.org/2000/svg">
<rect width="59" height="59" rx="8" fill="url(#paint0_linear_2409_269)"/>
<g clip-path="url(#clip0_2409_269)">
<path d="M38.0412 35.156L43.7518 40.8653L41.8652 42.752L36.1558 37.0413C34.0315 38.7443 31.3892 39.6705 28.6665 39.6666C22.0425 39.6666 16.6665 34.2906 16.6665 27.6666C16.6665 21.0426 22.0425 15.6666 28.6665 15.6666C35.2905 15.6666 40.6665 21.0426 40.6665 27.6666C40.6704 30.3893 39.7441 33.0316 38.0412 35.156ZM35.3665 34.1666C37.0587 32.4265 38.0037 30.0939 37.9998 27.6666C37.9998 22.5093 33.8225 18.3333 28.6665 18.3333C23.5092 18.3333 19.3332 22.5093 19.3332 27.6666C19.3332 32.8226 23.5092 37 28.6665 37C31.0937 37.0038 33.4264 36.0588 35.1665 34.3666L35.3665 34.1666ZM30.2372 22.568C29.844 22.7456 29.4998 23.0159 29.2341 23.3558C28.9684 23.6956 28.7891 24.0949 28.7116 24.5193C28.6342 24.9437 28.6608 25.3806 28.7893 25.7924C28.9178 26.2042 29.1443 26.5788 29.4493 26.8838C29.7544 27.1889 30.1289 27.4153 30.5407 27.5438C30.9526 27.6723 31.3894 27.699 31.8138 27.6215C32.2382 27.544 32.6375 27.3647 32.9774 27.099C33.3172 26.8333 33.5876 26.4891 33.7652 26.096C34.1156 27.2341 34.075 28.4568 33.6498 29.5692C33.2247 30.6816 32.4394 31.6197 31.4192 32.2341C30.3991 32.8484 29.2026 33.1037 28.0205 32.9591C26.8385 32.8145 25.7388 32.2785 24.8967 31.4364C24.0546 30.5944 23.5186 29.4947 23.374 28.3126C23.2295 27.1305 23.4847 25.9341 24.099 24.9139C24.7134 23.8937 25.6515 23.1085 26.7639 22.6833C27.8763 22.2582 29.099 22.2176 30.2372 22.568Z" fill="url(#paint1_linear_2409_269)"/>
</g>
<defs>
<linearGradient id="paint0_linear_2409_269" x1="29.5" y1="0" x2="29.5" y2="59" gradientUnits="userSpaceOnUse">
<stop stop-color="#0951FE" stop-opacity="0.24"/>
<stop offset="1" stop-color="#4BFFD4" stop-opacity="0"/>
</linearGradient>
<linearGradient id="paint1_linear_2409_269" x1="16.6665" y1="29.2093" x2="43.7518" y2="29.2093" gradientUnits="userSpaceOnUse">
<stop stop-color="#094EFF"/>
<stop offset="1" stop-color="#21BDD9"/>
</linearGradient>
<clipPath id="clip0_2409_269">
<rect width="32" height="32" fill="white" transform="translate(14 13)"/>
</clipPath>
</defs>
</svg>
