<svg width="1440" height="900" viewBox="0 0 1440 900" fill="none" xmlns="http://www.w3.org/2000/svg">
<g clip-path="url(#clip0_2413_641)">
<mask id="mask0_2413_641" style="mask-type:alpha" maskUnits="userSpaceOnUse" x="0" y="0" width="1440" height="900">
<rect width="1440" height="900" fill="url(#paint0_linear_2413_641)"/>
</mask>
<g mask="url(#mask0_2413_641)">
<circle cx="136" cy="158" r="8" fill="white" fill-opacity="0.8"/>
<circle cx="224" cy="616" r="8" fill="white" fill-opacity="0.8"/>
<circle cx="541" cy="476" r="3" fill="white" fill-opacity="0.8"/>
<circle cx="585" cy="650" r="5" fill="white" fill-opacity="0.8"/>
<circle cx="596.5" cy="423.5" r="2.5" fill="white" fill-opacity="0.8"/>
<circle cx="585" cy="650" r="5" fill="white" fill-opacity="0.8"/>
<circle cx="1250" cy="616" r="8" fill="white" fill-opacity="0.8"/>
<circle cx="1171.5" cy="631.5" r="2.5" fill="white" fill-opacity="0.8"/>
<circle cx="702.5" cy="511.5" r="2.5" fill="white" fill-opacity="0.8"/>
<circle cx="162.5" cy="289.5" r="2.5" fill="white" fill-opacity="0.8"/>
<circle cx="68.5" cy="318.5" r="2.5" fill="white" fill-opacity="0.8"/>
<circle cx="92.5" cy="70.5" r="2.5" fill="white" fill-opacity="0.8"/>
<circle cx="1283.5" cy="576.5" r="2.5" fill="white" fill-opacity="0.8"/>
<circle cx="958.5" cy="465.5" r="2.5" fill="white" fill-opacity="0.8"/>
<circle cx="832.5" cy="428.5" r="2.5" fill="white" fill-opacity="0.8"/>
<circle cx="599.5" cy="117.5" r="2.5" fill="white" fill-opacity="0.8"/>
<circle cx="1131.5" cy="350.5" r="2.5" fill="white" fill-opacity="0.8"/>
<circle cx="929.5" cy="130.5" r="2.5" fill="white" fill-opacity="0.8"/>
<circle cx="880.5" cy="289.5" r="2.5" fill="white" fill-opacity="0.8"/>
<circle cx="445.5" cy="366.5" r="2.5" fill="white" fill-opacity="0.8"/>
<circle cx="477.5" cy="581.5" r="2.5" fill="white" fill-opacity="0.8"/>
<circle cx="1244.5" cy="237.5" r="2.5" fill="white" fill-opacity="0.8"/>
<circle cx="1242.5" cy="122.5" r="2.5" fill="white" fill-opacity="0.8"/>
<circle cx="1323.5" cy="260.5" r="2.5" fill="white" fill-opacity="0.8"/>
<circle cx="1356.5" cy="338.5" r="2.5" fill="white" fill-opacity="0.8"/>
<circle cx="1002.5" cy="639.5" r="2.5" fill="white" fill-opacity="0.8"/>
<circle cx="1280.5" cy="328.5" r="2.5" fill="white" fill-opacity="0.8"/>
<circle cx="1301.5" cy="460.5" r="2.5" fill="white" fill-opacity="0.8"/>
<circle cx="387.5" cy="166.5" r="2.5" fill="white" fill-opacity="0.8"/>
<circle r="2.5" transform="matrix(-1 0 0 1 660.5 262.5)" fill="white" fill-opacity="0.8"/>
<circle cx="875.5" cy="183.5" r="2.5" fill="white" fill-opacity="0.8"/>
<circle cx="412.5" cy="125.5" r="2.5" fill="white" fill-opacity="0.8"/>
<circle cx="392.5" cy="465.5" r="2.5" fill="white" fill-opacity="0.8"/>
<circle cx="291.5" cy="499.5" r="2.5" fill="white" fill-opacity="0.8"/>
<circle cx="258.5" cy="470.5" r="2.5" fill="white" fill-opacity="0.8"/>
<circle cx="392.5" cy="605.5" r="2.5" fill="white" fill-opacity="0.8"/>
<circle cx="73.5" cy="540.5" r="2.5" fill="white" fill-opacity="0.8"/>
<circle cx="460.5" cy="252.5" r="2.5" fill="white" fill-opacity="0.8"/>
<circle r="2.5" transform="matrix(-1 0 0 1 587.5 348.5)" fill="white" fill-opacity="0.8"/>
<circle cx="551.5" cy="193.5" r="3.5" fill="white" fill-opacity="0.8"/>
<circle cx="935.5" cy="538.5" r="3.5" fill="white" fill-opacity="0.8"/>
<circle cx="1179" cy="476" r="8" fill="white" fill-opacity="0.8"/>
<circle cx="1367" cy="418" r="8" fill="white" fill-opacity="0.8"/>
<circle cx="262" cy="245" r="5" fill="white" fill-opacity="0.8"/>
<circle cx="754" cy="199" r="3" fill="white" fill-opacity="0.8"/>
<circle cx="1105" cy="194" r="5" fill="white" fill-opacity="0.8"/>
<circle cx="995" cy="316" r="5" fill="white" fill-opacity="0.8"/>
<circle cx="287" cy="297" r="5" fill="white" fill-opacity="0.8"/>
<circle cx="141" cy="432" r="5" fill="white" fill-opacity="0.8"/>
<circle cx="773" cy="343" r="5" fill="white" fill-opacity="0.8"/>
<circle cx="1059" cy="497" r="5" fill="white" fill-opacity="0.8"/>
<circle cx="730" cy="637" r="5" fill="white" fill-opacity="0.8"/>
<circle cx="1305" cy="794" r="8" transform="rotate(-180 1305 794)" fill="white" fill-opacity="0.8"/>
<circle cx="1217" cy="336" r="8" transform="rotate(-180 1217 336)" fill="white" fill-opacity="0.8"/>
<circle cx="900" cy="476" r="3" transform="rotate(-180 900 476)" fill="white" fill-opacity="0.8"/>
<circle cx="856" cy="302" r="5" transform="rotate(-180 856 302)" fill="white" fill-opacity="0.8"/>
<circle cx="844.5" cy="528.5" r="2.5" transform="rotate(-180 844.5 528.5)" fill="white" fill-opacity="0.8"/>
<circle cx="856" cy="302" r="5" transform="rotate(-180 856 302)" fill="white" fill-opacity="0.8"/>
<circle cx="191" cy="336" r="8" transform="rotate(-180 191 336)" fill="white" fill-opacity="0.8"/>
<circle cx="269.5" cy="320.5" r="2.5" transform="rotate(-180 269.5 320.5)" fill="white" fill-opacity="0.8"/>
<circle cx="738.5" cy="440.5" r="2.5" transform="rotate(-180 738.5 440.5)" fill="white" fill-opacity="0.8"/>
<circle cx="1278.5" cy="662.5" r="2.5" transform="rotate(-180 1278.5 662.5)" fill="white" fill-opacity="0.8"/>
<circle cx="1372.5" cy="633.5" r="2.5" transform="rotate(-180 1372.5 633.5)" fill="white" fill-opacity="0.8"/>
<circle cx="1348.5" cy="881.5" r="2.5" transform="rotate(-180 1348.5 881.5)" fill="white" fill-opacity="0.8"/>
<circle cx="157.5" cy="375.5" r="2.5" transform="rotate(-180 157.5 375.5)" fill="white" fill-opacity="0.8"/>
<circle cx="482.5" cy="486.5" r="2.5" transform="rotate(-180 482.5 486.5)" fill="white" fill-opacity="0.8"/>
<circle cx="608.5" cy="523.5" r="2.5" transform="rotate(-180 608.5 523.5)" fill="white" fill-opacity="0.8"/>
<circle cx="841.5" cy="834.5" r="2.5" transform="rotate(-180 841.5 834.5)" fill="white" fill-opacity="0.8"/>
<circle cx="309.5" cy="601.5" r="2.5" transform="rotate(-180 309.5 601.5)" fill="white" fill-opacity="0.8"/>
<circle cx="511.5" cy="821.5" r="2.5" transform="rotate(-180 511.5 821.5)" fill="white" fill-opacity="0.8"/>
<circle cx="560.5" cy="662.5" r="2.5" transform="rotate(-180 560.5 662.5)" fill="white" fill-opacity="0.8"/>
<circle cx="995.5" cy="585.5" r="2.5" transform="rotate(-180 995.5 585.5)" fill="white" fill-opacity="0.8"/>
<circle cx="963.5" cy="370.5" r="2.5" transform="rotate(-180 963.5 370.5)" fill="white" fill-opacity="0.8"/>
<circle cx="196.5" cy="714.5" r="2.5" transform="rotate(-180 196.5 714.5)" fill="white" fill-opacity="0.8"/>
<circle cx="198.5" cy="829.5" r="2.5" transform="rotate(-180 198.5 829.5)" fill="white" fill-opacity="0.8"/>
<circle cx="117.5" cy="691.5" r="2.5" transform="rotate(-180 117.5 691.5)" fill="white" fill-opacity="0.8"/>
<circle cx="84.5" cy="613.5" r="2.5" transform="rotate(-180 84.5 613.5)" fill="white" fill-opacity="0.8"/>
<circle cx="438.5" cy="312.5" r="2.5" transform="rotate(-180 438.5 312.5)" fill="white" fill-opacity="0.8"/>
<circle cx="160.5" cy="623.5" r="2.5" transform="rotate(-180 160.5 623.5)" fill="white" fill-opacity="0.8"/>
<circle cx="139.5" cy="491.5" r="2.5" transform="rotate(-180 139.5 491.5)" fill="white" fill-opacity="0.8"/>
<circle cx="1053.5" cy="785.5" r="2.5" transform="rotate(-180 1053.5 785.5)" fill="white" fill-opacity="0.8"/>
<circle r="2.5" transform="matrix(1 0 0 -1 780.5 689.5)" fill="white" fill-opacity="0.8"/>
<circle cx="565.5" cy="768.5" r="2.5" transform="rotate(-180 565.5 768.5)" fill="white" fill-opacity="0.8"/>
<circle cx="1028.5" cy="826.5" r="2.5" transform="rotate(-180 1028.5 826.5)" fill="white" fill-opacity="0.8"/>
<circle cx="1048.5" cy="486.5" r="2.5" transform="rotate(-180 1048.5 486.5)" fill="white" fill-opacity="0.8"/>
<circle cx="1149.5" cy="452.5" r="2.5" transform="rotate(-180 1149.5 452.5)" fill="white" fill-opacity="0.8"/>
<circle cx="1182.5" cy="481.5" r="2.5" transform="rotate(-180 1182.5 481.5)" fill="white" fill-opacity="0.8"/>
<circle cx="1048.5" cy="346.5" r="2.5" transform="rotate(-180 1048.5 346.5)" fill="white" fill-opacity="0.8"/>
<circle cx="1367.5" cy="411.5" r="2.5" transform="rotate(-180 1367.5 411.5)" fill="white" fill-opacity="0.8"/>
<circle cx="980.5" cy="699.5" r="2.5" transform="rotate(-180 980.5 699.5)" fill="white" fill-opacity="0.8"/>
<circle r="2.5" transform="matrix(1 0 0 -1 853.5 603.5)" fill="white" fill-opacity="0.8"/>
<circle cx="885" cy="758" r="8" transform="rotate(-180 885 758)" fill="white" fill-opacity="0.8"/>
<circle cx="505.5" cy="413.5" r="3.5" transform="rotate(-180 505.5 413.5)" fill="white" fill-opacity="0.8"/>
<circle cx="262" cy="476" r="8" transform="rotate(-180 262 476)" fill="white" fill-opacity="0.8"/>
<circle cx="74" cy="534" r="8" transform="rotate(-180 74 534)" fill="white" fill-opacity="0.8"/>
<circle cx="1179" cy="707" r="5" transform="rotate(-180 1179 707)" fill="white" fill-opacity="0.8"/>
<circle cx="689" cy="753" r="5" transform="rotate(-180 689 753)" fill="white" fill-opacity="0.8"/>
<circle cx="336" cy="758" r="5" transform="rotate(-180 336 758)" fill="white" fill-opacity="0.8"/>
<circle cx="446" cy="636" r="5" transform="rotate(-180 446 636)" fill="white" fill-opacity="0.8"/>
<circle cx="1154" cy="655" r="5" transform="rotate(-180 1154 655)" fill="white" fill-opacity="0.8"/>
<circle cx="1300" cy="520" r="5" transform="rotate(-180 1300 520)" fill="white" fill-opacity="0.8"/>
<circle cx="668" cy="609" r="5" transform="rotate(-180 668 609)" fill="white" fill-opacity="0.8"/>
<circle cx="382" cy="455" r="5" transform="rotate(-180 382 455)" fill="white" fill-opacity="0.8"/>
<circle cx="710" cy="315" r="4" transform="rotate(-180 710 315)" fill="white" fill-opacity="0.8"/>
</g>
</g>
<defs>
<linearGradient id="paint0_linear_2413_641" x1="720" y1="0" x2="720" y2="900" gradientUnits="userSpaceOnUse">
<stop stop-color="#D9D9D9"/>
<stop offset="0.675025" stop-color="#D9D9D9" stop-opacity="0.252168"/>
<stop offset="1" stop-color="#D9D9D9" stop-opacity="0"/>
</linearGradient>
<clipPath id="clip0_2413_641">
<rect width="1440" height="900" fill="white"/>
</clipPath>
</defs>
</svg>
