<?xml version="1.0" encoding="UTF-8"?><svg id="Layer_1" xmlns="http://www.w3.org/2000/svg" viewBox="0 0 500 500"><defs><style>.cls-1{fill:#fff;fill-rule:evenodd;}</style></defs><path class="cls-1" d="m27.28,172.05h44.54c6.15,0,11.14-4.99,11.14-11.14s-4.99-11.14-11.14-11.14H27.28c-6.15,0-11.14,4.99-11.14,11.14s4.99,11.14,11.14,11.14Z"/><path class="cls-1" d="m54.54,48.06l38.58,22.27c5.32,3.07,12.14,1.25,15.21-4.08s1.25-12.14-4.08-15.21l-38.58-22.27c-5.32-3.07-12.14-1.25-15.21,4.08s-1.25,12.14,4.08,15.21Z"/><path class="cls-1" d="m65.67,293.05l38.58-22.27c5.32-3.07,7.15-9.89,4.08-15.21s-9.89-7.15-15.21-4.08l-38.58,22.27c-5.32,3.07-7.15,9.89-4.08,15.21s9.89,7.15,15.21,4.08Z"/><path class="cls-1" d="m428.17,172.05h44.54c6.15,0,11.14-4.99,11.14-11.14s-4.99-11.14-11.14-11.14h-44.54c-6.15,0-11.14,4.99-11.14,11.14s4.99,11.14,11.14,11.14Z"/><path class="cls-1" d="m395.75,270.77l38.58,22.27c5.32,3.07,12.14,1.25,15.21-4.08,3.07-5.32,1.25-12.14-4.08-15.21l-38.58-22.27c-5.32-3.07-12.14-1.25-15.21,4.08s-1.25,12.14,4.08,15.21Z"/><path class="cls-1" d="m406.88,70.33l38.58-22.27c5.32-3.07,7.15-9.89,4.08-15.21-3.07-5.32-9.89-7.15-15.21-4.08l-38.58,22.27c-5.32,3.07-7.15,9.89-4.08,15.21s9.89,7.15,15.21,4.08Z"/><path class="cls-1" d="m283.41,461.58v11.14c0,6.15-4.99,11.14-11.14,11.14h-44.54c-6.15,0-11.14-4.99-11.14-11.14v-11.14h66.81Z"/><path class="cls-1" d="m327.95,428.17c0-6.15-4.99-11.14-11.14-11.14h-133.63c-6.15,0-11.14,4.99-11.14,11.14s4.99,11.14,11.14,11.14h133.63c6.15,0,11.14-4.99,11.14-11.14Z"/><path class="cls-1" d="m327.95,383.63c0-6.15-4.99-11.14-11.14-11.14h-133.63c-6.15,0-11.14,4.99-11.14,11.14s4.99,11.14,11.14,11.14h133.63c6.15,0,11.14-4.99,11.14-11.14Z"/><path class="cls-1" d="m172.05,339.09v-29.11c0-15.88-6.78-31-18.64-41.56h0c-29.62-26.36-48.17-64.78-48.17-107.5,0-79.9,64.87-144.77,144.77-144.77s144.77,64.87,144.77,144.77c0,42.75-18.57,81.19-48.07,107.69-11.76,10.49-18.51,25.55-18.52,41.35-.22,9.08-.22,19.82-.22,29.13h0c0,2.95-1.17,5.79-3.26,7.87-2.08,2.09-4.92,3.26-7.87,3.26h-133.63c-2.95,0-5.79-1.17-7.87-3.26-2.09-2.08-3.26-4.92-3.26-7.87ZM250,82.96c43.02,0,77.95,34.93,77.95,77.95,0,6.15,4.99,11.14,11.14,11.14s11.14-4.99,11.14-11.14c0-55.31-44.91-100.22-100.22-100.22-6.15,0-11.14,4.99-11.14,11.14s4.99,11.14,11.14,11.14Z"/></svg>