<svg width="78" height="78" viewBox="0 0 78 78" fill="none" xmlns="http://www.w3.org/2000/svg">
<path fill-rule="evenodd" clip-rule="evenodd" d="M15.7914 16.25C18.8142 13.1592 22.4246 10.7043 26.4104 9.0299C30.3961 7.35546 34.6765 6.49529 38.9997 6.50002C53.5564 6.50002 65.8674 16.0648 70.0112 29.25H48.7497C47.8877 29.25 47.0611 29.5924 46.4516 30.2019C45.8421 30.8114 45.4997 31.6381 45.4997 32.5C45.4997 33.362 45.8421 34.1886 46.4516 34.7981C47.0611 35.4076 47.8877 35.75 48.7497 35.75H71.3372C71.4444 36.8225 71.4997 37.9048 71.4997 39C71.4997 56.9498 56.9494 71.5 38.9997 71.5C34.6765 71.5049 30.396 70.6448 26.4103 68.9704C22.4245 67.2959 18.814 64.841 15.7914 61.75H35.7497C36.6116 61.75 37.4383 61.4076 38.0478 60.7981C38.6573 60.1886 38.9997 59.362 38.9997 58.5C38.9997 57.6381 38.6573 56.8114 38.0478 56.2019C37.4383 55.5924 36.6116 55.25 35.7497 55.25H10.8482C9.65913 53.1949 8.70002 51.0151 7.9882 48.75H42.2497C43.1116 48.75 43.9383 48.4076 44.5478 47.7981C45.1573 47.1886 45.4997 46.362 45.4997 45.5C45.4997 44.6381 45.1573 43.8114 44.5478 43.2019C43.9383 42.5924 43.1116 42.25 42.2497 42.25H6.6622C5.97072 35.4711 7.43679 28.6468 10.8514 22.75H38.9997C39.8616 22.75 40.6883 22.4076 41.2978 21.7981C41.9073 21.1886 42.2497 20.362 42.2497 19.5C42.2497 18.6381 41.9073 17.8114 41.2978 17.2019C40.6883 16.5924 39.8616 16.25 38.9997 16.25H15.7914ZM32.4997 29.25C31.6377 29.25 30.8111 29.5924 30.2016 30.2019C29.5921 30.8114 29.2497 31.6381 29.2497 32.5C29.2497 33.362 29.5921 34.1886 30.2016 34.7981C30.8111 35.4076 31.6377 35.75 32.4997 35.75H38.9997C39.8616 35.75 40.6883 35.4076 41.2978 34.7981C41.9073 34.1886 42.2497 33.362 42.2497 32.5C42.2497 31.6381 41.9073 30.8114 41.2978 30.2019C40.6883 29.5924 39.8616 29.25 38.9997 29.25H32.4997ZM25.0507 34.801C24.4412 35.4103 23.6147 35.7526 22.7529 35.7526C21.8912 35.7526 21.0647 35.4103 20.4552 34.801H20.4519C19.8421 34.1916 19.4993 33.3649 19.499 32.5028C19.4989 32.0759 19.5828 31.6532 19.746 31.2587C19.9093 30.8643 20.1486 30.5059 20.4503 30.2039C20.7521 29.9019 21.1103 29.6624 21.5047 29.4989C21.899 29.3354 22.3217 29.2511 22.7485 29.251C23.6107 29.2507 24.4376 29.5929 25.0474 30.2023C25.3496 30.5041 25.5893 30.8625 25.7529 31.2571C25.9164 31.6516 26.0006 32.0745 26.0006 32.5016C26.0006 32.9287 25.9164 33.3517 25.7529 33.7462C25.5893 34.1407 25.3496 34.4992 25.0474 34.801H25.0507ZM49.7052 47.801C50.005 48.1114 50.3636 48.359 50.7601 48.5293C51.1566 48.6997 51.5831 48.7893 52.0146 48.7931C52.4462 48.7968 52.8741 48.7146 53.2735 48.5512C53.673 48.3878 54.0358 48.1465 54.341 47.8413C54.6461 47.5362 54.8875 47.1733 55.0509 46.7739C55.2143 46.3745 55.2965 45.9465 55.2928 45.515C55.289 45.0834 55.1994 44.657 55.029 44.2605C54.8587 43.8639 54.6111 43.5053 54.3007 43.2055V43.2023C53.6913 42.5924 52.8646 42.2497 52.0025 42.2494C51.1403 42.2491 50.3134 42.5912 49.7036 43.2006C49.0937 43.81 48.751 44.6367 48.7507 45.4989C48.7504 46.361 49.0925 47.1879 49.7019 47.7978L49.7052 47.801Z" fill="url(#paint0_linear_33_95)"/>
<defs>
<linearGradient id="paint0_linear_33_95" x1="6.49512" y1="39" x2="71.4997" y2="39" gradientUnits="userSpaceOnUse">
<stop stop-color="#094EFF"/>
<stop offset="1" stop-color="#21BDD9"/>
</linearGradient>
</defs>
</svg>
