<svg xmlns="http://www.w3.org/2000/svg" width="35.998" height="24.75" viewBox="0 0 35.998 24.75">
  <g id="planet" transform="translate(0 -5.625)">
    <path id="Path_1" data-name="Path 1" d="M6.81,20.153a.563.563,0,0,0-.881.58,12.371,12.371,0,0,0,15.758,9.078.563.563,0,0,0,.054-1.054,78.751,78.751,0,0,1-7.7-3.91A79.187,79.187,0,0,1,6.81,20.152Z" fill="#fff"/>
    <path id="Path_2" data-name="Path 2" d="M34.644,23.872c-.295-.392-.641-.8-1.034-1.233A1.113,1.113,0,0,0,31.743,23a.11.11,0,0,1-.012.033,1.107,1.107,0,0,0,.221,1.129c1.6,1.758,1.858,2.708,1.792,2.908-.141.157-1.2.484-4.089-.248q-.621-.158-1.358-.384-.475-.146-.97-.316A12.428,12.428,0,0,0,28.7,24.206l.037-.062A12.332,12.332,0,0,0,30.375,18a12.576,12.576,0,0,0-.07-1.336A12.377,12.377,0,0,0,7.3,11.794c-.011.02-.024.041-.036.061A12.338,12.338,0,0,0,6.289,14q-.393-.342-.759-.68c-.379-.352-.715-.677-1.014-.984C2.437,10.209,2.189,9.13,2.255,8.93c.141-.157,1.093-.413,3.419.092a1.112,1.112,0,0,0,1.091-.374l.025-.031a1.107,1.107,0,0,0-.61-1.788,16.691,16.691,0,0,0-1.671-.29c-2.16-.248-3.574.177-4.2,1.266A2.565,2.565,0,0,0,.115,9.816c.377,1.41,1.723,3.122,3.628,4.914.607.572,1.27,1.151,1.977,1.732.515.422,1.055.848,1.61,1.271q.556.422,1.136.844t1.174.829c1.787,1.238,3.675,2.427,5.526,3.494q1.008.581,2.014,1.125t2,1.041c1.54.773,3.048,1.471,4.49,2.069q.927.385,1.815.714c.836.311,1.643.584,2.412.815l.077.023a17.716,17.716,0,0,0,4.534.844h.122c1.522,0,2.552-.449,3.064-1.336.639-1.1.287-2.554-1.045-4.324Z" fill="#fff"/>
  </g>
</svg>
