<svg width="78" height="62" viewBox="0 0 78 62" fill="none" xmlns="http://www.w3.org/2000/svg">
<path d="M72.2236 25.217C68.2177 23.3512 62.8603 22.2812 57.525 22.2812H22.7086C22.1051 21.4875 21.4186 20.8308 20.6709 20.3438H45.825C27.9285 16.6803 26.7397 3.875 11.7004 3.875H11.7V19.375H9.75V3.875C6.51909 3.875 3.9 7.34482 3.9 11.625V19.375C1.07287 19.375 0 20.5898 0 22.2812V27.125C0 28.8183 1.07482 30.0312 3.9 30.0312V31.9688C1.07287 31.9688 0 33.1836 0 34.875V39.7188C0 41.412 1.07482 42.625 3.9 42.625V50.375C3.9 54.6552 6.51909 58.125 9.75 58.125V42.625H11.7V58.125H11.7004C26.7397 58.125 27.9285 45.3197 45.825 41.6562H20.6707C21.4184 41.1692 22.105 40.5125 22.7085 39.7188H57.525C62.8603 39.7188 68.2177 38.6488 72.2236 36.783C75.8406 35.0984 78 32.9365 78 31C78 29.0635 75.8406 26.9016 72.2236 25.217ZM59.475 35.8438C59.2164 35.8438 58.9684 35.7417 58.7856 35.56C58.6027 35.3783 58.5 35.1319 58.5 34.875V27.125C58.5 26.8681 58.6027 26.6217 58.7856 26.44C58.9684 26.2583 59.2164 26.1562 59.475 26.1562C63.3639 26.1562 63.3679 35.8438 59.475 35.8438Z" fill="url(#paint0_linear_2413_808)"/>
<defs>
<linearGradient id="paint0_linear_2413_808" x1="-2.85451e-07" y1="31" x2="78" y2="31" gradientUnits="userSpaceOnUse">
<stop stop-color="#094EFF"/>
<stop offset="1" stop-color="#21BDD9"/>
</linearGradient>
</defs>
</svg>
