<?xml version="1.0" encoding="UTF-8"?><svg id="Layer_1" xmlns="http://www.w3.org/2000/svg" viewBox="0 0 3240 866.64"><defs><style>.cls-1{fill:#fff;}</style></defs><g id="Layer_1-2"><path class="cls-1" d="M2484.43,148.43h71.93V718.67h-71.93V148.43Zm-143.21,0h71.28V718.67h-71.28V148.43Zm554.04,393.34c0,99.79-64.15,130.25-130.9,130.25-51.19,0-81.65-26.57-81.65-66.74,0-58.32,82.94-77.76,212.54-90.07v26.57Zm64.8,18.14l.65-98.5c1.3-119.88-49.25-174.31-167.83-174.31-81.65,0-163.94,51.19-169.78,142.56h73.87c3.24-52.49,36.94-84.24,96.55-84.24,53.78,0,95.9,25.27,95.9,103.03v10.37c-173.02,18.79-286.42,48.6-286.42,148.39,0,77.76,66.1,121.82,145.8,121.82,75.17,0,118.58-23.98,144.5-68.04,.65,19.44,2.59,38.88,5.83,57.67h71.93c-9.07-40.18-11.66-88.13-11.02-159.41v.65Zm258.55-266.33c-55.73,1.94-97.85,27.86-119.23,75.82v-73.87h-69.98v423.14h71.28v-222.26c0-93.96,33.05-129.6,99.14-129.6,13.61,.65,26.57,1.3,40.18,3.89v-76.46c-7.13-.65-14.26-.65-21.38-.65h0Zm-1417.82-103.68h-71.93v105.62h-66.74v57.67h66.74v259.2c0,88.13,18.79,106.27,99.79,106.27h52.49v-60.26h-36.29c-40.82,0-44.06-11.02-44.06-54.43v-250.78h80.35v-57.67h-80.35v-105.62Zm-345.38,202.18l-66.1-14.9c-53.78-12.31-93.31-36.94-93.31-87.48,0-64.15,77.11-83.59,121.18-83.59,57.02,0,123.12,22.68,141.91,88.13h77.76c-22.68-109.51-113.4-155.52-215.78-155.52-92.02,0-206.06,46.01-206.06,155.52,0,94.61,77.76,138.67,156.17,155.52l71.28,14.9c71.93,16.85,122.47,40.18,122.47,101.09,0,56.38-47.95,95.9-132.84,95.9s-142.56-40.82-157.46-119.88h-78.41c14.9,113.4,99.79,187.27,233.93,187.27,113.4,0,217.08-59.62,217.08-171.07s-104.98-147.74-191.81-166.54v.65Zm512.57,77.76c6.48-85.54,64.8-119.88,127.66-119.88,76.46,0,119.23,59.62,121.82,119.88h-249.48Zm127.66-181.44c-115.34,0-205.42,85.54-205.42,219.67,0,125.06,73.87,220.97,207.36,220.97,103.03,0,171.07-60.26,189.22-132.84h-72.58c-18.14,41.47-53.14,69.98-115.99,69.98s-128.3-44.06-130.25-134.78h325.3c9.07-134.78-67.39-242.35-196.99-242.35l-.65-.65Zm-1138.54-57.02L201.53,616.29l-66.1,33.05L0,718.67v82.94l134.78-68.69,115.34-58.97L807.41,390.14c23.98,181.44-103.68,347.98-285.12,371.95-14.26,1.94-29.16,3.24-44.06,3.24-56.38,0-112.1-14.9-162-42.77l-3.89,2.59-71.28,35.64c180.79,131.54,434.16,91.37,565.7-90.07,49.9-68.69,77.11-151.63,77.11-237.17,0-10.37,0-20.74-1.3-31.1-1.94-29.81,13.61-57.67,40.18-71.28l34.34-18.14v-81.65Zm-134.78-96.55l-115.34,58.32L150.34,476.97c-23.98-181.44,104.33-347.98,285.77-371.95,70.63-9.07,142.56,4.54,204.77,39.53l66.1-33.7,9.72-5.18C535.9-25.88,282.53,14.94,150.98,195.74c-50.54,69.34-77.11,152.28-77.11,237.82,0,10.37,0,20.74,.65,31.1,2.59,29.16-12.96,57.67-39.53,71.28L0,553.43v82.94l102.38-52.49,33.05-16.85,33.05-16.2L754.92,251.46l66.1-33.7,136.08-69.34V65.49l-134.78,69.34Z"/></g></svg>