<svg width="78" height="77" viewBox="0 0 78 77" fill="none" xmlns="http://www.w3.org/2000/svg">
<g clip-path="url(#clip0_19_444)">
<path d="M28.044 25.7679L39 23.3333L49.956 25.7679C50.2521 25.8337 50.5169 25.9985 50.7067 26.2351C50.8965 26.4717 50.9999 26.7659 51 27.0693V40.3853C50.9999 41.7022 50.6747 42.9988 50.0532 44.1599C49.4317 45.321 48.5332 46.3108 47.4373 47.0413L39 52.6666L30.5627 47.0413C29.467 46.3109 28.5686 45.3214 27.9471 44.1605C27.3256 42.9997 27.0003 41.7033 27 40.3866V27.0693C27.0001 26.7659 27.1035 26.4717 27.2933 26.2351C27.4831 25.9985 27.7479 25.8337 28.044 25.7679V25.7679ZM39 36.6666C39.8841 36.6666 40.7319 36.3154 41.357 35.6903C41.9821 35.0652 42.3333 34.2173 42.3333 33.3333C42.3333 32.4492 41.9821 31.6014 41.357 30.9762C40.7319 30.3511 39.8841 29.9999 39 29.9999C38.1159 29.9999 37.2681 30.3511 36.643 30.9762C36.0179 31.6014 35.6667 32.4492 35.6667 33.3333C35.6667 34.2173 36.0179 35.0652 36.643 35.6903C37.2681 36.3154 38.1159 36.6666 39 36.6666ZM33.036 43.3333H44.964C44.8024 41.8645 44.1044 40.507 43.0039 39.5209C41.9034 38.5348 40.4777 37.9895 39 37.9895C37.5223 37.9895 36.0966 38.5348 34.9961 39.5209C33.8956 40.507 33.1976 41.8645 33.036 43.3333V43.3333Z" fill="white"/>
</g>
<circle cx="39" cy="38.5" r="38" stroke="url(#paint0_linear_19_444)"/>
<defs>
<linearGradient id="paint0_linear_19_444" x1="39" y1="0" x2="39" y2="77" gradientUnits="userSpaceOnUse">
<stop stop-color="white"/>
<stop offset="1" stop-color="white" stop-opacity="0"/>
</linearGradient>
<clipPath id="clip0_19_444">
<rect width="32" height="32" fill="white" transform="translate(23 22)"/>
</clipPath>
</defs>
</svg>
