<svg width="20" height="23" viewBox="0 0 20 23" fill="none" xmlns="http://www.w3.org/2000/svg">
<path d="M0.879883 17.054C2.25607 10.9647 5.19649 5.33961 9.41088 0.733974C9.48582 0.652449 9.57686 0.587367 9.67824 0.542848C9.77963 0.498329 9.88915 0.475342 9.99988 0.475342C10.1106 0.475342 10.2201 0.498329 10.3215 0.542848C10.4229 0.587367 10.514 0.652449 10.5889 0.733974C10.7549 0.913974 10.8929 1.06597 11.0019 1.18897C14.9984 5.71085 17.7905 11.1673 19.1199 17.054C16.9789 17.505 14.7799 17.801 12.5359 17.928L10.4469 22.106C10.4053 22.1889 10.3415 22.2587 10.2625 22.3074C10.1836 22.3561 10.0927 22.3819 9.99988 22.3819C9.90711 22.3819 9.81616 22.3561 9.73722 22.3074C9.65828 22.2587 9.59445 22.1889 9.55288 22.106L7.46388 17.928C5.25034 17.8029 3.04941 17.5107 0.879883 17.054ZM9.99988 14C10.7955 14 11.5586 13.6839 12.1212 13.1213C12.6838 12.5587 12.9999 11.7956 12.9999 11C12.9999 10.2043 12.6838 9.44126 12.1212 8.87865C11.5586 8.31604 10.7955 7.99997 9.99988 7.99997C9.20423 7.99997 8.44117 8.31604 7.87856 8.87865C7.31595 9.44126 6.99988 10.2043 6.99988 11C6.99988 11.7956 7.31595 12.5587 7.87856 13.1213C8.44117 13.6839 9.20423 14 9.99988 14Z" fill="#1996E6"/>
</svg>
