<svg width="16" height="23" viewBox="0 0 16 23" fill="none" xmlns="http://www.w3.org/2000/svg">
<path d="M4.498 19.0001H11.502C10.8404 20.5824 9.58232 21.8405 8 22.5021C6.41768 21.8405 5.15956 20.5824 4.498 19.0001ZM14 13.8051L16 16.0731V18.0001H0V16.0731L2 13.8051V8.00008C2 4.51708 4.504 1.55308 8 0.455078C11.496 1.55308 14 4.51708 14 8.00008V13.8051ZM8 10.0001C8.53043 10.0001 9.03914 9.78936 9.41421 9.41429C9.78929 9.03922 10 8.53051 10 8.00008C10 7.46965 9.78929 6.96094 9.41421 6.58586C9.03914 6.21079 8.53043 6.00008 8 6.00008C7.46957 6.00008 6.96086 6.21079 6.58579 6.58586C6.21071 6.96094 6 7.46965 6 8.00008C6 8.53051 6.21071 9.03922 6.58579 9.41429C6.96086 9.78936 7.46957 10.0001 8 10.0001Z" fill="white"/>
</svg>
