<svg width="422" height="632" viewBox="0 0 422 632" fill="none" xmlns="http://www.w3.org/2000/svg">
<path opacity="0.24" d="M392.791 155.448C392.791 200.887 310.699 237.724 209.433 237.724C108.167 237.724 26.0745 200.887 26.0745 155.448C26.0745 110.008 108.167 73.1714 209.433 73.1714C310.699 73.1714 392.791 110.008 392.791 155.448Z" fill="url(#paint0_linear_12_208)"/>
<path fill-rule="evenodd" clip-rule="evenodd" d="M80.5968 211.801C47.5381 196.967 28.0736 176.887 28.0736 155.448C28.0736 134.008 47.5381 113.928 80.5968 99.0943C113.466 84.3454 159.014 75.1714 209.432 75.1714C259.85 75.1714 305.398 84.3454 338.267 99.0943C371.326 113.928 390.79 134.008 390.79 155.448C390.79 176.887 371.326 196.967 338.267 211.801C305.398 226.55 259.85 235.724 209.432 235.724C159.014 235.724 113.466 226.55 80.5968 211.801ZM209.432 237.724C108.166 237.724 26.0736 200.887 26.0736 155.448C26.0736 110.008 108.166 73.1714 209.432 73.1714C310.698 73.1714 392.79 110.008 392.79 155.448C392.79 200.887 310.698 237.724 209.432 237.724Z" fill="url(#paint1_linear_12_208)"/>
<g filter="url(#filter0_d_12_208)">
<path d="M236.075 155.447C236.075 161.939 224.498 167.201 210.217 167.201C195.936 167.201 184.359 161.939 184.359 155.447C184.359 148.956 195.936 143.694 210.217 143.694C224.498 143.694 236.075 148.956 236.075 155.447Z" fill="white"/>
</g>
<path fill-rule="evenodd" clip-rule="evenodd" d="M376.933 456.125C385.965 446.634 390.791 436.384 390.791 425.783C390.791 415.182 385.965 404.933 376.933 395.442C367.891 385.94 354.712 377.293 338.274 369.987C305.404 355.378 259.853 346.291 209.433 346.291C159.013 346.291 113.462 355.378 80.5911 369.987C64.1532 377.293 50.9746 385.94 41.9325 395.442C32.9001 404.933 28.0745 415.182 28.0745 425.783C28.0745 436.384 32.9001 446.634 41.9325 456.125C50.9746 465.627 64.1532 474.274 80.5911 481.58C113.462 496.189 159.013 505.276 209.433 505.276C259.853 505.276 305.404 496.189 338.274 481.58C354.712 474.274 367.891 465.627 376.933 456.125ZM209.433 507.276C310.699 507.276 392.791 470.79 392.791 425.783C392.791 380.776 310.699 344.291 209.433 344.291C108.167 344.291 26.0745 380.776 26.0745 425.783C26.0745 470.79 108.167 507.276 209.433 507.276Z" fill="url(#paint2_linear_12_208)"/>
<path d="M392.791 356.828C392.791 401.835 310.699 438.321 209.433 438.321C108.167 438.321 26.0745 401.835 26.0745 356.828C26.0745 311.821 108.167 275.336 209.433 275.336C310.699 275.336 392.791 311.821 392.791 356.828Z" fill="url(#paint3_linear_12_208)"/>
<path fill-rule="evenodd" clip-rule="evenodd" d="M376.933 387.17C385.965 377.679 390.791 367.429 390.791 356.828C390.791 346.227 385.965 335.977 376.933 326.486C367.891 316.985 354.712 308.338 338.274 301.032C305.404 286.423 259.853 277.336 209.433 277.336C159.013 277.336 113.462 286.423 80.5911 301.032C64.1532 308.338 50.9746 316.985 41.9325 326.486C32.9001 335.977 28.0745 346.227 28.0745 356.828C28.0745 367.429 32.9001 377.679 41.9325 387.17C50.9746 396.671 64.1532 405.319 80.5911 412.625C113.462 427.234 159.013 436.321 209.433 436.321C259.853 436.321 305.404 427.234 338.274 412.625C354.712 405.319 367.891 396.671 376.933 387.17ZM209.433 438.321C310.699 438.321 392.791 401.835 392.791 356.828C392.791 311.821 310.699 275.336 209.433 275.336C108.167 275.336 26.0745 311.821 26.0745 356.828C26.0745 401.835 108.167 438.321 209.433 438.321Z" fill="url(#paint4_linear_12_208)"/>
<path fill-rule="evenodd" clip-rule="evenodd" d="M376.933 324.483C385.965 314.992 390.791 304.743 390.791 294.142C390.791 283.541 385.965 273.291 376.933 263.8C367.891 254.299 354.712 245.651 338.274 238.345C305.404 223.736 259.853 214.649 209.433 214.649C159.013 214.649 113.462 223.736 80.5911 238.345C64.1532 245.651 50.9746 254.299 41.9325 263.8C32.9001 273.291 28.0745 283.541 28.0745 294.142C28.0745 304.743 32.9001 314.992 41.9325 324.483C50.9746 333.985 64.1532 342.632 80.5911 349.938C113.462 364.547 159.013 373.634 209.433 373.634C259.853 373.634 305.404 364.547 338.274 349.938C354.712 342.632 367.891 333.985 376.933 324.483ZM209.433 375.634C310.699 375.634 392.791 339.149 392.791 294.142C392.791 249.135 310.699 212.649 209.433 212.649C108.167 212.649 26.0745 249.135 26.0745 294.142C26.0745 339.149 108.167 375.634 209.433 375.634Z" fill="url(#paint5_linear_12_208)"/>
<path d="M392.791 548.806C392.791 594.246 310.699 631.082 209.433 631.082C108.167 631.082 26.0745 594.246 26.0745 548.806C26.0745 503.366 108.167 466.53 209.433 466.53C310.699 466.53 392.791 503.366 392.791 548.806Z" fill="url(#paint6_linear_12_208)"/>
<path fill-rule="evenodd" clip-rule="evenodd" d="M338.677 606.071C371.797 591.21 391.791 570.886 391.791 548.806C391.791 526.726 371.797 506.402 338.677 491.54C305.652 476.721 259.958 467.53 209.433 467.53C158.907 467.53 113.213 476.721 80.1882 491.54C47.0682 506.402 27.0745 526.726 27.0745 548.806C27.0745 570.886 47.0682 591.21 80.1882 606.071C113.213 620.89 158.907 630.082 209.433 630.082C259.958 630.082 305.652 620.89 338.677 606.071ZM209.433 631.082C310.699 631.082 392.791 594.246 392.791 548.806C392.791 503.366 310.699 466.53 209.433 466.53C108.167 466.53 26.0745 503.366 26.0745 548.806C26.0745 594.246 108.167 631.082 209.433 631.082Z" fill="url(#paint7_linear_12_208)"/>
<path fill-rule="evenodd" clip-rule="evenodd" d="M402.762 272.201V175.037H404.762V272.201H402.762Z" fill="url(#paint8_linear_12_208)"/>
<path fill-rule="evenodd" clip-rule="evenodd" d="M0 544.888V447.724H2V544.888H0Z" fill="url(#paint9_linear_12_208)"/>
<path fill-rule="evenodd" clip-rule="evenodd" d="M420 294.142V196.977H422V294.142H420Z" fill="url(#paint10_linear_12_208)"/>
<path fill-rule="evenodd" clip-rule="evenodd" d="M17.2378 566.828V469.664H19.2378V566.828H17.2378Z" fill="url(#paint11_linear_12_208)"/>
<path fill-rule="evenodd" clip-rule="evenodd" d="M210 621L210 162L212 162L212 621L210 621Z" fill="url(#paint12_linear_12_208)"/>
<path d="M288.877 98.7798L376.84 2.04598L295.233 104.199C293.751 106.055 291.022 106.304 289.229 104.747C287.458 103.209 287.298 100.515 288.877 98.7798Z" fill="url(#paint13_linear_12_208)"/>
<path d="M292.257 127.866L343.134 71.9163L295.934 131C295.077 132.074 293.499 132.217 292.461 131.317C291.437 130.428 291.345 128.87 292.257 127.866Z" fill="url(#paint14_linear_12_208)"/>
<path fill-rule="evenodd" clip-rule="evenodd" d="M197.763 519.218C197.763 495.217 211.406 479 211.406 479C211.406 479 225.049 495.217 225.049 519.218C225.049 543.219 218.143 559.473 218.143 559.473H211.406H204.669C204.669 559.473 197.763 543.219 197.763 519.218Z" fill="url(#paint15_linear_12_208)"/>
<path fill-rule="evenodd" clip-rule="evenodd" d="M211.401 479.004V559.473H204.668C204.668 559.473 197.762 543.219 197.762 519.218C197.762 495.438 211.155 479.299 211.401 479.004Z" fill="url(#paint16_linear_12_208)"/>
<path fill-rule="evenodd" clip-rule="evenodd" d="M219.117 517.487C218.888 521.547 215.523 524.768 211.406 524.768C207.288 524.768 203.923 521.546 203.695 517.485C203.686 517.631 203.682 517.779 203.682 517.927C203.682 522.193 207.14 525.651 211.406 525.651C215.672 525.651 219.13 522.193 219.13 517.927C219.13 517.779 219.125 517.633 219.117 517.487Z" fill="#76B2DF"/>
<path d="M204.669 559.471H218.144V565.388C218.144 565.388 216.017 566.452 211.406 566.452C206.796 566.452 204.669 565.388 204.669 565.388V559.471Z" fill="url(#paint17_linear_12_208)"/>
<path fill-rule="evenodd" clip-rule="evenodd" d="M204.669 562.544V561.028H218.144V562.544L204.669 562.544Z" fill="#1A85D6"/>
<path fill-rule="evenodd" clip-rule="evenodd" d="M209.358 562.967C209.358 569.551 211.451 574 211.451 574C211.451 574 213.543 569.551 213.543 562.967C213.543 558.073 212.958 554.354 212.658 552.766C212.564 552.27 212.127 551.924 211.622 551.924H211.451H211.28C210.774 551.924 210.338 552.27 210.244 552.766C209.943 554.354 209.358 558.073 209.358 562.967Z" fill="url(#paint18_radial_12_208)"/>
<path fill-rule="evenodd" clip-rule="evenodd" d="M220.521 495.392C217.903 494.735 214.442 494.115 210.705 494.115C207.413 494.115 204.575 494.596 202.381 495.16C206.339 485.023 211.406 479 211.406 479C211.406 479 216.55 485.115 220.521 495.392Z" fill="url(#paint19_radial_12_208)"/>
<path d="M219.13 517.073C219.13 521.339 215.672 524.797 211.406 524.797C207.14 524.797 203.682 521.339 203.682 517.073C203.682 512.808 207.14 509.35 211.406 509.35C215.672 509.35 219.13 512.808 219.13 517.073Z" fill="white" fill-opacity="0.5"/>
<path fill-rule="evenodd" clip-rule="evenodd" d="M203.854 518.703L213.036 509.522C214.335 509.801 215.513 510.407 216.479 511.249L205.582 522.147C204.739 521.18 204.133 520.003 203.854 518.703ZM208.526 524.242C207.81 523.954 207.146 523.562 206.555 523.084L217.416 512.222C217.894 512.814 218.287 513.477 218.575 514.194L208.526 524.242Z" fill="white"/>
<path fill-rule="evenodd" clip-rule="evenodd" d="M211.406 523.343C214.868 523.343 217.675 520.536 217.675 517.073C217.675 513.611 214.868 510.804 211.406 510.804C207.943 510.804 205.137 513.611 205.137 517.073C205.137 520.536 207.943 523.343 211.406 523.343ZM211.406 524.797C215.672 524.797 219.13 521.339 219.13 517.073C219.13 512.808 215.672 509.35 211.406 509.35C207.14 509.35 203.682 512.808 203.682 517.073C203.682 521.339 207.14 524.797 211.406 524.797Z" fill="url(#paint20_radial_12_208)"/>
<path fill-rule="evenodd" clip-rule="evenodd" d="M219.6 501.235C219.516 502.027 218.846 502.644 218.032 502.644C217.218 502.644 216.548 502.027 216.464 501.235C216.458 501.291 216.455 501.347 216.455 501.404C216.455 502.275 217.161 502.981 218.032 502.981C218.903 502.981 219.609 502.275 219.609 501.404C219.609 501.347 219.606 501.291 219.6 501.235Z" fill="#76B2DF"/>
<path d="M219.616 501.127C219.616 501.998 218.91 502.704 218.04 502.704C217.169 502.704 216.463 501.998 216.463 501.127C216.463 500.256 217.169 499.55 218.04 499.55C218.91 499.55 219.616 500.256 219.616 501.127Z" fill="white" fill-opacity="0.5"/>
<path fill-rule="evenodd" clip-rule="evenodd" d="M216.565 501.687L218.6 499.653C218.838 499.743 219.048 499.889 219.215 500.075L216.988 502.302C216.802 502.135 216.656 501.925 216.565 501.687ZM217.647 502.655C217.489 502.614 217.341 502.55 217.207 502.466L219.379 500.294C219.463 500.429 219.527 500.577 219.567 500.734L217.647 502.655Z" fill="white"/>
<path fill-rule="evenodd" clip-rule="evenodd" d="M218.04 502.34C218.71 502.34 219.253 501.797 219.253 501.127C219.253 500.457 218.71 499.914 218.04 499.914C217.369 499.914 216.826 500.457 216.826 501.127C216.826 501.797 217.369 502.34 218.04 502.34ZM218.04 502.704C218.91 502.704 219.616 501.998 219.616 501.127C219.616 500.256 218.91 499.55 218.04 499.55C217.169 499.55 216.463 500.256 216.463 501.127C216.463 501.998 217.169 502.704 218.04 502.704Z" fill="url(#paint21_radial_12_208)"/>
<path d="M213.392 499.55C213.392 500.647 212.503 501.536 211.406 501.536C210.309 501.536 209.42 500.647 209.42 499.55C209.42 498.453 210.309 497.564 211.406 497.564C212.503 497.564 213.392 498.453 213.392 499.55Z" fill="white" fill-opacity="0.5"/>
<path fill-rule="evenodd" clip-rule="evenodd" d="M213.385 499.719C213.3 500.737 212.446 501.536 211.406 501.536C210.366 501.536 209.513 500.737 209.427 499.719C209.423 499.774 209.42 499.83 209.42 499.887C209.42 500.984 210.309 501.873 211.406 501.873C212.503 501.873 213.392 500.984 213.392 499.887C213.392 499.83 213.39 499.774 213.385 499.719Z" fill="#76B2DF"/>
<path fill-rule="evenodd" clip-rule="evenodd" d="M209.442 499.848L211.704 497.586C212.138 497.652 212.526 497.858 212.821 498.157L210.012 500.965C209.714 500.671 209.507 500.282 209.442 499.848ZM211.108 501.514C210.837 501.473 210.585 501.378 210.361 501.239L213.095 498.505C213.234 498.729 213.329 498.982 213.37 499.252L211.108 501.514Z" fill="white"/>
<path fill-rule="evenodd" clip-rule="evenodd" d="M211.406 501.172C212.302 501.172 213.028 500.446 213.028 499.55C213.028 498.654 212.302 497.928 211.406 497.928C210.51 497.928 209.784 498.654 209.784 499.55C209.784 500.446 210.51 501.172 211.406 501.172ZM211.406 501.536C212.503 501.536 213.392 500.647 213.392 499.55C213.392 498.453 212.503 497.564 211.406 497.564C210.309 497.564 209.42 498.453 209.42 499.55C209.42 500.647 210.309 501.536 211.406 501.536Z" fill="url(#paint22_radial_12_208)"/>
<path d="M206.349 501.127C206.349 501.998 205.643 502.704 204.772 502.704C203.901 502.704 203.195 501.998 203.195 501.127C203.195 500.256 203.901 499.55 204.772 499.55C205.643 499.55 206.349 500.256 206.349 501.127Z" fill="white" fill-opacity="0.5"/>
<path fill-rule="evenodd" clip-rule="evenodd" d="M206.34 501.295C206.256 502.087 205.586 502.704 204.772 502.704C203.958 502.704 203.288 502.087 203.204 501.295C203.198 501.351 203.195 501.407 203.195 501.464C203.195 502.335 203.901 503.041 204.772 503.041C205.643 503.041 206.349 502.335 206.349 501.464C206.349 501.407 206.346 501.351 206.34 501.295Z" fill="#76B2DF"/>
<path fill-rule="evenodd" clip-rule="evenodd" d="M203.243 501.514L205.16 499.598C205.415 499.663 205.646 499.789 205.834 499.961L203.607 502.189C203.435 502 203.308 501.77 203.243 501.514ZM204.207 502.599C204.062 502.544 203.927 502.467 203.806 502.373L206.018 500.16C206.112 500.281 206.189 500.416 206.245 500.562L204.207 502.599Z" fill="white"/>
<path fill-rule="evenodd" clip-rule="evenodd" d="M204.772 502.34C205.442 502.34 205.985 501.797 205.985 501.127C205.985 500.457 205.442 499.914 204.772 499.914C204.102 499.914 203.558 500.457 203.558 501.127C203.558 501.797 204.102 502.34 204.772 502.34ZM204.772 502.704C205.643 502.704 206.349 501.998 206.349 501.127C206.349 500.256 205.643 499.55 204.772 499.55C203.901 499.55 203.195 500.256 203.195 501.127C203.195 501.998 203.901 502.704 204.772 502.704Z" fill="url(#paint23_radial_12_208)"/>
<path d="M220.47 553.43H215.164L217.195 558.148H220.096C220.464 558.148 220.807 558.333 221.009 558.641L231.065 574L224.566 556.29C223.936 554.572 222.3 553.43 220.47 553.43Z" fill="url(#paint24_radial_12_208)"/>
<path fill-rule="evenodd" clip-rule="evenodd" d="M216.695 556.985L217.195 558.148H220.14C220.481 558.148 220.799 558.32 220.986 558.605L231.066 574L230.958 573.707L221.647 557.353C221.517 557.126 221.276 556.985 221.015 556.985H216.695Z" fill="url(#paint25_radial_12_208)"/>
<path d="M202.349 553.43H207.655L205.624 558.148H202.722C202.354 558.148 202.011 558.333 201.81 558.641L191.753 574L198.252 556.29C198.883 554.572 200.519 553.43 202.349 553.43Z" fill="url(#paint26_radial_12_208)"/>
<path fill-rule="evenodd" clip-rule="evenodd" d="M206.124 556.985L205.623 558.148H202.678C202.337 558.148 202.02 558.32 201.833 558.605L191.753 574L191.86 573.707L201.172 557.353C201.301 557.126 201.542 556.985 201.804 556.985H206.124Z" fill="url(#paint27_radial_12_208)"/>
<path fill-rule="evenodd" clip-rule="evenodd" d="M211.403 479.004V494.122C211.171 494.117 210.939 494.115 210.705 494.115C207.413 494.115 204.575 494.597 202.381 495.161C206.279 485.177 211.253 479.184 211.403 479.004Z" fill="url(#paint28_radial_12_208)"/>
<path fill-rule="evenodd" clip-rule="evenodd" d="M213.434 565.571C212.086 565.882 210.683 565.735 209.453 565.402C209.863 570.624 211.45 574 211.45 574C211.45 574 213.004 570.697 213.434 565.571Z" fill="#A419E2"/>
<mask id="mask0_12_208" style="mask-type:alpha" maskUnits="userSpaceOnUse" x="197" y="479" width="29" height="88">
<path fill-rule="evenodd" clip-rule="evenodd" d="M202.684 494.386C206.592 484.717 211.401 479 211.401 479C211.401 479 211.615 479.254 211.988 479.744C213.447 481.662 217.354 487.207 220.517 495.393C223.012 501.852 225.044 509.955 225.044 519.218C225.044 543.135 218.187 559.358 218.139 559.472V565.389C218.139 565.389 216.012 566.453 211.401 566.453C206.791 566.453 204.664 565.389 204.664 565.389V559.472C204.61 559.344 197.759 543.124 197.759 519.218C197.759 509.468 200.01 501.002 202.684 494.386Z" fill="url(#paint29_radial_12_208)"/>
</mask>
<g mask="url(#mask0_12_208)">
<g style="mix-blend-mode:overlay">
<path d="M210.957 489.664C205.062 488.232 208.599 485.79 203.461 483.516L195.629 497.412C196.387 501.033 197.769 509.185 197.23 512.823C196.556 517.37 194.451 537.835 194.029 539.098C193.693 540.108 198.044 556.811 200.261 565.036L216.009 568.825C216.15 568.096 215.875 565.844 213.651 562.678C210.872 558.72 216.852 562.088 214.578 557.204C212.304 552.319 208.683 555.351 213.651 550.214C218.62 545.077 215.841 547.014 207.504 541.372C199.167 535.729 210.199 538.087 217.694 529.918C225.189 521.75 208.599 531.687 207.504 515.602C206.409 499.517 222.662 514.255 219.546 506.507C216.43 498.759 216.852 491.096 210.957 489.664Z" fill="url(#paint30_linear_12_208)"/>
</g>
<g style="mix-blend-mode:overlay">
<path d="M213.105 494.752C210.663 483.972 211 490.541 227.422 481.362C228.601 482.737 231.851 488.655 235.422 501.32C239.885 517.153 225.906 506.289 217.148 508.394C208.389 510.5 202.663 519.679 205.61 509.826C208.558 499.973 215.548 505.531 213.105 494.752Z" fill="url(#paint31_linear_12_208)"/>
</g>
<path d="M219.946 491.299C216.072 485.151 218.093 488.604 220.872 481.362C224.072 485.151 229.816 494.061 227.188 499.384C223.904 506.037 223.82 505.616 228.115 511.426C232.41 517.237 228.199 517.069 225.167 523.048C222.135 529.027 224.072 530.964 226.178 536.859C228.283 542.754 224.157 545.702 220.872 544.101C217.588 542.501 224.072 540.733 222.641 536.354C221.209 531.975 218.851 534.501 219.188 528.859C219.525 523.216 225.167 515.974 220.872 513.953C216.577 511.932 217.504 510.247 220.872 501.994C224.241 493.741 223.82 497.447 219.946 491.299Z" fill="url(#paint32_linear_12_208)"/>
</g>
<defs>
<filter id="filter0_d_12_208" x="174.359" y="133.694" width="71.7163" height="43.5075" filterUnits="userSpaceOnUse" color-interpolation-filters="sRGB">
<feFlood flood-opacity="0" result="BackgroundImageFix"/>
<feColorMatrix in="SourceAlpha" type="matrix" values="0 0 0 0 0 0 0 0 0 0 0 0 0 0 0 0 0 0 127 0" result="hardAlpha"/>
<feOffset/>
<feGaussianBlur stdDeviation="5"/>
<feComposite in2="hardAlpha" operator="out"/>
<feColorMatrix type="matrix" values="0 0 0 0 1 0 0 0 0 1 0 0 0 0 1 0 0 0 1 0"/>
<feBlend mode="normal" in2="BackgroundImageFix" result="effect1_dropShadow_12_208"/>
<feBlend mode="normal" in="SourceGraphic" in2="effect1_dropShadow_12_208" result="shape"/>
</filter>
<linearGradient id="paint0_linear_12_208" x1="209.433" y1="73.1714" x2="209.433" y2="237.724" gradientUnits="userSpaceOnUse">
<stop stop-color="white"/>
<stop offset="1" stop-color="white" stop-opacity="0"/>
</linearGradient>
<linearGradient id="paint1_linear_12_208" x1="219.376" y1="73.1714" x2="219.376" y2="238.3" gradientUnits="userSpaceOnUse">
<stop stop-color="white" stop-opacity="0"/>
<stop offset="1" stop-color="white"/>
</linearGradient>
<linearGradient id="paint2_linear_12_208" x1="26.0745" y1="425.783" x2="392.791" y2="425.783" gradientUnits="userSpaceOnUse">
<stop stop-color="white" stop-opacity="0.32"/>
<stop offset="1" stop-color="white" stop-opacity="0"/>
</linearGradient>
<linearGradient id="paint3_linear_12_208" x1="33.9103" y1="356.828" x2="392.791" y2="356.828" gradientUnits="userSpaceOnUse">
<stop stop-color="#21BDD9"/>
<stop offset="1" stop-color="#21BDD9" stop-opacity="0"/>
</linearGradient>
<linearGradient id="paint4_linear_12_208" x1="26.0745" y1="356.828" x2="392.791" y2="356.828" gradientUnits="userSpaceOnUse">
<stop stop-color="white"/>
<stop offset="1" stop-color="white" stop-opacity="0"/>
</linearGradient>
<linearGradient id="paint5_linear_12_208" x1="26.0745" y1="294.142" x2="392.791" y2="294.142" gradientUnits="userSpaceOnUse">
<stop stop-color="white"/>
<stop offset="1" stop-color="white" stop-opacity="0"/>
</linearGradient>
<linearGradient id="paint6_linear_12_208" x1="392.791" y1="548.022" x2="26.0745" y2="548.022" gradientUnits="userSpaceOnUse">
<stop stop-color="#094EFF"/>
<stop offset="1" stop-color="#094EFF" stop-opacity="0"/>
</linearGradient>
<linearGradient id="paint7_linear_12_208" x1="26.0745" y1="548.806" x2="392.791" y2="548.806" gradientUnits="userSpaceOnUse">
<stop stop-color="white" stop-opacity="0"/>
<stop offset="1" stop-color="white"/>
</linearGradient>
<linearGradient id="paint8_linear_12_208" x1="404.262" y1="175.037" x2="404.262" y2="272.201" gradientUnits="userSpaceOnUse">
<stop stop-color="white"/>
<stop offset="1" stop-color="white" stop-opacity="0"/>
</linearGradient>
<linearGradient id="paint9_linear_12_208" x1="1.5" y1="447.724" x2="1.5" y2="544.888" gradientUnits="userSpaceOnUse">
<stop stop-color="white"/>
<stop offset="1" stop-color="white" stop-opacity="0"/>
</linearGradient>
<linearGradient id="paint10_linear_12_208" x1="421.5" y1="196.977" x2="421.5" y2="294.142" gradientUnits="userSpaceOnUse">
<stop stop-color="white"/>
<stop offset="1" stop-color="white" stop-opacity="0"/>
</linearGradient>
<linearGradient id="paint11_linear_12_208" x1="18.7378" y1="469.664" x2="18.7378" y2="566.828" gradientUnits="userSpaceOnUse">
<stop stop-color="white"/>
<stop offset="1" stop-color="white" stop-opacity="0"/>
</linearGradient>
<linearGradient id="paint12_linear_12_208" x1="211.5" y1="162" x2="211.5" y2="621" gradientUnits="userSpaceOnUse">
<stop stop-color="white"/>
<stop offset="1" stop-color="white" stop-opacity="0"/>
</linearGradient>
<linearGradient id="paint13_linear_12_208" x1="376.754" y1="2.17256" x2="289.257" y2="104.772" gradientUnits="userSpaceOnUse">
<stop stop-color="white" stop-opacity="0"/>
<stop offset="0.696531" stop-color="#54CCFF"/>
<stop offset="1" stop-color="#43C7FF"/>
</linearGradient>
<linearGradient id="paint14_linear_12_208" x1="343.085" y1="71.9894" x2="292.478" y2="131.332" gradientUnits="userSpaceOnUse">
<stop stop-color="white" stop-opacity="0"/>
<stop offset="0.696531" stop-color="#54CCFF"/>
<stop offset="1" stop-color="#43C7FF"/>
</linearGradient>
<linearGradient id="paint15_linear_12_208" x1="211.406" y1="479" x2="211.406" y2="559.473" gradientUnits="userSpaceOnUse">
<stop stop-color="#D7ECFF"/>
<stop offset="1" stop-color="#9ED6FF"/>
</linearGradient>
<linearGradient id="paint16_linear_12_208" x1="204.582" y1="479.004" x2="204.582" y2="559.473" gradientUnits="userSpaceOnUse">
<stop stop-color="#A6D2FA"/>
<stop offset="1" stop-color="#76BDF0"/>
</linearGradient>
<linearGradient id="paint17_linear_12_208" x1="211.406" y1="559.471" x2="211.406" y2="566.452" gradientUnits="userSpaceOnUse">
<stop stop-color="#4DA1EE"/>
<stop offset="1" stop-color="#41C2DE"/>
</linearGradient>
<radialGradient id="paint18_radial_12_208" cx="0" cy="0" r="1" gradientUnits="userSpaceOnUse" gradientTransform="translate(211.451 574) rotate(-90.1258) scale(22.0674 10.0865)">
<stop stop-color="#7A1DF0"/>
<stop offset="1" stop-color="#FC56FF"/>
</radialGradient>
<radialGradient id="paint19_radial_12_208" cx="0" cy="0" r="1" gradientUnits="userSpaceOnUse" gradientTransform="translate(211.451 479) rotate(90) scale(15.2742 15.6739)">
<stop stop-color="#FC56FF"/>
<stop offset="1" stop-color="#7A1DF0"/>
</radialGradient>
<radialGradient id="paint20_radial_12_208" cx="0" cy="0" r="1" gradientUnits="userSpaceOnUse" gradientTransform="translate(211.406 509.35) rotate(90) scale(14.3937 13.3473)">
<stop stop-color="#FC56FF"/>
<stop offset="1" stop-color="#7A1DF0"/>
</radialGradient>
<radialGradient id="paint21_radial_12_208" cx="0" cy="0" r="1" gradientUnits="userSpaceOnUse" gradientTransform="translate(218.04 499.55) rotate(90) scale(2.93861 2.72499)">
<stop stop-color="#FC56FF"/>
<stop offset="1" stop-color="#7A1DF0"/>
</radialGradient>
<radialGradient id="paint22_radial_12_208" cx="0" cy="0" r="1" gradientUnits="userSpaceOnUse" gradientTransform="translate(211.406 497.564) rotate(90) scale(3.70095 3.43191)">
<stop stop-color="#FC56FF"/>
<stop offset="1" stop-color="#7A1DF0"/>
</radialGradient>
<radialGradient id="paint23_radial_12_208" cx="0" cy="0" r="1" gradientUnits="userSpaceOnUse" gradientTransform="translate(204.772 499.55) rotate(90) scale(2.93861 2.72499)">
<stop stop-color="#FC56FF"/>
<stop offset="1" stop-color="#7A1DF0"/>
</radialGradient>
<radialGradient id="paint24_radial_12_208" cx="0" cy="0" r="1" gradientUnits="userSpaceOnUse" gradientTransform="translate(223.115 553.43) rotate(90) scale(19.1668 13.7397)">
<stop stop-color="#FC56FF"/>
<stop offset="1" stop-color="#7A1DF0"/>
</radialGradient>
<radialGradient id="paint25_radial_12_208" cx="0" cy="0" r="1" gradientUnits="userSpaceOnUse" gradientTransform="translate(223.88 556.985) rotate(90) scale(15.8539 12.4172)">
<stop stop-color="#E530E9"/>
<stop offset="1" stop-color="#6102DB"/>
</radialGradient>
<radialGradient id="paint26_radial_12_208" cx="0" cy="0" r="1" gradientUnits="userSpaceOnUse" gradientTransform="translate(199.704 553.43) rotate(90) scale(19.1668 13.7397)">
<stop stop-color="#FC56FF"/>
<stop offset="1" stop-color="#7A1DF0"/>
</radialGradient>
<radialGradient id="paint27_radial_12_208" cx="0" cy="0" r="1" gradientUnits="userSpaceOnUse" gradientTransform="translate(198.938 556.985) rotate(90) scale(15.8539 12.4172)">
<stop stop-color="#E530E9"/>
<stop offset="1" stop-color="#6102DB"/>
</radialGradient>
<radialGradient id="paint28_radial_12_208" cx="0" cy="0" r="1" gradientUnits="userSpaceOnUse" gradientTransform="translate(206.892 479.004) rotate(90) scale(15.0542 7.79499)">
<stop stop-color="#F047F3"/>
<stop offset="1" stop-color="#6D16DC"/>
</radialGradient>
<radialGradient id="paint29_radial_12_208" cx="0" cy="0" r="1" gradientUnits="userSpaceOnUse" gradientTransform="translate(211.447 479) rotate(90) scale(15.2742 15.6739)">
<stop stop-color="#FC56FF"/>
<stop offset="1" stop-color="#7A1DF0"/>
</radialGradient>
<linearGradient id="paint30_linear_12_208" x1="206.998" y1="486.632" x2="206.978" y2="568.825" gradientUnits="userSpaceOnUse">
<stop stop-color="#B7E0FF"/>
<stop offset="0.406729" stop-color="#D1EBFF" stop-opacity="0.420735"/>
<stop offset="1" stop-color="#E3F3FF" stop-opacity="0"/>
</linearGradient>
<linearGradient id="paint31_linear_12_208" x1="220.58" y1="482.565" x2="220.577" y2="514.302" gradientUnits="userSpaceOnUse">
<stop stop-color="#B7E0FF"/>
<stop offset="1" stop-color="#57D7FF"/>
</linearGradient>
<linearGradient id="paint32_linear_12_208" x1="223.881" y1="483.669" x2="223.857" y2="544.533" gradientUnits="userSpaceOnUse">
<stop stop-color="#B7E0FF"/>
<stop offset="0.406729" stop-color="#D1EBFF" stop-opacity="0.420735"/>
<stop offset="1" stop-color="#E3F3FF" stop-opacity="0"/>
</linearGradient>
</defs>
</svg>
